%TF.GenerationSoftware,KiCad,Pcbnew,10.0.3*%
%TF.CreationDate,2026-06-27T22:27:40+03:00*%
%TF.ProjectId,ARC_PFC,4152435f-5046-4432-9e6b-696361645f70,rev?*%
%TF.SameCoordinates,Original*%
%TF.FileFunction,Copper,L2,Inr*%
%TF.FilePolarity,Positive*%
%FSLAX46Y46*%
G04 Gerber Fmt 4.6, Leading zero omitted, Abs format (unit mm)*
G04 Created by KiCad (PCBNEW 10.0.3) date 2026-06-27 22:27:40*
%MOMM*%
%LPD*%
G01*
G04 APERTURE LIST*
G04 Aperture macros list*
%AMRoundRect*
0 Rectangle with rounded corners*
0 $1 Rounding radius*
0 $2 $3 $4 $5 $6 $7 $8 $9 X,Y pos of 4 corners*
0 Add a 4 corners polygon primitive as box body*
4,1,4,$2,$3,$4,$5,$6,$7,$8,$9,$2,$3,0*
0 Add four circle primitives for the rounded corners*
1,1,$1+$1,$2,$3*
1,1,$1+$1,$4,$5*
1,1,$1+$1,$6,$7*
1,1,$1+$1,$8,$9*
0 Add four rect primitives between the rounded corners*
20,1,$1+$1,$2,$3,$4,$5,0*
20,1,$1+$1,$4,$5,$6,$7,0*
20,1,$1+$1,$6,$7,$8,$9,0*
20,1,$1+$1,$8,$9,$2,$3,0*%
G04 Aperture macros list end*
%TA.AperFunction,ComponentPad*%
%ADD10RoundRect,0.250000X1.050000X-1.050000X1.050000X1.050000X-1.050000X1.050000X-1.050000X-1.050000X0*%
%TD*%
%TA.AperFunction,ComponentPad*%
%ADD11C,2.600000*%
%TD*%
%TA.AperFunction,ComponentPad*%
%ADD12C,2.250000*%
%TD*%
%TA.AperFunction,ComponentPad*%
%ADD13R,1.700000X1.700000*%
%TD*%
%TA.AperFunction,ComponentPad*%
%ADD14C,1.700000*%
%TD*%
%TA.AperFunction,ViaPad*%
%ADD15C,0.600000*%
%TD*%
%TA.AperFunction,ViaPad*%
%ADD16C,1.000000*%
%TD*%
%TA.AperFunction,ViaPad*%
%ADD17C,0.800000*%
%TD*%
%TA.AperFunction,ViaPad*%
%ADD18C,0.500000*%
%TD*%
%TA.AperFunction,ViaPad*%
%ADD19C,0.450000*%
%TD*%
%TA.AperFunction,Conductor*%
%ADD20C,1.000000*%
%TD*%
G04 APERTURE END LIST*
D10*
%TO.N,GND*%
%TO.C,J7*%
X99350910Y-152750000D03*
D11*
%TO.N,Net-(C30-+)*%
X99350910Y-149250000D03*
%TD*%
D12*
%TO.N,Net-(D3-A2)*%
%TO.C,J11*%
X111500000Y-91000000D03*
%TO.N,GND*%
X108960000Y-88460000D03*
X108960000Y-93540000D03*
X114040000Y-88460000D03*
X114040000Y-93540000D03*
%TD*%
D10*
%TO.N,Net-(J10-Pin_1)*%
%TO.C,J10*%
X99417500Y-122750000D03*
D11*
%TO.N,GND*%
X99417500Y-119250000D03*
%TD*%
D10*
%TO.N,Net-(J9-Pin_1)*%
%TO.C,J9*%
X99417500Y-132000000D03*
D11*
%TO.N,GND*%
X99417500Y-128500000D03*
%TD*%
D12*
%TO.N,Net-(BAS70S-AU_R1_000A1-A2)*%
%TO.C,J12*%
X127500000Y-91000000D03*
%TO.N,GND*%
X124960000Y-88460000D03*
X124960000Y-93540000D03*
X130040000Y-88460000D03*
X130040000Y-93540000D03*
%TD*%
D13*
%TO.N,Net-(J5-Pin_1)*%
%TO.C,J5*%
X97000000Y-109460000D03*
D14*
%TO.N,Net-(J5-Pin_2)*%
X99540000Y-109460000D03*
%TO.N,+BATT*%
X97000000Y-112000000D03*
X99540000Y-112000000D03*
%TO.N,GND*%
X97000000Y-114540000D03*
X99540000Y-114540000D03*
%TD*%
D13*
%TO.N,+3.3V*%
%TO.C,J3*%
X116000000Y-157080000D03*
D14*
%TO.N,GND*%
X116000000Y-154540000D03*
%TO.N,Net-(J3-Pin_3)*%
X116000000Y-152000000D03*
%TO.N,Net-(J3-Pin_4)*%
X116000000Y-149460000D03*
%TO.N,Net-(J3-Pin_5)*%
X116000000Y-146920000D03*
%TD*%
D13*
%TO.N,Net-(J4-Pin_1)*%
%TO.C,J4*%
X140000000Y-108960000D03*
D14*
%TO.N,Net-(J4-Pin_2)*%
X142540000Y-108960000D03*
%TO.N,+BATT*%
X140000000Y-111500000D03*
X142540000Y-111500000D03*
%TO.N,GND*%
X140000000Y-114040000D03*
X142540000Y-114040000D03*
%TD*%
D10*
%TO.N,GND*%
%TO.C,J8*%
X99360288Y-143624170D03*
D11*
%TO.N,Net-(C30-+)*%
X99360288Y-140124170D03*
%TD*%
D10*
%TO.N,GND*%
%TO.C,J2*%
X99354967Y-161832130D03*
D11*
%TO.N,Net-(J2-Pin_2)*%
X99354967Y-158332130D03*
%TD*%
D15*
%TO.N,*%
X113499000Y-133320000D03*
%TO.N,/X_IN*%
X115952693Y-120925001D03*
X112987815Y-120926248D03*
%TO.N,GND*%
X111000000Y-169500000D03*
X129000000Y-114000000D03*
X107500000Y-123000000D03*
X111000000Y-138500000D03*
X140000000Y-129000000D03*
X135500000Y-160000000D03*
X141000000Y-152500000D03*
X108500000Y-165500000D03*
X101500000Y-136500000D03*
X127000000Y-151500000D03*
X137425000Y-146575000D03*
X106500000Y-173000000D03*
X126425000Y-125000000D03*
X133500000Y-135900000D03*
X123000000Y-110000000D03*
X106500000Y-114500000D03*
X132500000Y-145500000D03*
X140729903Y-149687000D03*
X125750000Y-171000000D03*
X124000000Y-143000000D03*
X131500000Y-103000000D03*
X106500000Y-98000000D03*
X107000000Y-125500000D03*
X130000000Y-173000000D03*
X122000000Y-131000000D03*
X122000000Y-102500000D03*
X111750000Y-147563285D03*
X127500000Y-137575000D03*
X113000000Y-102000000D03*
X126425000Y-128500000D03*
X121075000Y-121849000D03*
X122000000Y-135500000D03*
X131500000Y-141500000D03*
X137000000Y-134000000D03*
X109500000Y-161500000D03*
X131381571Y-111330279D03*
X144000000Y-143500000D03*
X135294031Y-151294031D03*
X131000000Y-125500000D03*
X124040337Y-150959663D03*
X102500000Y-107500000D03*
X136500000Y-117000000D03*
X142322630Y-148425000D03*
X118500000Y-94000000D03*
X138000000Y-107000000D03*
X117799000Y-121000000D03*
X143000000Y-129000000D03*
X116000000Y-141500000D03*
X120525000Y-94525000D03*
X144000000Y-136500000D03*
X107500000Y-117000000D03*
X121000000Y-169000000D03*
X106000000Y-106500000D03*
X118000000Y-111000000D03*
X142500000Y-163500000D03*
X126500000Y-166000000D03*
X112000000Y-167500000D03*
D16*
%TO.N,+5V*%
X112500000Y-141500000D03*
D15*
X121500000Y-164000000D03*
X139000000Y-141500000D03*
D16*
X113000000Y-155500000D03*
D15*
X113500000Y-164000000D03*
X107542574Y-137654895D03*
X127500000Y-167000000D03*
X143500000Y-134000000D03*
X104292529Y-146173989D03*
D16*
X110000000Y-166000000D03*
D15*
X122575000Y-141500000D03*
D17*
%TO.N,+3.3V*%
X122000000Y-155000000D03*
D15*
X126000000Y-122500000D03*
X110000000Y-154500000D03*
X112193069Y-128349000D03*
X122500000Y-121000000D03*
X134000000Y-112000000D03*
X134500000Y-105000000D03*
X110500000Y-128500000D03*
D17*
X132000000Y-144000000D03*
D15*
X139000000Y-140000000D03*
X133000000Y-114500000D03*
X136967157Y-140032843D03*
X106000000Y-101500000D03*
D18*
X117932076Y-122212076D03*
D15*
%TO.N,/SPI_MOSI*%
X113000000Y-105000000D03*
X126000000Y-145500000D03*
X117845337Y-119404542D03*
X125000000Y-138500000D03*
%TO.N,Net-(E22-400M22S1-MOSI)*%
X117003528Y-103259083D03*
%TO.N,/RXEN*%
X107500000Y-101500000D03*
%TO.N,/CS_MICROSD*%
X115604144Y-126723000D03*
X126207346Y-146619623D03*
X120913959Y-128100786D03*
%TO.N,/SPI_MISO*%
X110000000Y-113575000D03*
X117000000Y-116000000D03*
X127500000Y-131500000D03*
X111000000Y-110500000D03*
X131500000Y-139500000D03*
%TO.N,Net-(E22-400M22S1-MISO)*%
X117000000Y-102000000D03*
%TO.N,/NSS*%
X112000000Y-111500000D03*
X121892339Y-128351742D03*
%TO.N,Net-(E22-400M22S1-NSS)*%
X117000000Y-106000000D03*
D16*
%TO.N,+BATT*%
X116500000Y-173500000D03*
X137500000Y-156500000D03*
X130500000Y-148500000D03*
X116000000Y-133688925D03*
%TO.N,Net-(J10-Pin_1)*%
X120338959Y-137500000D03*
X102500000Y-132000000D03*
X110500000Y-141500000D03*
D15*
%TO.N,Net-(D3-A2)*%
X113000000Y-96500000D03*
%TO.N,/I2C_SCL*%
X122000000Y-146000000D03*
X124500000Y-99500000D03*
D19*
X116291284Y-115548547D03*
D15*
X123000000Y-139000000D03*
X126075000Y-150500000D03*
X139000000Y-146500000D03*
X135500000Y-146500000D03*
%TO.N,/5V_BATT*%
X124000000Y-159500000D03*
X127500000Y-161500000D03*
%TO.N,/3.3V_BS*%
X104500000Y-140000000D03*
%TO.N,Net-(IC1-VSENSE)*%
X125610359Y-168500000D03*
X125170658Y-163500000D03*
%TO.N,Net-(J9-Pin_1)*%
X112500000Y-139000000D03*
%TO.N,/WSP_SS*%
X127500000Y-118000000D03*
X134500000Y-123500000D03*
X108500000Y-128000000D03*
X116000000Y-129000000D03*
%TO.N,Net-(U1-VREG_VOUT)*%
X122500000Y-123000000D03*
X115575000Y-122075000D03*
%TO.N,/TXEN*%
X104000000Y-104500000D03*
X104000000Y-98500000D03*
%TO.N,/PYRO1_SW*%
X111808044Y-129500000D03*
X120065687Y-117065687D03*
%TO.N,/I2C_SDA*%
X139500000Y-150262000D03*
X113000000Y-131500000D03*
X135000000Y-145000000D03*
X112500000Y-126000000D03*
X134500000Y-139000000D03*
X122000000Y-126500000D03*
X114186119Y-124186119D03*
X136500000Y-114000000D03*
X135000000Y-103500000D03*
X138000000Y-143500000D03*
%TO.N,Net-(J5-Pin_2)*%
X104500000Y-109500000D03*
X106750000Y-112750000D03*
%TO.N,/V_BATT_READOUT*%
X108500000Y-170500000D03*
X126000000Y-139000000D03*
X124273635Y-127720257D03*
X116000000Y-166500000D03*
%TO.N,Net-(IC5-SDO)*%
X140154903Y-150850000D03*
X144000000Y-144500000D03*
D19*
%TO.N,/RUN*%
X113736828Y-125750000D03*
D15*
X120000000Y-142500000D03*
%TO.N,Net-(JP2-C)*%
X134518200Y-143000000D03*
X134000000Y-145000000D03*
%TO.N,/X_OUT*%
X115500000Y-117000000D03*
X115755196Y-120075000D03*
%TO.N,/CAMERA_SWITCH*%
X113500000Y-168000000D03*
X121300000Y-119599998D03*
%TO.N,/BUZZER*%
X130500000Y-139000000D03*
X122000000Y-127500000D03*
%TO.N,/SWCLK*%
X115598924Y-122883694D03*
X113000000Y-123500000D03*
X113717390Y-149758489D03*
%TO.N,/SWDIO*%
X119000000Y-153500000D03*
X113000000Y-128500000D03*
D19*
X115579026Y-123790000D03*
D15*
X113500000Y-136000000D03*
X114699997Y-134000000D03*
D19*
%TO.N,/PYRO2_SW*%
X119699623Y-119674998D03*
D15*
X113425000Y-116075000D03*
X113000000Y-119000000D03*
X105000000Y-133500000D03*
%TO.N,/UART_TX*%
X128000000Y-110500000D03*
X119500000Y-116500000D03*
%TO.N,/UART_RX*%
X119000000Y-115500000D03*
X126000000Y-110500000D03*
%TO.N,/SPI_SCK*%
X117976195Y-122960779D03*
X112711105Y-109608662D03*
%TO.N,/DIO1*%
X116925000Y-112500000D03*
X120000000Y-99500000D03*
D19*
X117281424Y-126238576D03*
%TO.N,/IO0*%
X119040000Y-123850000D03*
D15*
X119500000Y-110000000D03*
D19*
%TO.N,/IO1*%
X119587500Y-128087500D03*
X124440000Y-133110000D03*
D15*
X123000000Y-106500000D03*
X125000000Y-115000000D03*
X119925000Y-101500000D03*
X119500000Y-132500000D03*
D19*
%TO.N,/USB_DM*%
X125075811Y-136270000D03*
D15*
X126500000Y-123498590D03*
X131000000Y-122500000D03*
X124925000Y-131500000D03*
X128500000Y-160500000D03*
%TO.N,/USB_DP*%
X125000000Y-122500000D03*
X124500000Y-130500000D03*
X130500000Y-124000000D03*
%TO.N,/QSPI_SD2*%
X126500000Y-119500000D03*
X135000000Y-119500000D03*
%TO.N,/QSPI_SD1*%
X126948759Y-118806185D03*
X133500000Y-116500000D03*
%TO.N,Net-(E22-400M22S1-SCK)*%
X117000000Y-104500000D03*
%TO.N,/5V_USB*%
X140300312Y-134990238D03*
%TO.N,Net-(J2-Pin_2)*%
X103500000Y-159000000D03*
X115000000Y-168500000D03*
%TO.N,/V_BCKUP*%
X128000000Y-104000000D03*
%TO.N,Net-(D1-K)*%
X132206587Y-118393413D03*
X135000000Y-121500000D03*
%TO.N,Net-(D2-A)*%
X140400000Y-121500000D03*
X132311790Y-123624964D03*
%TD*%
%TO.N,+5V*%
D20*
X139000000Y-148500000D02*
X141500000Y-146000000D01*
X139000000Y-142000000D02*
X139000000Y-141500000D01*
X141500000Y-144500000D02*
X139000000Y-142000000D01*
X122575000Y-141500000D02*
X126000000Y-141500000D01*
X126000000Y-141500000D02*
X133000000Y-148500000D01*
X133000000Y-148500000D02*
X139000000Y-148500000D01*
X141500000Y-146000000D02*
X141500000Y-144500000D01*
%TD*%
%TA.AperFunction,Conductor*%
%TO.N,GND*%
G36*
X142003472Y-86800695D02*
G01*
X142295306Y-86817084D01*
X142309103Y-86818638D01*
X142593827Y-86867015D01*
X142607384Y-86870109D01*
X142884899Y-86950060D01*
X142898025Y-86954653D01*
X143164841Y-87065172D01*
X143177355Y-87071198D01*
X143343443Y-87162992D01*
X143430124Y-87210899D01*
X143441898Y-87218297D01*
X143677439Y-87385422D01*
X143688307Y-87394090D01*
X143903641Y-87586526D01*
X143913473Y-87596358D01*
X144105909Y-87811692D01*
X144114580Y-87822564D01*
X144281702Y-88058101D01*
X144289100Y-88069875D01*
X144428797Y-88322637D01*
X144434830Y-88335165D01*
X144545346Y-88601975D01*
X144549939Y-88615100D01*
X144629890Y-88892615D01*
X144632984Y-88906172D01*
X144681359Y-89190885D01*
X144682916Y-89204703D01*
X144699305Y-89496527D01*
X144699500Y-89503480D01*
X144699500Y-144247793D01*
X144679815Y-144314832D01*
X144627011Y-144360587D01*
X144557853Y-144370531D01*
X144494297Y-144341506D01*
X144468113Y-144309794D01*
X144432316Y-144247793D01*
X144400500Y-144192686D01*
X144307314Y-144099500D01*
X144250250Y-144066554D01*
X144193187Y-144033608D01*
X144129539Y-144016554D01*
X144065892Y-143999500D01*
X143934108Y-143999500D01*
X143806812Y-144033608D01*
X143692686Y-144099500D01*
X143692683Y-144099502D01*
X143599502Y-144192683D01*
X143599500Y-144192686D01*
X143533608Y-144306812D01*
X143499500Y-144434108D01*
X143499500Y-144565891D01*
X143533608Y-144693187D01*
X143544268Y-144711650D01*
X143599500Y-144807314D01*
X143692686Y-144900500D01*
X143806814Y-144966392D01*
X143934108Y-145000500D01*
X143934110Y-145000500D01*
X144065890Y-145000500D01*
X144065892Y-145000500D01*
X144193186Y-144966392D01*
X144307314Y-144900500D01*
X144400500Y-144807314D01*
X144426611Y-144762087D01*
X144468113Y-144690206D01*
X144518680Y-144641990D01*
X144587287Y-144628768D01*
X144652152Y-144654736D01*
X144692680Y-144711650D01*
X144699500Y-144752206D01*
X144699500Y-171996519D01*
X144699305Y-172003472D01*
X144682916Y-172295296D01*
X144681359Y-172309114D01*
X144632984Y-172593827D01*
X144629890Y-172607384D01*
X144549939Y-172884899D01*
X144545346Y-172898024D01*
X144434830Y-173164834D01*
X144428797Y-173177362D01*
X144289100Y-173430124D01*
X144281702Y-173441898D01*
X144114580Y-173677435D01*
X144105909Y-173688307D01*
X143913473Y-173903641D01*
X143903641Y-173913473D01*
X143688307Y-174105909D01*
X143677435Y-174114580D01*
X143441898Y-174281702D01*
X143430124Y-174289100D01*
X143177362Y-174428797D01*
X143164834Y-174434830D01*
X142898024Y-174545346D01*
X142884899Y-174549939D01*
X142607384Y-174629890D01*
X142593827Y-174632984D01*
X142309114Y-174681359D01*
X142295296Y-174682916D01*
X142003472Y-174699305D01*
X141996519Y-174699500D01*
X98003481Y-174699500D01*
X97996528Y-174699305D01*
X97704703Y-174682916D01*
X97690885Y-174681359D01*
X97406172Y-174632984D01*
X97392615Y-174629890D01*
X97115100Y-174549939D01*
X97101975Y-174545346D01*
X96835165Y-174434830D01*
X96822637Y-174428797D01*
X96569875Y-174289100D01*
X96558101Y-174281702D01*
X96322564Y-174114580D01*
X96311692Y-174105909D01*
X96096358Y-173913473D01*
X96086526Y-173903641D01*
X95908411Y-173704332D01*
X95894087Y-173688303D01*
X95885419Y-173677435D01*
X95808477Y-173568995D01*
X115799499Y-173568995D01*
X115826418Y-173704322D01*
X115826421Y-173704332D01*
X115879221Y-173831804D01*
X115879228Y-173831817D01*
X115955885Y-173946541D01*
X115955888Y-173946545D01*
X116053454Y-174044111D01*
X116053458Y-174044114D01*
X116168182Y-174120771D01*
X116168195Y-174120778D01*
X116295667Y-174173578D01*
X116295672Y-174173580D01*
X116295676Y-174173580D01*
X116295677Y-174173581D01*
X116431004Y-174200500D01*
X116431007Y-174200500D01*
X116568995Y-174200500D01*
X116660041Y-174182389D01*
X116704328Y-174173580D01*
X116831811Y-174120775D01*
X116946542Y-174044114D01*
X117044114Y-173946542D01*
X117120775Y-173831811D01*
X117173580Y-173704328D01*
X117200500Y-173568993D01*
X117200500Y-173431007D01*
X117200500Y-173431004D01*
X117173581Y-173295677D01*
X117173580Y-173295676D01*
X117173580Y-173295672D01*
X117173578Y-173295667D01*
X117120778Y-173168195D01*
X117120771Y-173168182D01*
X117044114Y-173053458D01*
X117044111Y-173053454D01*
X116946545Y-172955888D01*
X116946541Y-172955885D01*
X116831817Y-172879228D01*
X116831804Y-172879221D01*
X116704332Y-172826421D01*
X116704322Y-172826418D01*
X116568995Y-172799500D01*
X116568993Y-172799500D01*
X116431007Y-172799500D01*
X116431005Y-172799500D01*
X116295677Y-172826418D01*
X116295667Y-172826421D01*
X116168195Y-172879221D01*
X116168182Y-172879228D01*
X116053458Y-172955885D01*
X116053454Y-172955888D01*
X115955888Y-173053454D01*
X115955885Y-173053458D01*
X115879228Y-173168182D01*
X115879221Y-173168195D01*
X115826421Y-173295667D01*
X115826418Y-173295677D01*
X115799500Y-173431004D01*
X115799500Y-173431007D01*
X115799500Y-173568993D01*
X115799500Y-173568995D01*
X115799499Y-173568995D01*
X95808477Y-173568995D01*
X95757160Y-173496670D01*
X95757159Y-173496667D01*
X95718298Y-173441898D01*
X95710899Y-173430124D01*
X95571202Y-173177362D01*
X95565172Y-173164841D01*
X95454653Y-172898024D01*
X95450060Y-172884899D01*
X95370109Y-172607384D01*
X95367015Y-172593827D01*
X95353965Y-172517020D01*
X95318638Y-172309103D01*
X95317084Y-172295306D01*
X95300695Y-172003472D01*
X95300500Y-171996519D01*
X95300500Y-168878711D01*
X99149500Y-168878711D01*
X99149500Y-169121288D01*
X99181161Y-169361785D01*
X99243947Y-169596104D01*
X99336773Y-169820205D01*
X99336776Y-169820212D01*
X99458064Y-170030289D01*
X99458066Y-170030292D01*
X99458067Y-170030293D01*
X99605733Y-170222736D01*
X99605739Y-170222743D01*
X99777256Y-170394260D01*
X99777263Y-170394266D01*
X99829189Y-170434110D01*
X99969711Y-170541936D01*
X100179788Y-170663224D01*
X100403900Y-170756054D01*
X100638211Y-170818838D01*
X100818586Y-170842584D01*
X100878711Y-170850500D01*
X100878712Y-170850500D01*
X101121289Y-170850500D01*
X101169388Y-170844167D01*
X101361789Y-170818838D01*
X101596100Y-170756054D01*
X101820212Y-170663224D01*
X102030289Y-170541936D01*
X102170813Y-170434108D01*
X107999500Y-170434108D01*
X107999500Y-170565891D01*
X108033608Y-170693187D01*
X108066554Y-170750250D01*
X108099500Y-170807314D01*
X108192686Y-170900500D01*
X108306814Y-170966392D01*
X108434108Y-171000500D01*
X108434110Y-171000500D01*
X108565890Y-171000500D01*
X108565892Y-171000500D01*
X108693186Y-170966392D01*
X108807314Y-170900500D01*
X108900500Y-170807314D01*
X108966392Y-170693186D01*
X109000500Y-170565892D01*
X109000500Y-170434108D01*
X108966392Y-170306814D01*
X108900500Y-170192686D01*
X108807314Y-170099500D01*
X108750250Y-170066554D01*
X108693187Y-170033608D01*
X108629539Y-170016554D01*
X108565892Y-169999500D01*
X108434108Y-169999500D01*
X108306812Y-170033608D01*
X108192686Y-170099500D01*
X108192683Y-170099502D01*
X108099502Y-170192683D01*
X108099500Y-170192686D01*
X108033608Y-170306812D01*
X107999500Y-170434108D01*
X102170813Y-170434108D01*
X102222738Y-170394265D01*
X102222743Y-170394260D01*
X102278704Y-170338300D01*
X102394260Y-170222743D01*
X102394265Y-170222738D01*
X102541936Y-170030289D01*
X102663224Y-169820212D01*
X102756054Y-169596100D01*
X102818838Y-169361789D01*
X102850500Y-169121288D01*
X102850500Y-168878712D01*
X102818838Y-168638211D01*
X102756054Y-168403900D01*
X102663224Y-168179788D01*
X102541936Y-167969711D01*
X102514617Y-167934108D01*
X112999500Y-167934108D01*
X112999500Y-168065891D01*
X113033608Y-168193187D01*
X113066554Y-168250250D01*
X113099500Y-168307314D01*
X113192686Y-168400500D01*
X113306814Y-168466392D01*
X113434108Y-168500500D01*
X113434110Y-168500500D01*
X113565890Y-168500500D01*
X113565892Y-168500500D01*
X113693186Y-168466392D01*
X113749103Y-168434108D01*
X114499500Y-168434108D01*
X114499500Y-168565891D01*
X114533608Y-168693187D01*
X114566554Y-168750250D01*
X114599500Y-168807314D01*
X114692686Y-168900500D01*
X114806814Y-168966392D01*
X114934108Y-169000500D01*
X114934110Y-169000500D01*
X115065890Y-169000500D01*
X115065892Y-169000500D01*
X115193186Y-168966392D01*
X115307314Y-168900500D01*
X115400500Y-168807314D01*
X115466392Y-168693186D01*
X115500500Y-168565892D01*
X115500500Y-168434108D01*
X125109859Y-168434108D01*
X125109859Y-168565891D01*
X125143967Y-168693187D01*
X125176913Y-168750250D01*
X125209859Y-168807314D01*
X125303045Y-168900500D01*
X125417173Y-168966392D01*
X125544467Y-169000500D01*
X125544469Y-169000500D01*
X125676249Y-169000500D01*
X125676251Y-169000500D01*
X125803545Y-168966392D01*
X125917673Y-168900500D01*
X125939462Y-168878711D01*
X137149500Y-168878711D01*
X137149500Y-169121288D01*
X137181161Y-169361785D01*
X137243947Y-169596104D01*
X137336773Y-169820205D01*
X137336776Y-169820212D01*
X137458064Y-170030289D01*
X137458066Y-170030292D01*
X137458067Y-170030293D01*
X137605733Y-170222736D01*
X137605739Y-170222743D01*
X137777256Y-170394260D01*
X137777263Y-170394266D01*
X137829189Y-170434110D01*
X137969711Y-170541936D01*
X138179788Y-170663224D01*
X138403900Y-170756054D01*
X138638211Y-170818838D01*
X138818586Y-170842584D01*
X138878711Y-170850500D01*
X138878712Y-170850500D01*
X139121289Y-170850500D01*
X139169388Y-170844167D01*
X139361789Y-170818838D01*
X139596100Y-170756054D01*
X139820212Y-170663224D01*
X140030289Y-170541936D01*
X140222738Y-170394265D01*
X140394265Y-170222738D01*
X140541936Y-170030289D01*
X140663224Y-169820212D01*
X140756054Y-169596100D01*
X140818838Y-169361789D01*
X140850500Y-169121288D01*
X140850500Y-168878712D01*
X140818838Y-168638211D01*
X140756054Y-168403900D01*
X140663224Y-168179788D01*
X140541936Y-167969711D01*
X140416941Y-167806814D01*
X140394266Y-167777263D01*
X140394260Y-167777256D01*
X140222743Y-167605739D01*
X140222736Y-167605733D01*
X140030293Y-167458067D01*
X140030292Y-167458066D01*
X140030289Y-167458064D01*
X139820212Y-167336776D01*
X139820205Y-167336773D01*
X139596104Y-167243947D01*
X139478944Y-167212554D01*
X139361789Y-167181162D01*
X139361788Y-167181161D01*
X139361785Y-167181161D01*
X139121289Y-167149500D01*
X139121288Y-167149500D01*
X138878712Y-167149500D01*
X138878711Y-167149500D01*
X138638214Y-167181161D01*
X138403895Y-167243947D01*
X138179794Y-167336773D01*
X138179785Y-167336777D01*
X137969706Y-167458067D01*
X137777263Y-167605733D01*
X137777256Y-167605739D01*
X137605739Y-167777256D01*
X137605733Y-167777263D01*
X137458067Y-167969706D01*
X137336777Y-168179785D01*
X137336773Y-168179794D01*
X137243947Y-168403895D01*
X137181161Y-168638214D01*
X137149500Y-168878711D01*
X125939462Y-168878711D01*
X126010859Y-168807314D01*
X126076751Y-168693186D01*
X126110859Y-168565892D01*
X126110859Y-168434108D01*
X126076751Y-168306814D01*
X126010859Y-168192686D01*
X125917673Y-168099500D01*
X125859459Y-168065890D01*
X125803546Y-168033608D01*
X125739898Y-168016554D01*
X125676251Y-167999500D01*
X125544467Y-167999500D01*
X125417171Y-168033608D01*
X125303045Y-168099500D01*
X125303042Y-168099502D01*
X125209861Y-168192683D01*
X125209859Y-168192686D01*
X125143967Y-168306812D01*
X125109859Y-168434108D01*
X115500500Y-168434108D01*
X115466392Y-168306814D01*
X115400500Y-168192686D01*
X115307314Y-168099500D01*
X115249100Y-168065890D01*
X115193187Y-168033608D01*
X115129539Y-168016554D01*
X115065892Y-167999500D01*
X114934108Y-167999500D01*
X114806812Y-168033608D01*
X114692686Y-168099500D01*
X114692683Y-168099502D01*
X114599502Y-168192683D01*
X114599500Y-168192686D01*
X114533608Y-168306812D01*
X114499500Y-168434108D01*
X113749103Y-168434108D01*
X113807314Y-168400500D01*
X113900500Y-168307314D01*
X113966392Y-168193186D01*
X114000500Y-168065892D01*
X114000500Y-167934108D01*
X113966392Y-167806814D01*
X113900500Y-167692686D01*
X113807314Y-167599500D01*
X113750250Y-167566554D01*
X113693187Y-167533608D01*
X113629539Y-167516554D01*
X113565892Y-167499500D01*
X113434108Y-167499500D01*
X113306812Y-167533608D01*
X113192686Y-167599500D01*
X113192683Y-167599502D01*
X113099502Y-167692683D01*
X113099500Y-167692686D01*
X113033608Y-167806812D01*
X112999500Y-167934108D01*
X102514617Y-167934108D01*
X102416941Y-167806814D01*
X102394266Y-167777263D01*
X102394260Y-167777256D01*
X102222743Y-167605739D01*
X102222736Y-167605733D01*
X102030293Y-167458067D01*
X102030292Y-167458066D01*
X102030289Y-167458064D01*
X101820212Y-167336776D01*
X101820205Y-167336773D01*
X101596104Y-167243947D01*
X101478944Y-167212554D01*
X101361789Y-167181162D01*
X101361788Y-167181161D01*
X101361785Y-167181161D01*
X101121289Y-167149500D01*
X101121288Y-167149500D01*
X100878712Y-167149500D01*
X100878711Y-167149500D01*
X100638214Y-167181161D01*
X100403895Y-167243947D01*
X100179794Y-167336773D01*
X100179785Y-167336777D01*
X99969706Y-167458067D01*
X99777263Y-167605733D01*
X99777256Y-167605739D01*
X99605739Y-167777256D01*
X99605733Y-167777263D01*
X99458067Y-167969706D01*
X99336777Y-168179785D01*
X99336773Y-168179794D01*
X99243947Y-168403895D01*
X99181161Y-168638214D01*
X99149500Y-168878711D01*
X95300500Y-168878711D01*
X95300500Y-166068995D01*
X109299499Y-166068995D01*
X109326418Y-166204322D01*
X109326421Y-166204332D01*
X109379221Y-166331804D01*
X109379228Y-166331817D01*
X109455885Y-166446541D01*
X109455888Y-166446545D01*
X109553454Y-166544111D01*
X109553458Y-166544114D01*
X109668182Y-166620771D01*
X109668195Y-166620778D01*
X109795667Y-166673578D01*
X109795672Y-166673580D01*
X109795676Y-166673580D01*
X109795677Y-166673581D01*
X109931004Y-166700500D01*
X109931007Y-166700500D01*
X110068995Y-166700500D01*
X110160041Y-166682389D01*
X110204328Y-166673580D01*
X110331811Y-166620775D01*
X110446542Y-166544114D01*
X110544114Y-166446542D01*
X110552422Y-166434108D01*
X115499500Y-166434108D01*
X115499500Y-166565891D01*
X115533608Y-166693187D01*
X115566554Y-166750250D01*
X115599500Y-166807314D01*
X115692686Y-166900500D01*
X115806814Y-166966392D01*
X115934108Y-167000500D01*
X115934110Y-167000500D01*
X116065890Y-167000500D01*
X116065892Y-167000500D01*
X116193186Y-166966392D01*
X116249103Y-166934108D01*
X126999500Y-166934108D01*
X126999500Y-167065891D01*
X127033608Y-167193187D01*
X127062914Y-167243946D01*
X127099500Y-167307314D01*
X127192686Y-167400500D01*
X127306814Y-167466392D01*
X127434108Y-167500500D01*
X127434110Y-167500500D01*
X127565890Y-167500500D01*
X127565892Y-167500500D01*
X127693186Y-167466392D01*
X127807314Y-167400500D01*
X127900500Y-167307314D01*
X127966392Y-167193186D01*
X128000500Y-167065892D01*
X128000500Y-166934108D01*
X127966392Y-166806814D01*
X127900500Y-166692686D01*
X127807314Y-166599500D01*
X127749100Y-166565890D01*
X127693187Y-166533608D01*
X127629539Y-166516554D01*
X127565892Y-166499500D01*
X127434108Y-166499500D01*
X127306812Y-166533608D01*
X127192686Y-166599500D01*
X127192683Y-166599502D01*
X127099502Y-166692683D01*
X127099500Y-166692686D01*
X127033608Y-166806812D01*
X126999500Y-166934108D01*
X116249103Y-166934108D01*
X116307314Y-166900500D01*
X116400500Y-166807314D01*
X116466392Y-166693186D01*
X116500500Y-166565892D01*
X116500500Y-166434108D01*
X116466392Y-166306814D01*
X116400500Y-166192686D01*
X116307314Y-166099500D01*
X116250250Y-166066554D01*
X116193187Y-166033608D01*
X116129539Y-166016554D01*
X116065892Y-165999500D01*
X115934108Y-165999500D01*
X115806812Y-166033608D01*
X115692686Y-166099500D01*
X115692683Y-166099502D01*
X115599502Y-166192683D01*
X115599500Y-166192686D01*
X115533608Y-166306812D01*
X115499500Y-166434108D01*
X110552422Y-166434108D01*
X110569085Y-166409168D01*
X110603885Y-166357090D01*
X110620772Y-166331815D01*
X110620775Y-166331811D01*
X110673580Y-166204328D01*
X110682389Y-166160041D01*
X110700500Y-166068995D01*
X110700500Y-165931004D01*
X110673581Y-165795677D01*
X110673580Y-165795676D01*
X110673580Y-165795672D01*
X110673578Y-165795667D01*
X110620778Y-165668195D01*
X110620771Y-165668182D01*
X110544114Y-165553458D01*
X110544111Y-165553454D01*
X110446545Y-165455888D01*
X110446541Y-165455885D01*
X110331817Y-165379228D01*
X110331804Y-165379221D01*
X110204332Y-165326421D01*
X110204322Y-165326418D01*
X110068995Y-165299500D01*
X110068993Y-165299500D01*
X109931007Y-165299500D01*
X109931005Y-165299500D01*
X109795677Y-165326418D01*
X109795667Y-165326421D01*
X109668195Y-165379221D01*
X109668182Y-165379228D01*
X109553458Y-165455885D01*
X109553454Y-165455888D01*
X109455888Y-165553454D01*
X109455885Y-165553458D01*
X109379228Y-165668182D01*
X109379221Y-165668195D01*
X109326421Y-165795667D01*
X109326418Y-165795677D01*
X109299500Y-165931004D01*
X109299500Y-165931007D01*
X109299500Y-166068993D01*
X109299500Y-166068995D01*
X109299499Y-166068995D01*
X95300500Y-166068995D01*
X95300500Y-163934108D01*
X112999500Y-163934108D01*
X112999500Y-164065891D01*
X113033608Y-164193187D01*
X113066554Y-164250250D01*
X113099500Y-164307314D01*
X113192686Y-164400500D01*
X113306814Y-164466392D01*
X113434108Y-164500500D01*
X113434110Y-164500500D01*
X113565890Y-164500500D01*
X113565892Y-164500500D01*
X113693186Y-164466392D01*
X113807314Y-164400500D01*
X113900500Y-164307314D01*
X113966392Y-164193186D01*
X114000500Y-164065892D01*
X114000500Y-163934108D01*
X120999500Y-163934108D01*
X120999500Y-164065891D01*
X121033608Y-164193187D01*
X121066554Y-164250250D01*
X121099500Y-164307314D01*
X121192686Y-164400500D01*
X121306814Y-164466392D01*
X121434108Y-164500500D01*
X121434110Y-164500500D01*
X121565890Y-164500500D01*
X121565892Y-164500500D01*
X121693186Y-164466392D01*
X121807314Y-164400500D01*
X121900500Y-164307314D01*
X121966392Y-164193186D01*
X122000500Y-164065892D01*
X122000500Y-163934108D01*
X121966392Y-163806814D01*
X121900500Y-163692686D01*
X121807314Y-163599500D01*
X121693186Y-163533608D01*
X121565892Y-163499500D01*
X121434108Y-163499500D01*
X121306812Y-163533608D01*
X121192686Y-163599500D01*
X121192683Y-163599502D01*
X121099502Y-163692683D01*
X121099500Y-163692686D01*
X121033608Y-163806812D01*
X120999500Y-163934108D01*
X114000500Y-163934108D01*
X113966392Y-163806814D01*
X113900500Y-163692686D01*
X113807314Y-163599500D01*
X113749100Y-163565890D01*
X113693187Y-163533608D01*
X113629539Y-163516554D01*
X113565892Y-163499500D01*
X113434108Y-163499500D01*
X113306812Y-163533608D01*
X113192686Y-163599500D01*
X113192683Y-163599502D01*
X113099502Y-163692683D01*
X113099500Y-163692686D01*
X113033608Y-163806812D01*
X112999500Y-163934108D01*
X95300500Y-163934108D01*
X95300500Y-163434108D01*
X124670158Y-163434108D01*
X124670158Y-163565891D01*
X124704266Y-163693187D01*
X124737212Y-163750250D01*
X124770158Y-163807314D01*
X124863344Y-163900500D01*
X124977472Y-163966392D01*
X125104766Y-164000500D01*
X125104768Y-164000500D01*
X125236548Y-164000500D01*
X125236550Y-164000500D01*
X125363844Y-163966392D01*
X125477972Y-163900500D01*
X125571158Y-163807314D01*
X125637050Y-163693186D01*
X125671158Y-163565892D01*
X125671158Y-163434108D01*
X125637050Y-163306814D01*
X125571158Y-163192686D01*
X125477972Y-163099500D01*
X125420908Y-163066554D01*
X125363845Y-163033608D01*
X125300197Y-163016554D01*
X125236550Y-162999500D01*
X125104766Y-162999500D01*
X124977470Y-163033608D01*
X124863344Y-163099500D01*
X124863341Y-163099502D01*
X124770160Y-163192683D01*
X124770158Y-163192686D01*
X124704266Y-163306812D01*
X124670158Y-163434108D01*
X95300500Y-163434108D01*
X95300500Y-161434108D01*
X126999500Y-161434108D01*
X126999500Y-161565891D01*
X127033608Y-161693187D01*
X127066554Y-161750250D01*
X127099500Y-161807314D01*
X127192686Y-161900500D01*
X127306814Y-161966392D01*
X127434108Y-162000500D01*
X127434110Y-162000500D01*
X127565890Y-162000500D01*
X127565892Y-162000500D01*
X127693186Y-161966392D01*
X127807314Y-161900500D01*
X127900500Y-161807314D01*
X127966392Y-161693186D01*
X128000500Y-161565892D01*
X128000500Y-161434108D01*
X127966392Y-161306814D01*
X127900500Y-161192686D01*
X127807314Y-161099500D01*
X127750250Y-161066554D01*
X127693187Y-161033608D01*
X127629539Y-161016554D01*
X127565892Y-160999500D01*
X127434108Y-160999500D01*
X127306812Y-161033608D01*
X127192686Y-161099500D01*
X127192683Y-161099502D01*
X127099502Y-161192683D01*
X127099500Y-161192686D01*
X127033608Y-161306812D01*
X126999500Y-161434108D01*
X95300500Y-161434108D01*
X95300500Y-160434108D01*
X127999500Y-160434108D01*
X127999500Y-160565891D01*
X128033608Y-160693187D01*
X128066554Y-160750250D01*
X128099500Y-160807314D01*
X128192686Y-160900500D01*
X128306814Y-160966392D01*
X128434108Y-161000500D01*
X128434110Y-161000500D01*
X128565890Y-161000500D01*
X128565892Y-161000500D01*
X128693186Y-160966392D01*
X128807314Y-160900500D01*
X128900500Y-160807314D01*
X128966392Y-160693186D01*
X129000500Y-160565892D01*
X129000500Y-160434108D01*
X128966392Y-160306814D01*
X128900500Y-160192686D01*
X128807314Y-160099500D01*
X128750250Y-160066554D01*
X128693187Y-160033608D01*
X128629539Y-160016554D01*
X128565892Y-159999500D01*
X128434108Y-159999500D01*
X128306812Y-160033608D01*
X128192686Y-160099500D01*
X128192683Y-160099502D01*
X128099502Y-160192683D01*
X128099500Y-160192686D01*
X128033608Y-160306812D01*
X127999500Y-160434108D01*
X95300500Y-160434108D01*
X95300500Y-158214032D01*
X97854467Y-158214032D01*
X97854467Y-158450227D01*
X97891413Y-158683498D01*
X97964400Y-158908126D01*
X98010958Y-158999500D01*
X98071624Y-159118563D01*
X98210450Y-159309640D01*
X98377457Y-159476647D01*
X98568534Y-159615473D01*
X98667958Y-159666132D01*
X98778970Y-159722696D01*
X98778972Y-159722696D01*
X98778975Y-159722698D01*
X98899379Y-159761819D01*
X99003598Y-159795683D01*
X99236870Y-159832630D01*
X99236875Y-159832630D01*
X99473064Y-159832630D01*
X99706335Y-159795683D01*
X99930959Y-159722698D01*
X100141400Y-159615473D01*
X100332477Y-159476647D01*
X100499484Y-159309640D01*
X100638310Y-159118563D01*
X100732294Y-158934108D01*
X102999500Y-158934108D01*
X102999500Y-159065891D01*
X103033608Y-159193187D01*
X103066554Y-159250250D01*
X103099500Y-159307314D01*
X103192686Y-159400500D01*
X103306814Y-159466392D01*
X103434108Y-159500500D01*
X103434110Y-159500500D01*
X103565890Y-159500500D01*
X103565892Y-159500500D01*
X103693186Y-159466392D01*
X103749103Y-159434108D01*
X123499500Y-159434108D01*
X123499500Y-159565891D01*
X123533608Y-159693187D01*
X123550647Y-159722698D01*
X123599500Y-159807314D01*
X123692686Y-159900500D01*
X123806814Y-159966392D01*
X123934108Y-160000500D01*
X123934110Y-160000500D01*
X124065890Y-160000500D01*
X124065892Y-160000500D01*
X124193186Y-159966392D01*
X124307314Y-159900500D01*
X124400500Y-159807314D01*
X124466392Y-159693186D01*
X124500500Y-159565892D01*
X124500500Y-159434108D01*
X124466392Y-159306814D01*
X124400500Y-159192686D01*
X124307314Y-159099500D01*
X124249100Y-159065890D01*
X124193187Y-159033608D01*
X124129539Y-159016554D01*
X124065892Y-158999500D01*
X123934108Y-158999500D01*
X123806812Y-159033608D01*
X123692686Y-159099500D01*
X123692683Y-159099502D01*
X123599502Y-159192683D01*
X123599500Y-159192686D01*
X123533608Y-159306812D01*
X123499500Y-159434108D01*
X103749103Y-159434108D01*
X103807314Y-159400500D01*
X103900500Y-159307314D01*
X103966392Y-159193186D01*
X104000500Y-159065892D01*
X104000500Y-158934108D01*
X103966392Y-158806814D01*
X103900500Y-158692686D01*
X103807314Y-158599500D01*
X103750250Y-158566554D01*
X103693187Y-158533608D01*
X103629539Y-158516554D01*
X103565892Y-158499500D01*
X103434108Y-158499500D01*
X103306812Y-158533608D01*
X103192686Y-158599500D01*
X103192683Y-158599502D01*
X103099502Y-158692683D01*
X103099500Y-158692686D01*
X103033608Y-158806812D01*
X102999500Y-158934108D01*
X100732294Y-158934108D01*
X100745535Y-158908122D01*
X100818520Y-158683498D01*
X100831824Y-158599500D01*
X100855467Y-158450227D01*
X100855467Y-158214032D01*
X100818520Y-157980761D01*
X100745533Y-157756133D01*
X100638309Y-157545696D01*
X100499484Y-157354620D01*
X100332477Y-157187613D01*
X100141400Y-157048787D01*
X100132223Y-157044111D01*
X99930963Y-156941563D01*
X99706335Y-156868576D01*
X99473064Y-156831630D01*
X99473059Y-156831630D01*
X99236875Y-156831630D01*
X99236870Y-156831630D01*
X99003598Y-156868576D01*
X98778970Y-156941563D01*
X98568533Y-157048787D01*
X98469457Y-157120771D01*
X98377457Y-157187613D01*
X98377455Y-157187615D01*
X98377454Y-157187615D01*
X98210452Y-157354617D01*
X98210452Y-157354618D01*
X98210450Y-157354620D01*
X98150829Y-157436680D01*
X98071624Y-157545696D01*
X97964400Y-157756133D01*
X97891413Y-157980761D01*
X97854467Y-158214032D01*
X95300500Y-158214032D01*
X95300500Y-156210247D01*
X114949500Y-156210247D01*
X114949500Y-157949752D01*
X114961131Y-158008229D01*
X114961132Y-158008230D01*
X115005447Y-158074552D01*
X115071769Y-158118867D01*
X115071770Y-158118868D01*
X115130247Y-158130499D01*
X115130250Y-158130500D01*
X115130252Y-158130500D01*
X116869750Y-158130500D01*
X116869751Y-158130499D01*
X116884568Y-158127552D01*
X116928229Y-158118868D01*
X116928229Y-158118867D01*
X116928231Y-158118867D01*
X116994552Y-158074552D01*
X117038867Y-158008231D01*
X117038867Y-158008229D01*
X117038868Y-158008229D01*
X117050499Y-157949752D01*
X117050500Y-157949750D01*
X117050500Y-156568995D01*
X136799499Y-156568995D01*
X136826418Y-156704322D01*
X136826421Y-156704332D01*
X136879221Y-156831804D01*
X136879228Y-156831817D01*
X136955885Y-156946541D01*
X136955888Y-156946545D01*
X137053454Y-157044111D01*
X137053458Y-157044114D01*
X137168182Y-157120771D01*
X137168195Y-157120778D01*
X137295667Y-157173578D01*
X137295672Y-157173580D01*
X137295676Y-157173580D01*
X137295677Y-157173581D01*
X137431004Y-157200500D01*
X137431007Y-157200500D01*
X137568995Y-157200500D01*
X137660041Y-157182389D01*
X137704328Y-157173580D01*
X137831811Y-157120775D01*
X137946542Y-157044114D01*
X138044114Y-156946542D01*
X138120775Y-156831811D01*
X138173580Y-156704328D01*
X138200500Y-156568993D01*
X138200500Y-156431007D01*
X138200500Y-156431004D01*
X138173581Y-156295677D01*
X138173580Y-156295676D01*
X138173580Y-156295672D01*
X138134159Y-156200500D01*
X138120778Y-156168195D01*
X138120771Y-156168182D01*
X138044114Y-156053458D01*
X138044111Y-156053454D01*
X137946545Y-155955888D01*
X137946541Y-155955885D01*
X137831817Y-155879228D01*
X137831804Y-155879221D01*
X137704332Y-155826421D01*
X137704322Y-155826418D01*
X137568995Y-155799500D01*
X137568993Y-155799500D01*
X137431007Y-155799500D01*
X137431005Y-155799500D01*
X137295677Y-155826418D01*
X137295667Y-155826421D01*
X137168195Y-155879221D01*
X137168182Y-155879228D01*
X137053458Y-155955885D01*
X137053454Y-155955888D01*
X136955888Y-156053454D01*
X136955885Y-156053458D01*
X136879228Y-156168182D01*
X136879221Y-156168195D01*
X136826421Y-156295667D01*
X136826418Y-156295677D01*
X136799500Y-156431004D01*
X136799500Y-156431007D01*
X136799500Y-156568993D01*
X136799500Y-156568995D01*
X136799499Y-156568995D01*
X117050500Y-156568995D01*
X117050500Y-156210249D01*
X117050499Y-156210247D01*
X117038868Y-156151770D01*
X117038867Y-156151769D01*
X116994552Y-156085447D01*
X116928230Y-156041132D01*
X116928229Y-156041131D01*
X116869752Y-156029500D01*
X116869748Y-156029500D01*
X115130252Y-156029500D01*
X115130247Y-156029500D01*
X115071770Y-156041131D01*
X115071769Y-156041132D01*
X115005447Y-156085447D01*
X114961132Y-156151769D01*
X114961131Y-156151770D01*
X114949500Y-156210247D01*
X95300500Y-156210247D01*
X95300500Y-155568995D01*
X112299499Y-155568995D01*
X112326418Y-155704322D01*
X112326421Y-155704332D01*
X112379221Y-155831804D01*
X112379228Y-155831817D01*
X112455885Y-155946541D01*
X112455888Y-155946545D01*
X112553454Y-156044111D01*
X112553458Y-156044114D01*
X112668182Y-156120771D01*
X112668195Y-156120778D01*
X112782640Y-156168182D01*
X112795672Y-156173580D01*
X112795676Y-156173580D01*
X112795677Y-156173581D01*
X112931004Y-156200500D01*
X112931007Y-156200500D01*
X113068995Y-156200500D01*
X113160041Y-156182389D01*
X113204328Y-156173580D01*
X113331811Y-156120775D01*
X113446542Y-156044114D01*
X113544114Y-155946542D01*
X113620775Y-155831811D01*
X113673580Y-155704328D01*
X113700500Y-155568993D01*
X113700500Y-155431007D01*
X113700500Y-155431004D01*
X113673581Y-155295677D01*
X113673580Y-155295676D01*
X113673580Y-155295672D01*
X113673578Y-155295667D01*
X113620778Y-155168195D01*
X113620771Y-155168182D01*
X113544114Y-155053458D01*
X113544111Y-155053454D01*
X113446545Y-154955888D01*
X113446541Y-154955885D01*
X113394247Y-154920943D01*
X121399500Y-154920943D01*
X121399500Y-155079057D01*
X121423385Y-155168195D01*
X121440423Y-155231783D01*
X121440426Y-155231790D01*
X121519475Y-155368709D01*
X121519479Y-155368714D01*
X121519480Y-155368716D01*
X121631284Y-155480520D01*
X121631286Y-155480521D01*
X121631290Y-155480524D01*
X121768209Y-155559573D01*
X121768216Y-155559577D01*
X121920943Y-155600500D01*
X121920945Y-155600500D01*
X122079055Y-155600500D01*
X122079057Y-155600500D01*
X122231784Y-155559577D01*
X122368716Y-155480520D01*
X122480520Y-155368716D01*
X122559577Y-155231784D01*
X122600500Y-155079057D01*
X122600500Y-154920943D01*
X122559577Y-154768216D01*
X122559573Y-154768209D01*
X122480524Y-154631290D01*
X122480518Y-154631282D01*
X122368717Y-154519481D01*
X122368709Y-154519475D01*
X122231790Y-154440426D01*
X122231786Y-154440424D01*
X122231784Y-154440423D01*
X122079057Y-154399500D01*
X121920943Y-154399500D01*
X121768216Y-154440423D01*
X121768209Y-154440426D01*
X121631290Y-154519475D01*
X121631282Y-154519481D01*
X121519481Y-154631282D01*
X121519475Y-154631290D01*
X121440426Y-154768209D01*
X121440423Y-154768216D01*
X121399500Y-154920943D01*
X113394247Y-154920943D01*
X113331817Y-154879228D01*
X113331804Y-154879221D01*
X113204332Y-154826421D01*
X113204322Y-154826418D01*
X113068995Y-154799500D01*
X113068993Y-154799500D01*
X112931007Y-154799500D01*
X112931005Y-154799500D01*
X112795677Y-154826418D01*
X112795667Y-154826421D01*
X112668195Y-154879221D01*
X112668182Y-154879228D01*
X112553458Y-154955885D01*
X112553454Y-154955888D01*
X112455888Y-155053454D01*
X112455885Y-155053458D01*
X112379228Y-155168182D01*
X112379221Y-155168195D01*
X112326421Y-155295667D01*
X112326418Y-155295677D01*
X112299500Y-155431004D01*
X112299500Y-155431007D01*
X112299500Y-155568993D01*
X112299500Y-155568995D01*
X112299499Y-155568995D01*
X95300500Y-155568995D01*
X95300500Y-154434108D01*
X109499500Y-154434108D01*
X109499500Y-154565891D01*
X109533608Y-154693187D01*
X109566554Y-154750250D01*
X109599500Y-154807314D01*
X109692686Y-154900500D01*
X109806814Y-154966392D01*
X109934108Y-155000500D01*
X109934110Y-155000500D01*
X110065890Y-155000500D01*
X110065892Y-155000500D01*
X110193186Y-154966392D01*
X110307314Y-154900500D01*
X110400500Y-154807314D01*
X110466392Y-154693186D01*
X110500500Y-154565892D01*
X110500500Y-154434108D01*
X110466392Y-154306814D01*
X110400500Y-154192686D01*
X110307314Y-154099500D01*
X110250250Y-154066554D01*
X110193187Y-154033608D01*
X110129539Y-154016554D01*
X110065892Y-153999500D01*
X109934108Y-153999500D01*
X109806812Y-154033608D01*
X109692686Y-154099500D01*
X109692683Y-154099502D01*
X109599502Y-154192683D01*
X109599500Y-154192686D01*
X109533608Y-154306812D01*
X109499500Y-154434108D01*
X95300500Y-154434108D01*
X95300500Y-153434108D01*
X118499500Y-153434108D01*
X118499500Y-153565891D01*
X118533608Y-153693187D01*
X118566554Y-153750250D01*
X118599500Y-153807314D01*
X118692686Y-153900500D01*
X118806814Y-153966392D01*
X118934108Y-154000500D01*
X118934110Y-154000500D01*
X119065890Y-154000500D01*
X119065892Y-154000500D01*
X119193186Y-153966392D01*
X119307314Y-153900500D01*
X119400500Y-153807314D01*
X119466392Y-153693186D01*
X119500500Y-153565892D01*
X119500500Y-153434108D01*
X119466392Y-153306814D01*
X119400500Y-153192686D01*
X119307314Y-153099500D01*
X119222442Y-153050499D01*
X119193187Y-153033608D01*
X119129539Y-153016554D01*
X119065892Y-152999500D01*
X118934108Y-152999500D01*
X118806812Y-153033608D01*
X118692686Y-153099500D01*
X118692683Y-153099502D01*
X118599502Y-153192683D01*
X118599500Y-153192686D01*
X118533608Y-153306812D01*
X118499500Y-153434108D01*
X95300500Y-153434108D01*
X95300500Y-151896530D01*
X114949500Y-151896530D01*
X114949500Y-152103469D01*
X114989868Y-152306412D01*
X114989870Y-152306420D01*
X115069058Y-152497596D01*
X115184024Y-152669657D01*
X115330342Y-152815975D01*
X115330345Y-152815977D01*
X115502402Y-152930941D01*
X115693580Y-153010130D01*
X115811613Y-153033608D01*
X115896530Y-153050499D01*
X115896534Y-153050500D01*
X115896535Y-153050500D01*
X116103466Y-153050500D01*
X116103467Y-153050499D01*
X116306420Y-153010130D01*
X116497598Y-152930941D01*
X116669655Y-152815977D01*
X116815977Y-152669655D01*
X116930941Y-152497598D01*
X117010130Y-152306420D01*
X117050500Y-152103465D01*
X117050500Y-151896535D01*
X117010130Y-151693580D01*
X116930941Y-151502402D01*
X116815977Y-151330345D01*
X116815975Y-151330342D01*
X116669657Y-151184024D01*
X116583626Y-151126541D01*
X116497598Y-151069059D01*
X116435135Y-151043186D01*
X116306420Y-150989870D01*
X116306412Y-150989868D01*
X116103469Y-150949500D01*
X116103465Y-150949500D01*
X115896535Y-150949500D01*
X115896530Y-150949500D01*
X115693587Y-150989868D01*
X115693579Y-150989870D01*
X115502403Y-151069058D01*
X115330342Y-151184024D01*
X115184024Y-151330342D01*
X115069058Y-151502403D01*
X114989870Y-151693579D01*
X114989868Y-151693587D01*
X114949500Y-151896530D01*
X95300500Y-151896530D01*
X95300500Y-149131902D01*
X97850410Y-149131902D01*
X97850410Y-149368097D01*
X97887356Y-149601368D01*
X97960343Y-149825996D01*
X98048749Y-149999500D01*
X98067567Y-150036433D01*
X98206393Y-150227510D01*
X98373400Y-150394517D01*
X98564477Y-150533343D01*
X98582814Y-150542686D01*
X98774913Y-150640566D01*
X98774915Y-150640566D01*
X98774918Y-150640568D01*
X98842418Y-150662500D01*
X98999541Y-150713553D01*
X99232813Y-150750500D01*
X99232818Y-150750500D01*
X99469007Y-150750500D01*
X99702278Y-150713553D01*
X99926902Y-150640568D01*
X100137343Y-150533343D01*
X100328420Y-150394517D01*
X100495427Y-150227510D01*
X100634253Y-150036433D01*
X100741478Y-149825992D01*
X100784821Y-149692597D01*
X113216890Y-149692597D01*
X113216890Y-149824381D01*
X113233944Y-149888028D01*
X113250998Y-149951676D01*
X113278610Y-149999500D01*
X113316890Y-150065803D01*
X113410076Y-150158989D01*
X113524204Y-150224881D01*
X113651498Y-150258989D01*
X113651500Y-150258989D01*
X113783280Y-150258989D01*
X113783282Y-150258989D01*
X113910576Y-150224881D01*
X114024704Y-150158989D01*
X114117890Y-150065803D01*
X114183782Y-149951675D01*
X114217890Y-149824381D01*
X114217890Y-149692597D01*
X114183782Y-149565303D01*
X114182721Y-149563466D01*
X114174953Y-149550010D01*
X114117890Y-149451175D01*
X114024704Y-149357989D01*
X114022177Y-149356530D01*
X114949500Y-149356530D01*
X114949500Y-149563469D01*
X114989868Y-149766412D01*
X114989870Y-149766420D01*
X115067851Y-149954683D01*
X115069059Y-149957598D01*
X115126541Y-150043626D01*
X115184024Y-150129657D01*
X115330342Y-150275975D01*
X115330345Y-150275977D01*
X115502402Y-150390941D01*
X115693580Y-150470130D01*
X115896530Y-150510499D01*
X115896534Y-150510500D01*
X115896535Y-150510500D01*
X116103466Y-150510500D01*
X116103467Y-150510499D01*
X116306420Y-150470130D01*
X116393384Y-150434108D01*
X125574500Y-150434108D01*
X125574500Y-150565892D01*
X125591554Y-150629539D01*
X125608608Y-150693187D01*
X125628934Y-150728392D01*
X125674500Y-150807314D01*
X125767686Y-150900500D01*
X125881814Y-150966392D01*
X126009108Y-151000500D01*
X126009110Y-151000500D01*
X126140890Y-151000500D01*
X126140892Y-151000500D01*
X126268186Y-150966392D01*
X126382314Y-150900500D01*
X126475500Y-150807314D01*
X126541392Y-150693186D01*
X126575500Y-150565892D01*
X126575500Y-150434108D01*
X126541392Y-150306814D01*
X126541390Y-150306810D01*
X126508581Y-150249983D01*
X126508580Y-150249982D01*
X126506873Y-150247026D01*
X126477476Y-150196108D01*
X138999500Y-150196108D01*
X138999500Y-150327892D01*
X139005290Y-150349500D01*
X139033608Y-150455187D01*
X139065543Y-150510499D01*
X139099500Y-150569314D01*
X139192686Y-150662500D01*
X139306814Y-150728392D01*
X139434108Y-150762500D01*
X139434110Y-150762500D01*
X139530403Y-150762500D01*
X139597442Y-150782185D01*
X139643197Y-150834989D01*
X139654403Y-150886500D01*
X139654403Y-150915891D01*
X139688511Y-151043187D01*
X139703448Y-151069058D01*
X139754403Y-151157314D01*
X139847589Y-151250500D01*
X139961717Y-151316392D01*
X140089011Y-151350500D01*
X140089013Y-151350500D01*
X140220793Y-151350500D01*
X140220795Y-151350500D01*
X140348089Y-151316392D01*
X140462217Y-151250500D01*
X140555403Y-151157314D01*
X140621295Y-151043186D01*
X140655403Y-150915892D01*
X140655403Y-150784108D01*
X140621295Y-150656814D01*
X140555403Y-150542686D01*
X140462217Y-150449500D01*
X140405153Y-150416554D01*
X140348090Y-150383608D01*
X140284442Y-150366554D01*
X140220795Y-150349500D01*
X140124500Y-150349500D01*
X140057461Y-150329815D01*
X140011706Y-150277011D01*
X140000500Y-150225500D01*
X140000500Y-150196110D01*
X140000500Y-150196108D01*
X139966392Y-150068814D01*
X139900500Y-149954686D01*
X139807314Y-149861500D01*
X139750250Y-149828554D01*
X139693187Y-149795608D01*
X139629539Y-149778554D01*
X139565892Y-149761500D01*
X139434108Y-149761500D01*
X139306812Y-149795608D01*
X139192686Y-149861500D01*
X139192683Y-149861502D01*
X139099502Y-149954683D01*
X139099500Y-149954686D01*
X139033608Y-150068812D01*
X139025385Y-150099502D01*
X138999500Y-150196108D01*
X126477476Y-150196108D01*
X126475500Y-150192686D01*
X126382314Y-150099500D01*
X126323948Y-150065802D01*
X126268187Y-150033608D01*
X126204539Y-150016554D01*
X126140892Y-149999500D01*
X126009108Y-149999500D01*
X125881812Y-150033608D01*
X125767686Y-150099500D01*
X125767683Y-150099502D01*
X125674502Y-150192683D01*
X125674500Y-150192686D01*
X125608608Y-150306812D01*
X125588031Y-150383608D01*
X125574500Y-150434108D01*
X116393384Y-150434108D01*
X116497598Y-150390941D01*
X116669655Y-150275977D01*
X116815977Y-150129655D01*
X116930941Y-149957598D01*
X117010130Y-149766420D01*
X117050500Y-149563465D01*
X117050500Y-149356535D01*
X117010130Y-149153580D01*
X116930941Y-148962402D01*
X116815977Y-148790345D01*
X116815975Y-148790342D01*
X116669658Y-148644025D01*
X116669650Y-148644019D01*
X116557369Y-148568995D01*
X129799499Y-148568995D01*
X129826418Y-148704322D01*
X129826421Y-148704332D01*
X129879221Y-148831804D01*
X129879228Y-148831817D01*
X129955885Y-148946541D01*
X129955888Y-148946545D01*
X130053454Y-149044111D01*
X130053458Y-149044114D01*
X130168182Y-149120771D01*
X130168195Y-149120778D01*
X130247404Y-149153587D01*
X130295672Y-149173580D01*
X130295676Y-149173580D01*
X130295677Y-149173581D01*
X130431004Y-149200500D01*
X130431007Y-149200500D01*
X130568995Y-149200500D01*
X130660041Y-149182389D01*
X130704328Y-149173580D01*
X130831811Y-149120775D01*
X130946542Y-149044114D01*
X131044114Y-148946542D01*
X131120775Y-148831811D01*
X131173580Y-148704328D01*
X131185575Y-148644024D01*
X131200500Y-148568995D01*
X131200500Y-148431004D01*
X131173581Y-148295677D01*
X131173580Y-148295676D01*
X131173580Y-148295672D01*
X131163977Y-148272488D01*
X131120778Y-148168195D01*
X131120771Y-148168182D01*
X131044114Y-148053458D01*
X131044111Y-148053454D01*
X130946545Y-147955888D01*
X130946541Y-147955885D01*
X130831817Y-147879228D01*
X130831804Y-147879221D01*
X130704332Y-147826421D01*
X130704322Y-147826418D01*
X130568995Y-147799500D01*
X130568993Y-147799500D01*
X130431007Y-147799500D01*
X130431005Y-147799500D01*
X130295677Y-147826418D01*
X130295667Y-147826421D01*
X130168195Y-147879221D01*
X130168182Y-147879228D01*
X130053458Y-147955885D01*
X130053454Y-147955888D01*
X129955888Y-148053454D01*
X129955885Y-148053458D01*
X129879228Y-148168182D01*
X129879221Y-148168195D01*
X129826421Y-148295667D01*
X129826418Y-148295677D01*
X129799500Y-148431004D01*
X129799500Y-148431007D01*
X129799500Y-148568993D01*
X129799500Y-148568995D01*
X129799499Y-148568995D01*
X116557369Y-148568995D01*
X116497602Y-148529060D01*
X116497599Y-148529059D01*
X116306420Y-148449870D01*
X116306412Y-148449868D01*
X116103469Y-148409500D01*
X116103465Y-148409500D01*
X115896535Y-148409500D01*
X115896530Y-148409500D01*
X115693587Y-148449868D01*
X115693579Y-148449870D01*
X115502403Y-148529058D01*
X115330342Y-148644024D01*
X115184024Y-148790342D01*
X115069058Y-148962403D01*
X114989870Y-149153579D01*
X114989868Y-149153587D01*
X114949500Y-149356530D01*
X114022177Y-149356530D01*
X113967640Y-149325043D01*
X113910577Y-149292097D01*
X113846929Y-149275043D01*
X113783282Y-149257989D01*
X113651498Y-149257989D01*
X113524202Y-149292097D01*
X113410076Y-149357989D01*
X113410073Y-149357991D01*
X113316892Y-149451172D01*
X113316890Y-149451175D01*
X113250998Y-149565301D01*
X113229335Y-149646151D01*
X113216890Y-149692597D01*
X100784821Y-149692597D01*
X100814463Y-149601368D01*
X100820175Y-149565303D01*
X100851410Y-149368097D01*
X100851410Y-149131902D01*
X100814463Y-148898631D01*
X100751331Y-148704332D01*
X100741478Y-148674008D01*
X100741476Y-148674005D01*
X100741476Y-148674003D01*
X100634252Y-148463566D01*
X100495427Y-148272490D01*
X100328420Y-148105483D01*
X100137343Y-147966657D01*
X100065653Y-147930129D01*
X99926906Y-147859433D01*
X99702278Y-147786446D01*
X99469007Y-147749500D01*
X99469002Y-147749500D01*
X99232818Y-147749500D01*
X99232813Y-147749500D01*
X98999541Y-147786446D01*
X98774913Y-147859433D01*
X98564476Y-147966657D01*
X98455460Y-148045862D01*
X98373400Y-148105483D01*
X98373398Y-148105485D01*
X98373397Y-148105485D01*
X98206395Y-148272487D01*
X98206395Y-148272488D01*
X98206393Y-148272490D01*
X98189547Y-148295677D01*
X98067567Y-148463566D01*
X97960343Y-148674003D01*
X97887356Y-148898631D01*
X97850410Y-149131902D01*
X95300500Y-149131902D01*
X95300500Y-146816530D01*
X114949500Y-146816530D01*
X114949500Y-147023469D01*
X114989868Y-147226412D01*
X114989870Y-147226420D01*
X115069058Y-147417596D01*
X115184024Y-147589657D01*
X115330342Y-147735975D01*
X115330345Y-147735977D01*
X115502402Y-147850941D01*
X115693580Y-147930130D01*
X115877215Y-147966657D01*
X115896530Y-147970499D01*
X115896534Y-147970500D01*
X115896535Y-147970500D01*
X116103466Y-147970500D01*
X116103467Y-147970499D01*
X116306420Y-147930130D01*
X116497598Y-147850941D01*
X116669655Y-147735977D01*
X116815977Y-147589655D01*
X116930941Y-147417598D01*
X117010130Y-147226420D01*
X117050500Y-147023465D01*
X117050500Y-146816535D01*
X117010130Y-146613580D01*
X116930941Y-146422402D01*
X116815977Y-146250345D01*
X116815975Y-146250342D01*
X116669658Y-146104025D01*
X116669650Y-146104019D01*
X116557574Y-146029132D01*
X116557500Y-146029084D01*
X116497598Y-145989059D01*
X116490413Y-145986083D01*
X116364935Y-145934108D01*
X121499500Y-145934108D01*
X121499500Y-146065891D01*
X121533608Y-146193187D01*
X121548584Y-146219125D01*
X121599500Y-146307314D01*
X121692686Y-146400500D01*
X121806814Y-146466392D01*
X121934108Y-146500500D01*
X121934110Y-146500500D01*
X122065890Y-146500500D01*
X122065892Y-146500500D01*
X122193186Y-146466392D01*
X122307314Y-146400500D01*
X122400500Y-146307314D01*
X122466392Y-146193186D01*
X122500500Y-146065892D01*
X122500500Y-145934108D01*
X122466392Y-145806814D01*
X122400500Y-145692686D01*
X122307314Y-145599500D01*
X122193186Y-145533608D01*
X122065892Y-145499500D01*
X121934108Y-145499500D01*
X121806812Y-145533608D01*
X121692686Y-145599500D01*
X121692683Y-145599502D01*
X121599502Y-145692683D01*
X121599500Y-145692686D01*
X121533608Y-145806812D01*
X121499500Y-145934108D01*
X116364935Y-145934108D01*
X116306420Y-145909870D01*
X116306412Y-145909868D01*
X116103469Y-145869500D01*
X116103465Y-145869500D01*
X115896535Y-145869500D01*
X115896530Y-145869500D01*
X115693587Y-145909868D01*
X115693579Y-145909870D01*
X115502403Y-145989058D01*
X115330342Y-146104024D01*
X115184024Y-146250342D01*
X115069058Y-146422403D01*
X114989870Y-146613579D01*
X114989868Y-146613587D01*
X114949500Y-146816530D01*
X95300500Y-146816530D01*
X95300500Y-146108097D01*
X103792029Y-146108097D01*
X103792029Y-146239880D01*
X103826137Y-146367176D01*
X103845377Y-146400500D01*
X103892029Y-146481303D01*
X103985215Y-146574489D01*
X104099343Y-146640381D01*
X104226637Y-146674489D01*
X104226639Y-146674489D01*
X104358419Y-146674489D01*
X104358421Y-146674489D01*
X104485715Y-146640381D01*
X104599843Y-146574489D01*
X104693029Y-146481303D01*
X104758921Y-146367175D01*
X104793029Y-146239881D01*
X104793029Y-146108097D01*
X104758921Y-145980803D01*
X104693029Y-145866675D01*
X104599843Y-145773489D01*
X104542779Y-145740543D01*
X104485716Y-145707597D01*
X104422068Y-145690543D01*
X104358421Y-145673489D01*
X104226637Y-145673489D01*
X104099341Y-145707597D01*
X103985215Y-145773489D01*
X103985212Y-145773491D01*
X103892031Y-145866672D01*
X103892029Y-145866675D01*
X103826137Y-145980801D01*
X103792029Y-146108097D01*
X95300500Y-146108097D01*
X95300500Y-145434108D01*
X125499500Y-145434108D01*
X125499500Y-145565891D01*
X125533608Y-145693187D01*
X125541928Y-145707597D01*
X125599500Y-145807314D01*
X125692686Y-145900500D01*
X125806814Y-145966392D01*
X125880306Y-145986084D01*
X125939965Y-146022448D01*
X125970495Y-146085294D01*
X125962201Y-146154670D01*
X125917716Y-146208548D01*
X125910215Y-146213244D01*
X125900032Y-146219123D01*
X125900029Y-146219125D01*
X125806848Y-146312306D01*
X125806846Y-146312309D01*
X125740954Y-146426435D01*
X125735566Y-146446545D01*
X125706846Y-146553731D01*
X125706846Y-146685515D01*
X125708902Y-146693187D01*
X125740954Y-146812810D01*
X125743105Y-146816535D01*
X125806846Y-146926937D01*
X125900032Y-147020123D01*
X126014160Y-147086015D01*
X126141454Y-147120123D01*
X126141456Y-147120123D01*
X126273236Y-147120123D01*
X126273238Y-147120123D01*
X126400532Y-147086015D01*
X126514660Y-147020123D01*
X126607846Y-146926937D01*
X126673738Y-146812809D01*
X126707846Y-146685515D01*
X126707846Y-146553731D01*
X126673738Y-146426437D01*
X126607846Y-146312309D01*
X126514660Y-146219123D01*
X126400532Y-146153231D01*
X126327038Y-146133538D01*
X126267379Y-146097174D01*
X126236850Y-146034327D01*
X126245145Y-145964951D01*
X126289630Y-145911073D01*
X126297114Y-145906388D01*
X126307314Y-145900500D01*
X126400500Y-145807314D01*
X126466392Y-145693186D01*
X126500500Y-145565892D01*
X126500500Y-145434108D01*
X126466392Y-145306814D01*
X126400500Y-145192686D01*
X126307314Y-145099500D01*
X126249100Y-145065890D01*
X126193187Y-145033608D01*
X126118746Y-145013662D01*
X126065892Y-144999500D01*
X125934108Y-144999500D01*
X125806812Y-145033608D01*
X125692686Y-145099500D01*
X125692683Y-145099502D01*
X125599502Y-145192683D01*
X125599500Y-145192686D01*
X125533608Y-145306812D01*
X125499500Y-145434108D01*
X95300500Y-145434108D01*
X95300500Y-142434108D01*
X119499500Y-142434108D01*
X119499500Y-142565891D01*
X119533608Y-142693187D01*
X119566554Y-142750250D01*
X119599500Y-142807314D01*
X119692686Y-142900500D01*
X119806814Y-142966392D01*
X119934108Y-143000500D01*
X119934110Y-143000500D01*
X120065890Y-143000500D01*
X120065892Y-143000500D01*
X120193186Y-142966392D01*
X120307314Y-142900500D01*
X120400500Y-142807314D01*
X120466392Y-142693186D01*
X120500500Y-142565892D01*
X120500500Y-142434108D01*
X120466392Y-142306814D01*
X120400500Y-142192686D01*
X120307314Y-142099500D01*
X120250250Y-142066554D01*
X120193187Y-142033608D01*
X120129539Y-142016554D01*
X120065892Y-141999500D01*
X119934108Y-141999500D01*
X119806812Y-142033608D01*
X119692686Y-142099500D01*
X119692683Y-142099502D01*
X119599502Y-142192683D01*
X119599500Y-142192686D01*
X119533608Y-142306812D01*
X119499500Y-142434108D01*
X95300500Y-142434108D01*
X95300500Y-140006071D01*
X97859788Y-140006071D01*
X97859788Y-140242267D01*
X97896734Y-140475538D01*
X97969721Y-140700166D01*
X98076945Y-140910603D01*
X98215771Y-141101680D01*
X98382778Y-141268687D01*
X98573855Y-141407513D01*
X98619959Y-141431004D01*
X98784291Y-141514736D01*
X98784293Y-141514736D01*
X98784296Y-141514738D01*
X98904700Y-141553859D01*
X99008919Y-141587723D01*
X99242191Y-141624670D01*
X99242196Y-141624670D01*
X99478385Y-141624670D01*
X99711656Y-141587723D01*
X99769295Y-141568995D01*
X109799499Y-141568995D01*
X109826418Y-141704322D01*
X109826421Y-141704332D01*
X109879221Y-141831804D01*
X109879228Y-141831817D01*
X109955885Y-141946541D01*
X109955888Y-141946545D01*
X110053454Y-142044111D01*
X110053458Y-142044114D01*
X110168182Y-142120771D01*
X110168195Y-142120778D01*
X110295667Y-142173578D01*
X110295672Y-142173580D01*
X110295676Y-142173580D01*
X110295677Y-142173581D01*
X110431004Y-142200500D01*
X110431007Y-142200500D01*
X110568995Y-142200500D01*
X110660041Y-142182389D01*
X110704328Y-142173580D01*
X110831811Y-142120775D01*
X110946542Y-142044114D01*
X111044114Y-141946542D01*
X111120775Y-141831811D01*
X111173580Y-141704328D01*
X111189425Y-141624670D01*
X111200500Y-141568995D01*
X111799499Y-141568995D01*
X111826418Y-141704322D01*
X111826421Y-141704332D01*
X111879221Y-141831804D01*
X111879228Y-141831817D01*
X111955885Y-141946541D01*
X111955888Y-141946545D01*
X112053454Y-142044111D01*
X112053458Y-142044114D01*
X112168182Y-142120771D01*
X112168195Y-142120778D01*
X112295667Y-142173578D01*
X112295672Y-142173580D01*
X112295676Y-142173580D01*
X112295677Y-142173581D01*
X112431004Y-142200500D01*
X112431007Y-142200500D01*
X112568995Y-142200500D01*
X112660041Y-142182389D01*
X112704328Y-142173580D01*
X112831811Y-142120775D01*
X112946542Y-142044114D01*
X113044114Y-141946542D01*
X113120775Y-141831811D01*
X113173580Y-141704328D01*
X113189425Y-141624670D01*
X113200500Y-141568995D01*
X121874499Y-141568995D01*
X121901418Y-141704322D01*
X121901421Y-141704332D01*
X121954221Y-141831804D01*
X121954228Y-141831817D01*
X122030885Y-141946541D01*
X122030888Y-141946545D01*
X122128454Y-142044111D01*
X122128458Y-142044114D01*
X122243182Y-142120771D01*
X122243195Y-142120778D01*
X122370667Y-142173578D01*
X122370672Y-142173580D01*
X122370676Y-142173580D01*
X122370677Y-142173581D01*
X122506004Y-142200500D01*
X122506007Y-142200500D01*
X125658481Y-142200500D01*
X125725520Y-142220185D01*
X125746162Y-142236819D01*
X132553453Y-149044111D01*
X132553454Y-149044112D01*
X132668192Y-149120777D01*
X132747404Y-149153587D01*
X132795672Y-149173580D01*
X132795676Y-149173580D01*
X132795677Y-149173581D01*
X132931003Y-149200500D01*
X132931006Y-149200500D01*
X139068996Y-149200500D01*
X139160040Y-149182389D01*
X139204328Y-149173580D01*
X139268069Y-149147177D01*
X139331807Y-149120777D01*
X139331808Y-149120776D01*
X139331811Y-149120775D01*
X139446543Y-149044114D01*
X142044114Y-146446543D01*
X142120775Y-146331811D01*
X142130923Y-146307313D01*
X142154520Y-146250342D01*
X142173580Y-146204328D01*
X142190529Y-146119123D01*
X142200500Y-146068996D01*
X142200500Y-144431005D01*
X142188109Y-144368717D01*
X142188109Y-144368716D01*
X142173580Y-144295672D01*
X142120775Y-144168189D01*
X142044114Y-144053457D01*
X142044112Y-144053454D01*
X139736819Y-141746161D01*
X139703334Y-141684838D01*
X139700500Y-141658480D01*
X139700500Y-141431004D01*
X139673581Y-141295677D01*
X139673580Y-141295676D01*
X139673580Y-141295672D01*
X139673578Y-141295667D01*
X139620778Y-141168195D01*
X139620771Y-141168182D01*
X139544114Y-141053458D01*
X139544111Y-141053454D01*
X139446545Y-140955888D01*
X139446541Y-140955885D01*
X139331817Y-140879228D01*
X139331804Y-140879221D01*
X139204332Y-140826421D01*
X139204322Y-140826418D01*
X139068995Y-140799500D01*
X139068993Y-140799500D01*
X138931007Y-140799500D01*
X138931005Y-140799500D01*
X138795677Y-140826418D01*
X138795667Y-140826421D01*
X138668195Y-140879221D01*
X138668182Y-140879228D01*
X138553458Y-140955885D01*
X138553454Y-140955888D01*
X138455888Y-141053454D01*
X138455885Y-141053458D01*
X138379228Y-141168182D01*
X138379221Y-141168195D01*
X138326421Y-141295667D01*
X138326418Y-141295677D01*
X138299500Y-141431004D01*
X138299500Y-141431007D01*
X138299500Y-141931006D01*
X138299500Y-142068994D01*
X138299500Y-142068996D01*
X138299499Y-142068996D01*
X138326418Y-142204322D01*
X138326421Y-142204332D01*
X138379222Y-142331807D01*
X138455887Y-142446545D01*
X138455888Y-142446546D01*
X140763181Y-144753838D01*
X140796666Y-144815161D01*
X140799500Y-144841519D01*
X140799500Y-145658481D01*
X140779815Y-145725520D01*
X140763181Y-145746162D01*
X139654609Y-146854733D01*
X139593286Y-146888218D01*
X139523594Y-146883234D01*
X139467661Y-146841362D01*
X139443244Y-146775898D01*
X139458096Y-146707625D01*
X139459543Y-146705049D01*
X139466390Y-146693189D01*
X139466392Y-146693186D01*
X139500500Y-146565892D01*
X139500500Y-146434108D01*
X139466392Y-146306814D01*
X139400500Y-146192686D01*
X139307314Y-146099500D01*
X139249100Y-146065890D01*
X139193187Y-146033608D01*
X139129539Y-146016554D01*
X139065892Y-145999500D01*
X138934108Y-145999500D01*
X138806812Y-146033608D01*
X138692686Y-146099500D01*
X138692683Y-146099502D01*
X138599502Y-146192683D01*
X138599500Y-146192686D01*
X138533608Y-146306812D01*
X138526911Y-146331807D01*
X138499500Y-146434108D01*
X138499500Y-146565892D01*
X138501804Y-146574489D01*
X138533608Y-146693187D01*
X138540457Y-146705049D01*
X138599500Y-146807314D01*
X138692686Y-146900500D01*
X138766416Y-146943068D01*
X138806810Y-146966390D01*
X138806814Y-146966392D01*
X138934108Y-147000500D01*
X138934110Y-147000500D01*
X139065890Y-147000500D01*
X139065892Y-147000500D01*
X139193186Y-146966392D01*
X139205049Y-146959543D01*
X139272948Y-146943068D01*
X139338976Y-146965918D01*
X139382168Y-147020838D01*
X139388812Y-147090391D01*
X139356798Y-147152495D01*
X139354733Y-147154609D01*
X138746162Y-147763181D01*
X138684839Y-147796666D01*
X138658481Y-147799500D01*
X133341519Y-147799500D01*
X133274480Y-147779815D01*
X133253838Y-147763181D01*
X132004319Y-146513662D01*
X131924765Y-146434108D01*
X134999500Y-146434108D01*
X134999500Y-146565892D01*
X135001804Y-146574489D01*
X135033608Y-146693187D01*
X135040457Y-146705049D01*
X135099500Y-146807314D01*
X135192686Y-146900500D01*
X135266416Y-146943068D01*
X135306810Y-146966390D01*
X135306814Y-146966392D01*
X135434108Y-147000500D01*
X135434110Y-147000500D01*
X135565890Y-147000500D01*
X135565892Y-147000500D01*
X135693186Y-146966392D01*
X135807314Y-146900500D01*
X135900500Y-146807314D01*
X135966392Y-146693186D01*
X136000500Y-146565892D01*
X136000500Y-146434108D01*
X135966392Y-146306814D01*
X135900500Y-146192686D01*
X135807314Y-146099500D01*
X135749100Y-146065890D01*
X135693187Y-146033608D01*
X135629539Y-146016554D01*
X135565892Y-145999500D01*
X135434108Y-145999500D01*
X135306812Y-146033608D01*
X135192686Y-146099500D01*
X135192683Y-146099502D01*
X135099502Y-146192683D01*
X135099500Y-146192686D01*
X135033608Y-146306812D01*
X135026911Y-146331807D01*
X134999500Y-146434108D01*
X131924765Y-146434108D01*
X130504320Y-145013662D01*
X130424766Y-144934108D01*
X133499500Y-144934108D01*
X133499500Y-145065891D01*
X133533608Y-145193187D01*
X133566554Y-145250250D01*
X133599500Y-145307314D01*
X133692686Y-145400500D01*
X133806814Y-145466392D01*
X133934108Y-145500500D01*
X133934110Y-145500500D01*
X134065890Y-145500500D01*
X134065892Y-145500500D01*
X134193186Y-145466392D01*
X134307314Y-145400500D01*
X134400500Y-145307314D01*
X134400504Y-145307306D01*
X134401625Y-145305847D01*
X134402892Y-145304921D01*
X134406247Y-145301567D01*
X134406770Y-145302090D01*
X134458053Y-145264645D01*
X134527799Y-145260491D01*
X134588719Y-145294704D01*
X134598375Y-145305847D01*
X134599498Y-145307311D01*
X134599500Y-145307314D01*
X134692686Y-145400500D01*
X134806814Y-145466392D01*
X134934108Y-145500500D01*
X134934110Y-145500500D01*
X135065890Y-145500500D01*
X135065892Y-145500500D01*
X135193186Y-145466392D01*
X135307314Y-145400500D01*
X135400500Y-145307314D01*
X135466392Y-145193186D01*
X135500500Y-145065892D01*
X135500500Y-144934108D01*
X135466392Y-144806814D01*
X135400500Y-144692686D01*
X135307314Y-144599500D01*
X135238159Y-144559573D01*
X135193187Y-144533608D01*
X135129539Y-144516554D01*
X135065892Y-144499500D01*
X134934108Y-144499500D01*
X134806812Y-144533608D01*
X134692686Y-144599500D01*
X134692683Y-144599502D01*
X134599498Y-144692687D01*
X134598370Y-144694158D01*
X134597102Y-144695083D01*
X134593753Y-144698433D01*
X134593230Y-144697910D01*
X134541940Y-144735356D01*
X134472193Y-144739506D01*
X134411275Y-144705289D01*
X134401630Y-144694158D01*
X134400501Y-144692687D01*
X134307316Y-144599502D01*
X134307314Y-144599500D01*
X134238159Y-144559573D01*
X134193187Y-144533608D01*
X134129539Y-144516554D01*
X134065892Y-144499500D01*
X133934108Y-144499500D01*
X133806812Y-144533608D01*
X133692686Y-144599500D01*
X133692683Y-144599502D01*
X133599502Y-144692683D01*
X133599500Y-144692686D01*
X133533608Y-144806812D01*
X133499500Y-144934108D01*
X130424766Y-144934108D01*
X129411601Y-143920943D01*
X131399500Y-143920943D01*
X131399500Y-144079056D01*
X131440423Y-144231783D01*
X131440426Y-144231790D01*
X131519475Y-144368709D01*
X131519479Y-144368714D01*
X131519480Y-144368716D01*
X131631284Y-144480520D01*
X131631286Y-144480521D01*
X131631290Y-144480524D01*
X131723236Y-144533608D01*
X131768216Y-144559577D01*
X131920943Y-144600500D01*
X131920945Y-144600500D01*
X132079055Y-144600500D01*
X132079057Y-144600500D01*
X132231784Y-144559577D01*
X132368716Y-144480520D01*
X132480520Y-144368716D01*
X132559577Y-144231784D01*
X132600500Y-144079057D01*
X132600500Y-143920943D01*
X132559577Y-143768216D01*
X132559573Y-143768209D01*
X132480524Y-143631290D01*
X132480518Y-143631282D01*
X132368717Y-143519481D01*
X132368709Y-143519475D01*
X132231790Y-143440426D01*
X132231786Y-143440424D01*
X132231784Y-143440423D01*
X132079057Y-143399500D01*
X131920943Y-143399500D01*
X131768216Y-143440423D01*
X131768209Y-143440426D01*
X131631290Y-143519475D01*
X131631282Y-143519481D01*
X131519481Y-143631282D01*
X131519475Y-143631290D01*
X131440426Y-143768209D01*
X131440423Y-143768216D01*
X131399500Y-143920943D01*
X129411601Y-143920943D01*
X128424766Y-142934108D01*
X134017700Y-142934108D01*
X134017700Y-143065891D01*
X134051808Y-143193187D01*
X134084754Y-143250250D01*
X134117700Y-143307314D01*
X134210886Y-143400500D01*
X134325014Y-143466392D01*
X134452308Y-143500500D01*
X134452310Y-143500500D01*
X134584090Y-143500500D01*
X134584092Y-143500500D01*
X134711386Y-143466392D01*
X134767303Y-143434108D01*
X137499500Y-143434108D01*
X137499500Y-143565891D01*
X137533608Y-143693187D01*
X137566554Y-143750250D01*
X137599500Y-143807314D01*
X137692686Y-143900500D01*
X137806814Y-143966392D01*
X137934108Y-144000500D01*
X137934110Y-144000500D01*
X138065890Y-144000500D01*
X138065892Y-144000500D01*
X138193186Y-143966392D01*
X138307314Y-143900500D01*
X138400500Y-143807314D01*
X138466392Y-143693186D01*
X138500500Y-143565892D01*
X138500500Y-143434108D01*
X138466392Y-143306814D01*
X138400500Y-143192686D01*
X138307314Y-143099500D01*
X138249100Y-143065890D01*
X138193187Y-143033608D01*
X138129539Y-143016554D01*
X138065892Y-142999500D01*
X137934108Y-142999500D01*
X137806812Y-143033608D01*
X137692686Y-143099500D01*
X137692683Y-143099502D01*
X137599502Y-143192683D01*
X137599500Y-143192686D01*
X137533608Y-143306812D01*
X137499500Y-143434108D01*
X134767303Y-143434108D01*
X134825514Y-143400500D01*
X134918700Y-143307314D01*
X134984592Y-143193186D01*
X135018700Y-143065892D01*
X135018700Y-142934108D01*
X134984592Y-142806814D01*
X134918700Y-142692686D01*
X134825514Y-142599500D01*
X134767300Y-142565890D01*
X134711387Y-142533608D01*
X134647739Y-142516554D01*
X134584092Y-142499500D01*
X134452308Y-142499500D01*
X134325012Y-142533608D01*
X134210886Y-142599500D01*
X134210883Y-142599502D01*
X134117702Y-142692683D01*
X134117700Y-142692686D01*
X134051808Y-142806812D01*
X134017700Y-142934108D01*
X128424766Y-142934108D01*
X126446545Y-140955887D01*
X126331807Y-140879222D01*
X126204332Y-140826421D01*
X126204322Y-140826418D01*
X126068996Y-140799500D01*
X126068994Y-140799500D01*
X126068993Y-140799500D01*
X122506007Y-140799500D01*
X122506005Y-140799500D01*
X122370677Y-140826418D01*
X122370667Y-140826421D01*
X122243195Y-140879221D01*
X122243182Y-140879228D01*
X122128458Y-140955885D01*
X122128454Y-140955888D01*
X122030888Y-141053454D01*
X122030885Y-141053458D01*
X121954228Y-141168182D01*
X121954221Y-141168195D01*
X121901421Y-141295667D01*
X121901418Y-141295677D01*
X121874500Y-141431004D01*
X121874500Y-141431007D01*
X121874500Y-141568993D01*
X121874500Y-141568995D01*
X121874499Y-141568995D01*
X113200500Y-141568995D01*
X113200500Y-141431004D01*
X113173581Y-141295677D01*
X113173580Y-141295676D01*
X113173580Y-141295672D01*
X113173578Y-141295667D01*
X113120778Y-141168195D01*
X113120771Y-141168182D01*
X113044114Y-141053458D01*
X113044111Y-141053454D01*
X112946545Y-140955888D01*
X112946541Y-140955885D01*
X112831817Y-140879228D01*
X112831804Y-140879221D01*
X112704332Y-140826421D01*
X112704322Y-140826418D01*
X112568995Y-140799500D01*
X112568993Y-140799500D01*
X112431007Y-140799500D01*
X112431005Y-140799500D01*
X112295677Y-140826418D01*
X112295667Y-140826421D01*
X112168195Y-140879221D01*
X112168182Y-140879228D01*
X112053458Y-140955885D01*
X112053454Y-140955888D01*
X111955888Y-141053454D01*
X111955885Y-141053458D01*
X111879228Y-141168182D01*
X111879221Y-141168195D01*
X111826421Y-141295667D01*
X111826418Y-141295677D01*
X111799500Y-141431004D01*
X111799500Y-141431007D01*
X111799500Y-141568993D01*
X111799500Y-141568995D01*
X111799499Y-141568995D01*
X111200500Y-141568995D01*
X111200500Y-141431004D01*
X111173581Y-141295677D01*
X111173580Y-141295676D01*
X111173580Y-141295672D01*
X111173578Y-141295667D01*
X111120778Y-141168195D01*
X111120771Y-141168182D01*
X111044114Y-141053458D01*
X111044111Y-141053454D01*
X110946545Y-140955888D01*
X110946541Y-140955885D01*
X110831817Y-140879228D01*
X110831804Y-140879221D01*
X110704332Y-140826421D01*
X110704322Y-140826418D01*
X110568995Y-140799500D01*
X110568993Y-140799500D01*
X110431007Y-140799500D01*
X110431005Y-140799500D01*
X110295677Y-140826418D01*
X110295667Y-140826421D01*
X110168195Y-140879221D01*
X110168182Y-140879228D01*
X110053458Y-140955885D01*
X110053454Y-140955888D01*
X109955888Y-141053454D01*
X109955885Y-141053458D01*
X109879228Y-141168182D01*
X109879221Y-141168195D01*
X109826421Y-141295667D01*
X109826418Y-141295677D01*
X109799500Y-141431004D01*
X109799500Y-141431007D01*
X109799500Y-141568993D01*
X109799500Y-141568995D01*
X109799499Y-141568995D01*
X99769295Y-141568995D01*
X99936280Y-141514738D01*
X100146721Y-141407513D01*
X100337798Y-141268687D01*
X100504805Y-141101680D01*
X100643631Y-140910603D01*
X100750856Y-140700162D01*
X100823841Y-140475538D01*
X100830524Y-140433342D01*
X100860788Y-140242267D01*
X100860788Y-140006071D01*
X100860787Y-140006064D01*
X100851175Y-139945379D01*
X100849390Y-139934108D01*
X103999500Y-139934108D01*
X103999500Y-140065891D01*
X104033608Y-140193187D01*
X104061942Y-140242262D01*
X104099500Y-140307314D01*
X104192686Y-140400500D01*
X104306814Y-140466392D01*
X104434108Y-140500500D01*
X104434110Y-140500500D01*
X104565890Y-140500500D01*
X104565892Y-140500500D01*
X104693186Y-140466392D01*
X104807314Y-140400500D01*
X104900500Y-140307314D01*
X104966392Y-140193186D01*
X105000500Y-140065892D01*
X105000500Y-139934108D01*
X104966392Y-139806814D01*
X104900500Y-139692686D01*
X104807314Y-139599500D01*
X104718422Y-139548178D01*
X104693187Y-139533608D01*
X104629539Y-139516554D01*
X104565892Y-139499500D01*
X104434108Y-139499500D01*
X104306812Y-139533608D01*
X104192686Y-139599500D01*
X104192683Y-139599502D01*
X104099502Y-139692683D01*
X104099500Y-139692686D01*
X104033608Y-139806812D01*
X103999500Y-139934108D01*
X100849390Y-139934108D01*
X100823841Y-139772801D01*
X100789977Y-139668582D01*
X100750856Y-139548178D01*
X100750854Y-139548175D01*
X100750854Y-139548173D01*
X100692734Y-139434108D01*
X100643631Y-139337737D01*
X100504805Y-139146660D01*
X100337798Y-138979653D01*
X100275111Y-138934108D01*
X111999500Y-138934108D01*
X111999500Y-139065891D01*
X112033608Y-139193187D01*
X112066554Y-139250250D01*
X112099500Y-139307314D01*
X112192686Y-139400500D01*
X112306814Y-139466392D01*
X112434108Y-139500500D01*
X112434110Y-139500500D01*
X112565890Y-139500500D01*
X112565892Y-139500500D01*
X112693186Y-139466392D01*
X112807314Y-139400500D01*
X112900500Y-139307314D01*
X112966392Y-139193186D01*
X113000500Y-139065892D01*
X113000500Y-138934108D01*
X122499500Y-138934108D01*
X122499500Y-139065891D01*
X122533608Y-139193187D01*
X122566554Y-139250250D01*
X122599500Y-139307314D01*
X122692686Y-139400500D01*
X122806814Y-139466392D01*
X122934108Y-139500500D01*
X122934110Y-139500500D01*
X123065890Y-139500500D01*
X123065892Y-139500500D01*
X123193186Y-139466392D01*
X123307314Y-139400500D01*
X123400500Y-139307314D01*
X123466392Y-139193186D01*
X123500500Y-139065892D01*
X123500500Y-138934108D01*
X123466392Y-138806814D01*
X123400500Y-138692686D01*
X123307314Y-138599500D01*
X123193186Y-138533608D01*
X123065892Y-138499500D01*
X122934108Y-138499500D01*
X122806812Y-138533608D01*
X122692686Y-138599500D01*
X122692683Y-138599502D01*
X122599502Y-138692683D01*
X122599500Y-138692686D01*
X122533608Y-138806812D01*
X122499500Y-138934108D01*
X113000500Y-138934108D01*
X112966392Y-138806814D01*
X112900500Y-138692686D01*
X112807314Y-138599500D01*
X112749102Y-138565891D01*
X112693187Y-138533608D01*
X112629539Y-138516554D01*
X112565892Y-138499500D01*
X112434108Y-138499500D01*
X112306812Y-138533608D01*
X112192686Y-138599500D01*
X112192683Y-138599502D01*
X112099502Y-138692683D01*
X112099500Y-138692686D01*
X112033608Y-138806812D01*
X111999500Y-138934108D01*
X100275111Y-138934108D01*
X100146721Y-138840827D01*
X99936284Y-138733603D01*
X99711656Y-138660616D01*
X99478385Y-138623670D01*
X99478380Y-138623670D01*
X99242196Y-138623670D01*
X99242191Y-138623670D01*
X99008919Y-138660616D01*
X98784291Y-138733603D01*
X98573854Y-138840827D01*
X98491724Y-138900499D01*
X98382778Y-138979653D01*
X98382776Y-138979655D01*
X98382775Y-138979655D01*
X98215773Y-139146657D01*
X98215773Y-139146658D01*
X98215771Y-139146660D01*
X98182333Y-139192683D01*
X98076945Y-139337736D01*
X97969721Y-139548173D01*
X97896734Y-139772801D01*
X97859789Y-140006064D01*
X97859788Y-140006071D01*
X95300500Y-140006071D01*
X95300500Y-138434108D01*
X124499500Y-138434108D01*
X124499500Y-138565891D01*
X124533608Y-138693187D01*
X124556942Y-138733602D01*
X124599500Y-138807314D01*
X124692686Y-138900500D01*
X124806814Y-138966392D01*
X124934108Y-139000500D01*
X124934110Y-139000500D01*
X125065890Y-139000500D01*
X125065892Y-139000500D01*
X125193186Y-138966392D01*
X125307314Y-138900500D01*
X125307316Y-138900497D01*
X125313499Y-138896928D01*
X125381399Y-138880455D01*
X125447426Y-138903307D01*
X125490617Y-138958228D01*
X125499500Y-139004315D01*
X125499500Y-139065891D01*
X125533608Y-139193187D01*
X125566554Y-139250250D01*
X125599500Y-139307314D01*
X125692686Y-139400500D01*
X125806814Y-139466392D01*
X125934108Y-139500500D01*
X125934110Y-139500500D01*
X126065890Y-139500500D01*
X126065892Y-139500500D01*
X126193186Y-139466392D01*
X126307314Y-139400500D01*
X126400500Y-139307314D01*
X126466392Y-139193186D01*
X126500500Y-139065892D01*
X126500500Y-138934108D01*
X129999500Y-138934108D01*
X129999500Y-139065891D01*
X130033608Y-139193187D01*
X130066554Y-139250250D01*
X130099500Y-139307314D01*
X130192686Y-139400500D01*
X130306814Y-139466392D01*
X130434108Y-139500500D01*
X130434110Y-139500500D01*
X130565890Y-139500500D01*
X130565892Y-139500500D01*
X130693186Y-139466392D01*
X130807314Y-139400500D01*
X130807316Y-139400497D01*
X130813499Y-139396928D01*
X130881399Y-139380455D01*
X130947426Y-139403307D01*
X130990617Y-139458228D01*
X130999500Y-139504315D01*
X130999500Y-139565891D01*
X131033608Y-139693187D01*
X131052281Y-139725529D01*
X131099500Y-139807314D01*
X131192686Y-139900500D01*
X131306814Y-139966392D01*
X131434108Y-140000500D01*
X131434110Y-140000500D01*
X131565890Y-140000500D01*
X131565892Y-140000500D01*
X131691100Y-139966951D01*
X136466657Y-139966951D01*
X136466657Y-140098734D01*
X136500765Y-140226030D01*
X136510137Y-140242262D01*
X136566657Y-140340157D01*
X136659843Y-140433343D01*
X136773971Y-140499235D01*
X136901265Y-140533343D01*
X136901267Y-140533343D01*
X137033047Y-140533343D01*
X137033049Y-140533343D01*
X137160343Y-140499235D01*
X137274471Y-140433343D01*
X137367657Y-140340157D01*
X137433549Y-140226029D01*
X137467657Y-140098735D01*
X137467657Y-139966951D01*
X137458857Y-139934108D01*
X138499500Y-139934108D01*
X138499500Y-140065891D01*
X138533608Y-140193187D01*
X138561942Y-140242262D01*
X138599500Y-140307314D01*
X138692686Y-140400500D01*
X138806814Y-140466392D01*
X138934108Y-140500500D01*
X138934110Y-140500500D01*
X139065890Y-140500500D01*
X139065892Y-140500500D01*
X139193186Y-140466392D01*
X139307314Y-140400500D01*
X139400500Y-140307314D01*
X139466392Y-140193186D01*
X139500500Y-140065892D01*
X139500500Y-139934108D01*
X139466392Y-139806814D01*
X139400500Y-139692686D01*
X139307314Y-139599500D01*
X139218422Y-139548178D01*
X139193187Y-139533608D01*
X139129539Y-139516554D01*
X139065892Y-139499500D01*
X138934108Y-139499500D01*
X138806812Y-139533608D01*
X138692686Y-139599500D01*
X138692683Y-139599502D01*
X138599502Y-139692683D01*
X138599500Y-139692686D01*
X138533608Y-139806812D01*
X138499500Y-139934108D01*
X137458857Y-139934108D01*
X137433549Y-139839657D01*
X137367657Y-139725529D01*
X137274471Y-139632343D01*
X137217407Y-139599397D01*
X137160344Y-139566451D01*
X137092128Y-139548173D01*
X137033049Y-139532343D01*
X136901265Y-139532343D01*
X136773969Y-139566451D01*
X136659843Y-139632343D01*
X136659840Y-139632345D01*
X136566659Y-139725526D01*
X136566657Y-139725529D01*
X136500765Y-139839655D01*
X136466657Y-139966951D01*
X131691100Y-139966951D01*
X131693186Y-139966392D01*
X131807314Y-139900500D01*
X131900500Y-139807314D01*
X131966392Y-139693186D01*
X132000500Y-139565892D01*
X132000500Y-139434108D01*
X131966392Y-139306814D01*
X131900500Y-139192686D01*
X131807314Y-139099500D01*
X131693186Y-139033608D01*
X131565892Y-138999500D01*
X131434108Y-138999500D01*
X131306814Y-139033608D01*
X131306813Y-139033608D01*
X131306811Y-139033609D01*
X131306810Y-139033609D01*
X131186500Y-139103071D01*
X131118600Y-139119544D01*
X131052573Y-139096692D01*
X131009382Y-139041770D01*
X131000500Y-138995684D01*
X131000500Y-138934110D01*
X131000500Y-138934108D01*
X133999500Y-138934108D01*
X133999500Y-139065891D01*
X134033608Y-139193187D01*
X134066554Y-139250250D01*
X134099500Y-139307314D01*
X134192686Y-139400500D01*
X134306814Y-139466392D01*
X134434108Y-139500500D01*
X134434110Y-139500500D01*
X134565890Y-139500500D01*
X134565892Y-139500500D01*
X134693186Y-139466392D01*
X134807314Y-139400500D01*
X134900500Y-139307314D01*
X134966392Y-139193186D01*
X135000500Y-139065892D01*
X135000500Y-138934108D01*
X134966392Y-138806814D01*
X134900500Y-138692686D01*
X134807314Y-138599500D01*
X134749102Y-138565891D01*
X134693187Y-138533608D01*
X134629539Y-138516554D01*
X134565892Y-138499500D01*
X134434108Y-138499500D01*
X134306812Y-138533608D01*
X134192686Y-138599500D01*
X134192683Y-138599502D01*
X134099502Y-138692683D01*
X134099500Y-138692686D01*
X134033608Y-138806812D01*
X133999500Y-138934108D01*
X131000500Y-138934108D01*
X130966392Y-138806814D01*
X130900500Y-138692686D01*
X130807314Y-138599500D01*
X130749102Y-138565891D01*
X130693187Y-138533608D01*
X130629539Y-138516554D01*
X130565892Y-138499500D01*
X130434108Y-138499500D01*
X130306812Y-138533608D01*
X130192686Y-138599500D01*
X130192683Y-138599502D01*
X130099502Y-138692683D01*
X130099500Y-138692686D01*
X130033608Y-138806812D01*
X129999500Y-138934108D01*
X126500500Y-138934108D01*
X126466392Y-138806814D01*
X126400500Y-138692686D01*
X126307314Y-138599500D01*
X126249102Y-138565891D01*
X126193187Y-138533608D01*
X126129539Y-138516554D01*
X126065892Y-138499500D01*
X125934108Y-138499500D01*
X125806814Y-138533608D01*
X125806813Y-138533608D01*
X125806811Y-138533609D01*
X125806810Y-138533609D01*
X125686500Y-138603071D01*
X125618600Y-138619544D01*
X125552573Y-138596692D01*
X125509382Y-138541770D01*
X125500500Y-138495684D01*
X125500500Y-138434110D01*
X125500500Y-138434108D01*
X125466392Y-138306814D01*
X125400500Y-138192686D01*
X125307314Y-138099500D01*
X125230922Y-138055395D01*
X125193187Y-138033608D01*
X125129539Y-138016554D01*
X125065892Y-137999500D01*
X124934108Y-137999500D01*
X124806812Y-138033608D01*
X124692686Y-138099500D01*
X124692683Y-138099502D01*
X124599502Y-138192683D01*
X124599500Y-138192686D01*
X124533608Y-138306812D01*
X124499500Y-138434108D01*
X95300500Y-138434108D01*
X95300500Y-137589003D01*
X107042074Y-137589003D01*
X107042074Y-137720786D01*
X107076182Y-137848082D01*
X107109128Y-137905145D01*
X107142074Y-137962209D01*
X107235260Y-138055395D01*
X107349388Y-138121287D01*
X107476682Y-138155395D01*
X107476684Y-138155395D01*
X107608464Y-138155395D01*
X107608466Y-138155395D01*
X107735760Y-138121287D01*
X107849888Y-138055395D01*
X107943074Y-137962209D01*
X108008966Y-137848081D01*
X108043074Y-137720787D01*
X108043074Y-137589003D01*
X108037713Y-137568995D01*
X119638458Y-137568995D01*
X119665377Y-137704322D01*
X119665380Y-137704332D01*
X119718180Y-137831804D01*
X119718187Y-137831817D01*
X119794844Y-137946541D01*
X119794847Y-137946545D01*
X119892413Y-138044111D01*
X119892417Y-138044114D01*
X120007141Y-138120771D01*
X120007154Y-138120778D01*
X120090728Y-138155395D01*
X120134631Y-138173580D01*
X120134635Y-138173580D01*
X120134636Y-138173581D01*
X120269963Y-138200500D01*
X120269966Y-138200500D01*
X120407954Y-138200500D01*
X120499000Y-138182389D01*
X120543287Y-138173580D01*
X120669534Y-138121287D01*
X120670763Y-138120778D01*
X120670763Y-138120777D01*
X120670770Y-138120775D01*
X120785501Y-138044114D01*
X120883073Y-137946542D01*
X120959734Y-137831811D01*
X121012539Y-137704328D01*
X121021348Y-137660041D01*
X121039459Y-137568995D01*
X121039459Y-137431004D01*
X121012540Y-137295677D01*
X121012539Y-137295676D01*
X121012539Y-137295672D01*
X121012537Y-137295667D01*
X120959737Y-137168195D01*
X120959730Y-137168182D01*
X120883073Y-137053458D01*
X120883070Y-137053454D01*
X120785504Y-136955888D01*
X120785500Y-136955885D01*
X120670776Y-136879228D01*
X120670763Y-136879221D01*
X120543291Y-136826421D01*
X120543281Y-136826418D01*
X120407954Y-136799500D01*
X120407952Y-136799500D01*
X120269966Y-136799500D01*
X120269964Y-136799500D01*
X120134636Y-136826418D01*
X120134626Y-136826421D01*
X120007154Y-136879221D01*
X120007141Y-136879228D01*
X119892417Y-136955885D01*
X119892413Y-136955888D01*
X119794847Y-137053454D01*
X119794844Y-137053458D01*
X119718187Y-137168182D01*
X119718180Y-137168195D01*
X119665380Y-137295667D01*
X119665377Y-137295677D01*
X119638459Y-137431004D01*
X119638459Y-137431007D01*
X119638459Y-137568993D01*
X119638459Y-137568995D01*
X119638458Y-137568995D01*
X108037713Y-137568995D01*
X108008966Y-137461709D01*
X107943074Y-137347581D01*
X107849888Y-137254395D01*
X107792824Y-137221449D01*
X107735761Y-137188503D01*
X107659920Y-137168182D01*
X107608466Y-137154395D01*
X107476682Y-137154395D01*
X107349386Y-137188503D01*
X107235260Y-137254395D01*
X107235257Y-137254397D01*
X107142076Y-137347578D01*
X107142074Y-137347581D01*
X107076182Y-137461707D01*
X107042074Y-137589003D01*
X95300500Y-137589003D01*
X95300500Y-135934108D01*
X112999500Y-135934108D01*
X112999500Y-136065892D01*
X113010183Y-136105763D01*
X113033608Y-136193187D01*
X113066554Y-136250250D01*
X113099500Y-136307314D01*
X113192686Y-136400500D01*
X113306814Y-136466392D01*
X113434108Y-136500500D01*
X113434110Y-136500500D01*
X113565890Y-136500500D01*
X113565892Y-136500500D01*
X113693186Y-136466392D01*
X113807314Y-136400500D01*
X113900500Y-136307314D01*
X113954385Y-136213982D01*
X124650311Y-136213982D01*
X124650311Y-136326018D01*
X124679308Y-136434237D01*
X124735326Y-136531263D01*
X124814548Y-136610485D01*
X124911574Y-136666503D01*
X125019793Y-136695500D01*
X125019795Y-136695500D01*
X125131827Y-136695500D01*
X125131829Y-136695500D01*
X125240048Y-136666503D01*
X125337074Y-136610485D01*
X125416296Y-136531263D01*
X125472314Y-136434237D01*
X125501311Y-136326018D01*
X125501311Y-136213982D01*
X125472314Y-136105763D01*
X125416296Y-136008737D01*
X125337074Y-135929515D01*
X125240048Y-135873497D01*
X125131829Y-135844500D01*
X125019793Y-135844500D01*
X124911574Y-135873497D01*
X124911571Y-135873498D01*
X124814551Y-135929513D01*
X124814545Y-135929517D01*
X124735328Y-136008734D01*
X124735324Y-136008740D01*
X124679309Y-136105760D01*
X124679308Y-136105763D01*
X124650311Y-136213982D01*
X113954385Y-136213982D01*
X113966392Y-136193186D01*
X114000500Y-136065892D01*
X114000500Y-135934108D01*
X113966392Y-135806814D01*
X113900500Y-135692686D01*
X113807314Y-135599500D01*
X113750250Y-135566554D01*
X113693187Y-135533608D01*
X113629539Y-135516554D01*
X113565892Y-135499500D01*
X113434108Y-135499500D01*
X113306812Y-135533608D01*
X113192686Y-135599500D01*
X113192683Y-135599502D01*
X113099502Y-135692683D01*
X113099500Y-135692686D01*
X113033608Y-135806812D01*
X113015740Y-135873498D01*
X112999500Y-135934108D01*
X95300500Y-135934108D01*
X95300500Y-134924346D01*
X139799812Y-134924346D01*
X139799812Y-135056129D01*
X139833920Y-135183425D01*
X139866866Y-135240488D01*
X139899812Y-135297552D01*
X139992998Y-135390738D01*
X140107126Y-135456630D01*
X140234420Y-135490738D01*
X140234422Y-135490738D01*
X140366202Y-135490738D01*
X140366204Y-135490738D01*
X140493498Y-135456630D01*
X140607626Y-135390738D01*
X140700812Y-135297552D01*
X140766704Y-135183424D01*
X140800812Y-135056130D01*
X140800812Y-134924346D01*
X140766704Y-134797052D01*
X140700812Y-134682924D01*
X140607626Y-134589738D01*
X140550562Y-134556792D01*
X140493499Y-134523846D01*
X140429851Y-134506792D01*
X140366204Y-134489738D01*
X140234420Y-134489738D01*
X140107124Y-134523846D01*
X139992998Y-134589738D01*
X139992995Y-134589740D01*
X139899814Y-134682921D01*
X139899812Y-134682924D01*
X139833920Y-134797050D01*
X139799812Y-134924346D01*
X95300500Y-134924346D01*
X95300500Y-130895730D01*
X97917000Y-130895730D01*
X97917000Y-133104269D01*
X97919853Y-133134699D01*
X97919853Y-133134701D01*
X97964706Y-133262880D01*
X97964707Y-133262882D01*
X98045350Y-133372150D01*
X98154618Y-133452793D01*
X98197345Y-133467744D01*
X98282799Y-133497646D01*
X98313230Y-133500500D01*
X98313234Y-133500500D01*
X100521770Y-133500500D01*
X100552199Y-133497646D01*
X100552201Y-133497646D01*
X100616290Y-133475219D01*
X100680382Y-133452793D01*
X100705699Y-133434108D01*
X104499500Y-133434108D01*
X104499500Y-133565891D01*
X104533608Y-133693187D01*
X104566554Y-133750250D01*
X104599500Y-133807314D01*
X104692686Y-133900500D01*
X104806814Y-133966392D01*
X104934108Y-134000500D01*
X104934110Y-134000500D01*
X105065890Y-134000500D01*
X105065892Y-134000500D01*
X105193186Y-133966392D01*
X105249103Y-133934108D01*
X114199497Y-133934108D01*
X114199497Y-134065891D01*
X114233605Y-134193187D01*
X114256612Y-134233036D01*
X114299497Y-134307314D01*
X114392683Y-134400500D01*
X114506811Y-134466392D01*
X114634105Y-134500500D01*
X114634107Y-134500500D01*
X114765887Y-134500500D01*
X114765889Y-134500500D01*
X114893183Y-134466392D01*
X115007311Y-134400500D01*
X115100497Y-134307314D01*
X115166389Y-134193186D01*
X115189459Y-134107084D01*
X115225822Y-134047427D01*
X115288669Y-134016897D01*
X115358045Y-134025191D01*
X115411923Y-134069676D01*
X115412335Y-134070289D01*
X115455885Y-134135466D01*
X115455888Y-134135470D01*
X115553454Y-134233036D01*
X115553458Y-134233039D01*
X115668182Y-134309696D01*
X115668195Y-134309703D01*
X115795667Y-134362503D01*
X115795672Y-134362505D01*
X115795676Y-134362505D01*
X115795677Y-134362506D01*
X115931004Y-134389425D01*
X115931007Y-134389425D01*
X116068995Y-134389425D01*
X116160041Y-134371314D01*
X116204328Y-134362505D01*
X116331811Y-134309700D01*
X116446542Y-134233039D01*
X116544114Y-134135467D01*
X116620775Y-134020736D01*
X116656657Y-133934108D01*
X142999500Y-133934108D01*
X142999500Y-134065891D01*
X143033608Y-134193187D01*
X143056615Y-134233036D01*
X143099500Y-134307314D01*
X143192686Y-134400500D01*
X143306814Y-134466392D01*
X143434108Y-134500500D01*
X143434110Y-134500500D01*
X143565890Y-134500500D01*
X143565892Y-134500500D01*
X143693186Y-134466392D01*
X143807314Y-134400500D01*
X143900500Y-134307314D01*
X143966392Y-134193186D01*
X144000500Y-134065892D01*
X144000500Y-133934108D01*
X143966392Y-133806814D01*
X143900500Y-133692686D01*
X143807314Y-133599500D01*
X143749100Y-133565890D01*
X143693187Y-133533608D01*
X143616969Y-133513186D01*
X143565892Y-133499500D01*
X143434108Y-133499500D01*
X143306812Y-133533608D01*
X143192686Y-133599500D01*
X143192683Y-133599502D01*
X143099502Y-133692683D01*
X143099500Y-133692686D01*
X143033608Y-133806812D01*
X142999500Y-133934108D01*
X116656657Y-133934108D01*
X116673580Y-133893253D01*
X116700500Y-133757918D01*
X116700500Y-133619932D01*
X116700500Y-133619929D01*
X116673581Y-133484602D01*
X116673580Y-133484601D01*
X116673580Y-133484597D01*
X116673578Y-133484592D01*
X116620778Y-133357120D01*
X116620771Y-133357107D01*
X116544114Y-133242383D01*
X116544111Y-133242379D01*
X116446545Y-133144813D01*
X116446541Y-133144810D01*
X116331817Y-133068153D01*
X116331804Y-133068146D01*
X116297609Y-133053982D01*
X124014500Y-133053982D01*
X124014500Y-133166018D01*
X124043497Y-133274237D01*
X124099515Y-133371263D01*
X124178737Y-133450485D01*
X124275763Y-133506503D01*
X124383982Y-133535500D01*
X124383984Y-133535500D01*
X124496016Y-133535500D01*
X124496018Y-133535500D01*
X124604237Y-133506503D01*
X124701263Y-133450485D01*
X124780485Y-133371263D01*
X124836503Y-133274237D01*
X124865500Y-133166018D01*
X124865500Y-133053982D01*
X124836503Y-132945763D01*
X124780485Y-132848737D01*
X124701263Y-132769515D01*
X124604237Y-132713497D01*
X124496018Y-132684500D01*
X124383982Y-132684500D01*
X124275763Y-132713497D01*
X124275760Y-132713498D01*
X124178740Y-132769513D01*
X124178734Y-132769517D01*
X124099517Y-132848734D01*
X124099513Y-132848740D01*
X124043498Y-132945760D01*
X124043497Y-132945763D01*
X124014500Y-133053982D01*
X116297609Y-133053982D01*
X116204332Y-133015346D01*
X116204322Y-133015343D01*
X116068995Y-132988425D01*
X116068993Y-132988425D01*
X115931007Y-132988425D01*
X115931005Y-132988425D01*
X115795677Y-133015343D01*
X115795667Y-133015346D01*
X115668195Y-133068146D01*
X115668182Y-133068153D01*
X115553458Y-133144810D01*
X115553454Y-133144813D01*
X115455888Y-133242379D01*
X115455885Y-133242383D01*
X115379228Y-133357107D01*
X115379221Y-133357120D01*
X115326421Y-133484592D01*
X115326418Y-133484602D01*
X115299670Y-133619072D01*
X115267285Y-133680983D01*
X115206569Y-133715557D01*
X115136799Y-133711816D01*
X115090372Y-133682561D01*
X115007313Y-133599502D01*
X115007311Y-133599500D01*
X114949097Y-133565890D01*
X114893184Y-133533608D01*
X114816966Y-133513186D01*
X114765889Y-133499500D01*
X114634105Y-133499500D01*
X114506809Y-133533608D01*
X114392683Y-133599500D01*
X114392680Y-133599502D01*
X114299499Y-133692683D01*
X114299497Y-133692686D01*
X114233605Y-133806812D01*
X114199497Y-133934108D01*
X105249103Y-133934108D01*
X105307314Y-133900500D01*
X105400500Y-133807314D01*
X105466392Y-133693186D01*
X105500500Y-133565892D01*
X105500500Y-133434108D01*
X105466392Y-133306814D01*
X105435962Y-133254108D01*
X112998500Y-133254108D01*
X112998500Y-133385891D01*
X113032608Y-133513187D01*
X113045490Y-133535499D01*
X113098500Y-133627314D01*
X113191686Y-133720500D01*
X113305814Y-133786392D01*
X113433108Y-133820500D01*
X113433110Y-133820500D01*
X113564890Y-133820500D01*
X113564892Y-133820500D01*
X113692186Y-133786392D01*
X113806314Y-133720500D01*
X113899500Y-133627314D01*
X113965392Y-133513186D01*
X113999500Y-133385892D01*
X113999500Y-133254108D01*
X113965392Y-133126814D01*
X113899500Y-133012686D01*
X113806314Y-132919500D01*
X113749250Y-132886554D01*
X113692187Y-132853608D01*
X113628539Y-132836554D01*
X113564892Y-132819500D01*
X113433108Y-132819500D01*
X113305812Y-132853608D01*
X113191686Y-132919500D01*
X113191683Y-132919502D01*
X113098502Y-133012683D01*
X113098500Y-133012686D01*
X113032608Y-133126812D01*
X112998500Y-133254108D01*
X105435962Y-133254108D01*
X105400500Y-133192686D01*
X105307314Y-133099500D01*
X105250250Y-133066554D01*
X105193187Y-133033608D01*
X105115092Y-133012683D01*
X105065892Y-132999500D01*
X104934108Y-132999500D01*
X104806812Y-133033608D01*
X104692686Y-133099500D01*
X104692683Y-133099502D01*
X104599502Y-133192683D01*
X104599500Y-133192686D01*
X104533608Y-133306812D01*
X104499500Y-133434108D01*
X100705699Y-133434108D01*
X100789650Y-133372150D01*
X100870293Y-133262882D01*
X100892719Y-133198790D01*
X100915146Y-133134701D01*
X100915146Y-133134699D01*
X100918000Y-133104269D01*
X100918000Y-132068995D01*
X101799499Y-132068995D01*
X101826418Y-132204322D01*
X101826421Y-132204332D01*
X101879221Y-132331804D01*
X101879228Y-132331817D01*
X101955885Y-132446541D01*
X101955888Y-132446545D01*
X102053454Y-132544111D01*
X102053458Y-132544114D01*
X102168182Y-132620771D01*
X102168195Y-132620778D01*
X102295667Y-132673578D01*
X102295672Y-132673580D01*
X102295676Y-132673580D01*
X102295677Y-132673581D01*
X102431004Y-132700500D01*
X102431007Y-132700500D01*
X102568995Y-132700500D01*
X102660041Y-132682389D01*
X102704328Y-132673580D01*
X102831811Y-132620775D01*
X102946542Y-132544114D01*
X103044114Y-132446542D01*
X103052422Y-132434108D01*
X118999500Y-132434108D01*
X118999500Y-132565891D01*
X119033608Y-132693187D01*
X119045335Y-132713498D01*
X119099500Y-132807314D01*
X119192686Y-132900500D01*
X119306814Y-132966392D01*
X119434108Y-133000500D01*
X119434110Y-133000500D01*
X119565890Y-133000500D01*
X119565892Y-133000500D01*
X119693186Y-132966392D01*
X119807314Y-132900500D01*
X119900500Y-132807314D01*
X119966392Y-132693186D01*
X120000500Y-132565892D01*
X120000500Y-132434108D01*
X119966392Y-132306814D01*
X119900500Y-132192686D01*
X119807314Y-132099500D01*
X119750250Y-132066554D01*
X119693187Y-132033608D01*
X119629539Y-132016554D01*
X119565892Y-131999500D01*
X119434108Y-131999500D01*
X119306812Y-132033608D01*
X119192686Y-132099500D01*
X119192683Y-132099502D01*
X119099502Y-132192683D01*
X119099500Y-132192686D01*
X119033608Y-132306812D01*
X118999500Y-132434108D01*
X103052422Y-132434108D01*
X103069085Y-132409168D01*
X103103885Y-132357090D01*
X103120772Y-132331815D01*
X103120775Y-132331811D01*
X103173580Y-132204328D01*
X103182389Y-132160041D01*
X103200500Y-132068995D01*
X103200500Y-131931004D01*
X103173581Y-131795677D01*
X103173580Y-131795676D01*
X103173580Y-131795672D01*
X103173578Y-131795667D01*
X103120778Y-131668195D01*
X103120771Y-131668182D01*
X103044114Y-131553458D01*
X103044111Y-131553454D01*
X102946545Y-131455888D01*
X102946541Y-131455885D01*
X102913950Y-131434108D01*
X112499500Y-131434108D01*
X112499500Y-131565891D01*
X112533608Y-131693187D01*
X112566554Y-131750250D01*
X112599500Y-131807314D01*
X112692686Y-131900500D01*
X112806814Y-131966392D01*
X112934108Y-132000500D01*
X112934110Y-132000500D01*
X113065890Y-132000500D01*
X113065892Y-132000500D01*
X113193186Y-131966392D01*
X113307314Y-131900500D01*
X113400500Y-131807314D01*
X113466392Y-131693186D01*
X113500500Y-131565892D01*
X113500500Y-131434108D01*
X113466392Y-131306814D01*
X113400500Y-131192686D01*
X113307314Y-131099500D01*
X113250250Y-131066554D01*
X113193187Y-131033608D01*
X113129539Y-131016554D01*
X113065892Y-130999500D01*
X112934108Y-130999500D01*
X112806812Y-131033608D01*
X112692686Y-131099500D01*
X112692683Y-131099502D01*
X112599502Y-131192683D01*
X112599500Y-131192686D01*
X112533608Y-131306812D01*
X112499500Y-131434108D01*
X102913950Y-131434108D01*
X102831817Y-131379228D01*
X102831804Y-131379221D01*
X102704332Y-131326421D01*
X102704322Y-131326418D01*
X102568995Y-131299500D01*
X102568993Y-131299500D01*
X102431007Y-131299500D01*
X102431005Y-131299500D01*
X102295677Y-131326418D01*
X102295667Y-131326421D01*
X102168195Y-131379221D01*
X102168182Y-131379228D01*
X102053458Y-131455885D01*
X102053454Y-131455888D01*
X101955888Y-131553454D01*
X101955885Y-131553458D01*
X101879228Y-131668182D01*
X101879221Y-131668195D01*
X101826421Y-131795667D01*
X101826418Y-131795677D01*
X101799500Y-131931004D01*
X101799500Y-131931007D01*
X101799500Y-132068993D01*
X101799500Y-132068995D01*
X101799499Y-132068995D01*
X100918000Y-132068995D01*
X100918000Y-130895730D01*
X100915146Y-130865300D01*
X100915146Y-130865298D01*
X100870293Y-130737119D01*
X100870292Y-130737117D01*
X100789650Y-130627850D01*
X100680382Y-130547207D01*
X100668420Y-130543021D01*
X100552200Y-130502353D01*
X100521770Y-130499500D01*
X100521766Y-130499500D01*
X98313234Y-130499500D01*
X98313230Y-130499500D01*
X98282800Y-130502353D01*
X98282798Y-130502353D01*
X98154619Y-130547206D01*
X98154617Y-130547207D01*
X98045350Y-130627850D01*
X97964707Y-130737117D01*
X97964706Y-130737119D01*
X97919853Y-130865298D01*
X97919853Y-130865300D01*
X97917000Y-130895730D01*
X95300500Y-130895730D01*
X95300500Y-130434108D01*
X123999500Y-130434108D01*
X123999500Y-130565891D01*
X124033608Y-130693187D01*
X124058972Y-130737117D01*
X124099500Y-130807314D01*
X124192686Y-130900500D01*
X124306814Y-130966392D01*
X124434108Y-131000500D01*
X124434120Y-131000500D01*
X124437237Y-131000911D01*
X124439685Y-131001994D01*
X124441958Y-131002603D01*
X124441863Y-131002957D01*
X124501135Y-131029174D01*
X124539609Y-131087497D01*
X124540444Y-131157361D01*
X124528445Y-131185851D01*
X124458609Y-131306810D01*
X124458609Y-131306811D01*
X124458609Y-131306812D01*
X124458608Y-131306814D01*
X124439207Y-131379221D01*
X124424500Y-131434108D01*
X124424500Y-131565891D01*
X124458608Y-131693187D01*
X124491554Y-131750250D01*
X124524500Y-131807314D01*
X124617686Y-131900500D01*
X124731814Y-131966392D01*
X124859108Y-132000500D01*
X124859110Y-132000500D01*
X124990890Y-132000500D01*
X124990892Y-132000500D01*
X125118186Y-131966392D01*
X125232314Y-131900500D01*
X125325500Y-131807314D01*
X125391392Y-131693186D01*
X125425500Y-131565892D01*
X125425500Y-131434108D01*
X126999500Y-131434108D01*
X126999500Y-131565891D01*
X127033608Y-131693187D01*
X127066554Y-131750250D01*
X127099500Y-131807314D01*
X127192686Y-131900500D01*
X127306814Y-131966392D01*
X127434108Y-132000500D01*
X127434110Y-132000500D01*
X127565890Y-132000500D01*
X127565892Y-132000500D01*
X127693186Y-131966392D01*
X127807314Y-131900500D01*
X127900500Y-131807314D01*
X127966392Y-131693186D01*
X128000500Y-131565892D01*
X128000500Y-131434108D01*
X127966392Y-131306814D01*
X127900500Y-131192686D01*
X127807314Y-131099500D01*
X127750250Y-131066554D01*
X127693187Y-131033608D01*
X127629539Y-131016554D01*
X127565892Y-130999500D01*
X127434108Y-130999500D01*
X127306812Y-131033608D01*
X127192686Y-131099500D01*
X127192683Y-131099502D01*
X127099502Y-131192683D01*
X127099500Y-131192686D01*
X127033608Y-131306812D01*
X126999500Y-131434108D01*
X125425500Y-131434108D01*
X125391392Y-131306814D01*
X125325500Y-131192686D01*
X125232314Y-131099500D01*
X125175250Y-131066554D01*
X125118187Y-131033608D01*
X125054539Y-131016554D01*
X124990892Y-130999500D01*
X124990891Y-130999500D01*
X124987753Y-130999087D01*
X124985301Y-130998002D01*
X124983042Y-130997397D01*
X124983136Y-130997044D01*
X124923857Y-130970819D01*
X124885387Y-130912493D01*
X124884557Y-130842628D01*
X124896554Y-130814147D01*
X124900497Y-130807316D01*
X124900500Y-130807314D01*
X124966392Y-130693186D01*
X125000500Y-130565892D01*
X125000500Y-130434108D01*
X124966392Y-130306814D01*
X124900500Y-130192686D01*
X124807314Y-130099500D01*
X124750250Y-130066554D01*
X124693187Y-130033608D01*
X124629539Y-130016554D01*
X124565892Y-129999500D01*
X124434108Y-129999500D01*
X124306812Y-130033608D01*
X124192686Y-130099500D01*
X124192683Y-130099502D01*
X124099502Y-130192683D01*
X124099500Y-130192686D01*
X124033608Y-130306812D01*
X123999500Y-130434108D01*
X95300500Y-130434108D01*
X95300500Y-129434108D01*
X111307544Y-129434108D01*
X111307544Y-129565891D01*
X111341652Y-129693187D01*
X111374598Y-129750250D01*
X111407544Y-129807314D01*
X111500730Y-129900500D01*
X111614858Y-129966392D01*
X111742152Y-130000500D01*
X111742154Y-130000500D01*
X111873934Y-130000500D01*
X111873936Y-130000500D01*
X112001230Y-129966392D01*
X112115358Y-129900500D01*
X112208544Y-129807314D01*
X112274436Y-129693186D01*
X112308544Y-129565892D01*
X112308544Y-129434108D01*
X112274436Y-129306814D01*
X112208544Y-129192686D01*
X112115358Y-129099500D01*
X112083118Y-129080886D01*
X112034904Y-129030319D01*
X112021682Y-128961712D01*
X112047650Y-128896848D01*
X112104564Y-128856320D01*
X112145120Y-128849500D01*
X112258959Y-128849500D01*
X112258961Y-128849500D01*
X112386255Y-128815392D01*
X112444166Y-128781957D01*
X112512066Y-128765483D01*
X112578093Y-128788335D01*
X112593848Y-128801662D01*
X112599499Y-128807313D01*
X112599500Y-128807314D01*
X112692686Y-128900500D01*
X112806814Y-128966392D01*
X112934108Y-129000500D01*
X112934110Y-129000500D01*
X113065890Y-129000500D01*
X113065892Y-129000500D01*
X113193186Y-128966392D01*
X113249103Y-128934108D01*
X115499500Y-128934108D01*
X115499500Y-129065891D01*
X115533608Y-129193187D01*
X115566554Y-129250250D01*
X115599500Y-129307314D01*
X115692686Y-129400500D01*
X115806814Y-129466392D01*
X115934108Y-129500500D01*
X115934110Y-129500500D01*
X116065890Y-129500500D01*
X116065892Y-129500500D01*
X116193186Y-129466392D01*
X116307314Y-129400500D01*
X116400500Y-129307314D01*
X116466392Y-129193186D01*
X116500500Y-129065892D01*
X116500500Y-128934108D01*
X116466392Y-128806814D01*
X116463417Y-128801662D01*
X116442529Y-128765483D01*
X116400500Y-128692686D01*
X116307314Y-128599500D01*
X116249100Y-128565890D01*
X116193187Y-128533608D01*
X116116271Y-128512999D01*
X116065892Y-128499500D01*
X115934108Y-128499500D01*
X115806812Y-128533608D01*
X115692686Y-128599500D01*
X115692683Y-128599502D01*
X115599502Y-128692683D01*
X115599500Y-128692686D01*
X115533608Y-128806812D01*
X115499500Y-128934108D01*
X113249103Y-128934108D01*
X113307314Y-128900500D01*
X113400500Y-128807314D01*
X113466392Y-128693186D01*
X113500500Y-128565892D01*
X113500500Y-128434108D01*
X113466392Y-128306814D01*
X113400500Y-128192686D01*
X113307314Y-128099500D01*
X113240047Y-128060663D01*
X113193187Y-128033608D01*
X113185252Y-128031482D01*
X119162000Y-128031482D01*
X119162000Y-128143518D01*
X119190997Y-128251737D01*
X119247015Y-128348763D01*
X119326237Y-128427985D01*
X119423263Y-128484003D01*
X119531482Y-128513000D01*
X119531484Y-128513000D01*
X119643516Y-128513000D01*
X119643518Y-128513000D01*
X119751737Y-128484003D01*
X119848763Y-128427985D01*
X119927985Y-128348763D01*
X119984003Y-128251737D01*
X120013000Y-128143518D01*
X120013000Y-128034894D01*
X120413459Y-128034894D01*
X120413459Y-128166677D01*
X120447567Y-128293973D01*
X120454980Y-128306812D01*
X120513459Y-128408100D01*
X120606645Y-128501286D01*
X120682235Y-128544928D01*
X120718545Y-128565892D01*
X120720773Y-128567178D01*
X120848067Y-128601286D01*
X120848069Y-128601286D01*
X120979849Y-128601286D01*
X120979851Y-128601286D01*
X121107145Y-128567178D01*
X121221273Y-128501286D01*
X121221987Y-128500571D01*
X121222735Y-128500163D01*
X121227719Y-128496339D01*
X121228315Y-128497115D01*
X121283306Y-128467083D01*
X121352998Y-128472062D01*
X121408934Y-128513929D01*
X121424233Y-128540792D01*
X121425944Y-128544923D01*
X121436749Y-128563638D01*
X121491839Y-128659056D01*
X121585025Y-128752242D01*
X121647540Y-128788335D01*
X121694398Y-128815389D01*
X121699153Y-128818134D01*
X121826447Y-128852242D01*
X121826449Y-128852242D01*
X121958229Y-128852242D01*
X121958231Y-128852242D01*
X122085525Y-128818134D01*
X122199653Y-128752242D01*
X122292839Y-128659056D01*
X122358731Y-128544928D01*
X122392839Y-128417634D01*
X122392839Y-128285850D01*
X122358731Y-128158556D01*
X122350049Y-128143518D01*
X122293030Y-128044758D01*
X122276557Y-127976858D01*
X122299409Y-127910831D01*
X122312725Y-127895088D01*
X122400500Y-127807314D01*
X122466392Y-127693186D01*
X122476794Y-127654365D01*
X123773135Y-127654365D01*
X123773135Y-127786149D01*
X123789842Y-127848500D01*
X123807243Y-127913444D01*
X123840189Y-127970507D01*
X123873135Y-128027571D01*
X123966321Y-128120757D01*
X124080449Y-128186649D01*
X124207743Y-128220757D01*
X124207745Y-128220757D01*
X124339525Y-128220757D01*
X124339527Y-128220757D01*
X124466821Y-128186649D01*
X124580949Y-128120757D01*
X124674135Y-128027571D01*
X124740027Y-127913443D01*
X124774135Y-127786149D01*
X124774135Y-127654365D01*
X124740027Y-127527071D01*
X124674135Y-127412943D01*
X124580949Y-127319757D01*
X124523885Y-127286811D01*
X124466822Y-127253865D01*
X124403174Y-127236811D01*
X124339527Y-127219757D01*
X124207743Y-127219757D01*
X124080447Y-127253865D01*
X123966321Y-127319757D01*
X123966318Y-127319759D01*
X123873137Y-127412940D01*
X123873135Y-127412943D01*
X123807243Y-127527069D01*
X123796841Y-127565891D01*
X123773135Y-127654365D01*
X122476794Y-127654365D01*
X122500500Y-127565892D01*
X122500500Y-127434108D01*
X122466392Y-127306814D01*
X122400500Y-127192686D01*
X122307314Y-127099500D01*
X122307311Y-127099498D01*
X122305847Y-127098375D01*
X122304921Y-127097107D01*
X122301567Y-127093753D01*
X122302090Y-127093229D01*
X122264645Y-127041947D01*
X122260491Y-126972201D01*
X122294704Y-126911281D01*
X122305847Y-126901625D01*
X122307306Y-126900504D01*
X122307314Y-126900500D01*
X122400500Y-126807314D01*
X122466392Y-126693186D01*
X122500500Y-126565892D01*
X122500500Y-126434108D01*
X122466392Y-126306814D01*
X122400500Y-126192686D01*
X122307314Y-126099500D01*
X122249100Y-126065890D01*
X122193187Y-126033608D01*
X122109800Y-126011265D01*
X122065892Y-125999500D01*
X121934108Y-125999500D01*
X121806812Y-126033608D01*
X121692686Y-126099500D01*
X121692683Y-126099502D01*
X121599502Y-126192683D01*
X121599500Y-126192686D01*
X121533608Y-126306812D01*
X121499500Y-126434108D01*
X121499500Y-126565891D01*
X121533608Y-126693187D01*
X121566554Y-126750250D01*
X121599500Y-126807314D01*
X121599502Y-126807316D01*
X121692687Y-126900501D01*
X121694158Y-126901630D01*
X121695083Y-126902897D01*
X121698433Y-126906247D01*
X121697910Y-126906769D01*
X121735356Y-126958060D01*
X121739506Y-127027807D01*
X121705289Y-127088725D01*
X121694158Y-127098370D01*
X121692687Y-127099498D01*
X121599502Y-127192683D01*
X121599500Y-127192686D01*
X121533608Y-127306812D01*
X121499500Y-127434108D01*
X121499500Y-127565891D01*
X121531141Y-127683979D01*
X121529478Y-127753829D01*
X121490315Y-127811691D01*
X121426087Y-127839195D01*
X121357184Y-127827608D01*
X121321183Y-127798241D01*
X121320206Y-127799219D01*
X121221275Y-127700288D01*
X121221273Y-127700286D01*
X121154960Y-127662000D01*
X121107146Y-127634394D01*
X121031570Y-127614144D01*
X120979851Y-127600286D01*
X120848067Y-127600286D01*
X120720771Y-127634394D01*
X120606645Y-127700286D01*
X120606642Y-127700288D01*
X120513461Y-127793469D01*
X120513459Y-127793472D01*
X120447567Y-127907598D01*
X120413459Y-128034894D01*
X120013000Y-128034894D01*
X120013000Y-128031482D01*
X119984003Y-127923263D01*
X119927985Y-127826237D01*
X119848763Y-127747015D01*
X119784079Y-127709669D01*
X119751739Y-127690998D01*
X119751738Y-127690997D01*
X119751737Y-127690997D01*
X119643518Y-127662000D01*
X119531482Y-127662000D01*
X119423263Y-127690997D01*
X119423260Y-127690998D01*
X119326240Y-127747013D01*
X119326234Y-127747017D01*
X119247017Y-127826234D01*
X119247013Y-127826240D01*
X119190998Y-127923260D01*
X119190997Y-127923263D01*
X119162000Y-128031482D01*
X113185252Y-128031482D01*
X113129539Y-128016554D01*
X113065892Y-127999500D01*
X112934108Y-127999500D01*
X112806814Y-128033608D01*
X112806813Y-128033608D01*
X112806811Y-128033609D01*
X112806806Y-128033610D01*
X112748900Y-128067043D01*
X112681000Y-128083516D01*
X112614973Y-128060663D01*
X112599220Y-128047337D01*
X112500385Y-127948502D01*
X112500383Y-127948500D01*
X112435139Y-127910831D01*
X112386256Y-127882608D01*
X112322608Y-127865554D01*
X112258961Y-127848500D01*
X112127177Y-127848500D01*
X111999881Y-127882608D01*
X111885755Y-127948500D01*
X111885752Y-127948502D01*
X111792571Y-128041683D01*
X111792569Y-128041686D01*
X111726677Y-128155812D01*
X111700975Y-128251736D01*
X111692569Y-128283108D01*
X111692569Y-128414892D01*
X111706368Y-128466391D01*
X111726677Y-128542187D01*
X111741106Y-128567178D01*
X111792569Y-128656314D01*
X111885755Y-128749500D01*
X111917994Y-128768113D01*
X111966209Y-128818681D01*
X111979431Y-128887288D01*
X111953463Y-128952152D01*
X111896549Y-128992680D01*
X111855993Y-128999500D01*
X111742152Y-128999500D01*
X111614856Y-129033608D01*
X111500730Y-129099500D01*
X111500727Y-129099502D01*
X111407546Y-129192683D01*
X111407544Y-129192686D01*
X111341652Y-129306812D01*
X111307544Y-129434108D01*
X95300500Y-129434108D01*
X95300500Y-127934108D01*
X107999500Y-127934108D01*
X107999500Y-128065892D01*
X108004222Y-128083516D01*
X108033608Y-128193187D01*
X108049526Y-128220757D01*
X108099500Y-128307314D01*
X108192686Y-128400500D01*
X108306814Y-128466392D01*
X108434108Y-128500500D01*
X108434110Y-128500500D01*
X108565890Y-128500500D01*
X108565892Y-128500500D01*
X108693186Y-128466392D01*
X108749103Y-128434108D01*
X109999500Y-128434108D01*
X109999500Y-128565892D01*
X110008984Y-128601286D01*
X110033608Y-128693187D01*
X110066119Y-128749497D01*
X110099500Y-128807314D01*
X110192686Y-128900500D01*
X110306814Y-128966392D01*
X110434108Y-129000500D01*
X110434110Y-129000500D01*
X110565890Y-129000500D01*
X110565892Y-129000500D01*
X110693186Y-128966392D01*
X110807314Y-128900500D01*
X110900500Y-128807314D01*
X110966392Y-128693186D01*
X111000500Y-128565892D01*
X111000500Y-128434108D01*
X110966392Y-128306814D01*
X110900500Y-128192686D01*
X110807314Y-128099500D01*
X110740047Y-128060663D01*
X110693187Y-128033608D01*
X110629539Y-128016554D01*
X110565892Y-127999500D01*
X110434108Y-127999500D01*
X110306812Y-128033608D01*
X110192686Y-128099500D01*
X110192683Y-128099502D01*
X110099502Y-128192683D01*
X110099500Y-128192686D01*
X110033608Y-128306812D01*
X110033473Y-128307316D01*
X109999500Y-128434108D01*
X108749103Y-128434108D01*
X108807314Y-128400500D01*
X108900500Y-128307314D01*
X108966392Y-128193186D01*
X109000500Y-128065892D01*
X109000500Y-127934108D01*
X108966392Y-127806814D01*
X108900500Y-127692686D01*
X108807314Y-127599500D01*
X108749098Y-127565889D01*
X108693187Y-127533608D01*
X108629539Y-127516554D01*
X108565892Y-127499500D01*
X108434108Y-127499500D01*
X108306812Y-127533608D01*
X108192686Y-127599500D01*
X108192683Y-127599502D01*
X108099502Y-127692683D01*
X108099500Y-127692686D01*
X108033608Y-127806812D01*
X108009958Y-127895076D01*
X107999500Y-127934108D01*
X95300500Y-127934108D01*
X95300500Y-126657108D01*
X115103644Y-126657108D01*
X115103644Y-126788891D01*
X115137752Y-126916187D01*
X115170092Y-126972201D01*
X115203644Y-127030314D01*
X115296830Y-127123500D01*
X115410958Y-127189392D01*
X115538252Y-127223500D01*
X115538254Y-127223500D01*
X115670034Y-127223500D01*
X115670036Y-127223500D01*
X115797330Y-127189392D01*
X115911458Y-127123500D01*
X116004644Y-127030314D01*
X116070536Y-126916186D01*
X116104644Y-126788892D01*
X116104644Y-126657108D01*
X116070536Y-126529814D01*
X116004644Y-126415686D01*
X115911458Y-126322500D01*
X115840995Y-126281818D01*
X115840993Y-126281816D01*
X115797333Y-126256609D01*
X115797330Y-126256608D01*
X115670036Y-126222500D01*
X115538252Y-126222500D01*
X115410956Y-126256608D01*
X115296830Y-126322500D01*
X115296827Y-126322502D01*
X115203646Y-126415683D01*
X115203644Y-126415686D01*
X115137752Y-126529812D01*
X115103644Y-126657108D01*
X95300500Y-126657108D01*
X95300500Y-125934108D01*
X111999500Y-125934108D01*
X111999500Y-126065892D01*
X112006089Y-126090482D01*
X112033608Y-126193187D01*
X112050532Y-126222500D01*
X112099500Y-126307314D01*
X112192686Y-126400500D01*
X112306814Y-126466392D01*
X112434108Y-126500500D01*
X112434110Y-126500500D01*
X112565890Y-126500500D01*
X112565892Y-126500500D01*
X112693186Y-126466392D01*
X112807314Y-126400500D01*
X112900500Y-126307314D01*
X112966392Y-126193186D01*
X112969240Y-126182558D01*
X116855924Y-126182558D01*
X116855924Y-126294594D01*
X116884921Y-126402813D01*
X116940939Y-126499839D01*
X117020161Y-126579061D01*
X117117187Y-126635079D01*
X117225406Y-126664076D01*
X117225408Y-126664076D01*
X117337440Y-126664076D01*
X117337442Y-126664076D01*
X117445661Y-126635079D01*
X117542687Y-126579061D01*
X117621909Y-126499839D01*
X117677927Y-126402813D01*
X117706924Y-126294594D01*
X117706924Y-126182558D01*
X117677927Y-126074339D01*
X117621909Y-125977313D01*
X117542687Y-125898091D01*
X117445661Y-125842073D01*
X117337442Y-125813076D01*
X117225406Y-125813076D01*
X117117187Y-125842073D01*
X117117184Y-125842074D01*
X117020164Y-125898089D01*
X117020158Y-125898093D01*
X116940941Y-125977310D01*
X116940937Y-125977316D01*
X116884922Y-126074336D01*
X116884921Y-126074339D01*
X116855924Y-126182558D01*
X112969240Y-126182558D01*
X113000500Y-126065892D01*
X113000500Y-125934108D01*
X112966392Y-125806814D01*
X112965932Y-125806018D01*
X112932352Y-125747856D01*
X112932351Y-125747854D01*
X112901248Y-125693982D01*
X113311328Y-125693982D01*
X113311328Y-125806018D01*
X113336000Y-125898093D01*
X113340325Y-125914236D01*
X113340326Y-125914239D01*
X113351799Y-125934110D01*
X113396343Y-126011263D01*
X113475565Y-126090485D01*
X113572591Y-126146503D01*
X113680810Y-126175500D01*
X113680812Y-126175500D01*
X113792844Y-126175500D01*
X113792846Y-126175500D01*
X113901065Y-126146503D01*
X113998091Y-126090485D01*
X114077313Y-126011263D01*
X114133331Y-125914237D01*
X114162328Y-125806018D01*
X114162328Y-125693982D01*
X114133331Y-125585763D01*
X114077313Y-125488737D01*
X113998091Y-125409515D01*
X113901065Y-125353497D01*
X113792846Y-125324500D01*
X113680810Y-125324500D01*
X113572591Y-125353497D01*
X113572588Y-125353498D01*
X113475568Y-125409513D01*
X113475562Y-125409517D01*
X113396345Y-125488734D01*
X113396341Y-125488740D01*
X113340326Y-125585760D01*
X113340325Y-125585763D01*
X113311328Y-125693982D01*
X112901248Y-125693982D01*
X112900500Y-125692686D01*
X112807314Y-125599500D01*
X112750250Y-125566554D01*
X112693187Y-125533608D01*
X112629539Y-125516554D01*
X112565892Y-125499500D01*
X112434108Y-125499500D01*
X112306812Y-125533608D01*
X112192686Y-125599500D01*
X112192683Y-125599502D01*
X112099502Y-125692683D01*
X112099500Y-125692686D01*
X112033608Y-125806812D01*
X112009150Y-125898093D01*
X111999500Y-125934108D01*
X95300500Y-125934108D01*
X95300500Y-121645730D01*
X97917000Y-121645730D01*
X97917000Y-123854269D01*
X97919853Y-123884699D01*
X97919853Y-123884701D01*
X97959881Y-123999090D01*
X97964707Y-124012882D01*
X98045350Y-124122150D01*
X98154618Y-124202793D01*
X98190930Y-124215499D01*
X98282799Y-124247646D01*
X98313230Y-124250500D01*
X98313234Y-124250500D01*
X100521770Y-124250500D01*
X100552199Y-124247646D01*
X100552201Y-124247646D01*
X100616290Y-124225219D01*
X100680382Y-124202793D01*
X100789650Y-124122150D01*
X100791069Y-124120227D01*
X113685619Y-124120227D01*
X113685619Y-124252011D01*
X113700437Y-124307313D01*
X113719727Y-124379306D01*
X113731962Y-124400497D01*
X113785619Y-124493433D01*
X113878805Y-124586619D01*
X113992933Y-124652511D01*
X114120227Y-124686619D01*
X114120229Y-124686619D01*
X114252009Y-124686619D01*
X114252011Y-124686619D01*
X114379305Y-124652511D01*
X114493433Y-124586619D01*
X114586619Y-124493433D01*
X114652511Y-124379305D01*
X114686619Y-124252011D01*
X114686619Y-124120227D01*
X114652511Y-123992933D01*
X114652159Y-123992324D01*
X114643682Y-123977640D01*
X114586619Y-123878805D01*
X114493433Y-123785619D01*
X114403999Y-123733984D01*
X114379306Y-123719727D01*
X114280255Y-123693187D01*
X114252011Y-123685619D01*
X114120227Y-123685619D01*
X113992931Y-123719727D01*
X113878805Y-123785619D01*
X113878802Y-123785621D01*
X113785621Y-123878802D01*
X113785619Y-123878805D01*
X113719727Y-123992931D01*
X113704097Y-124051265D01*
X113685619Y-124120227D01*
X100791069Y-124120227D01*
X100870293Y-124012882D01*
X100892719Y-123948790D01*
X100915146Y-123884701D01*
X100915146Y-123884699D01*
X100918000Y-123854269D01*
X100918000Y-123434108D01*
X112499500Y-123434108D01*
X112499500Y-123565892D01*
X112505621Y-123588737D01*
X112533608Y-123693187D01*
X112557163Y-123733984D01*
X112599500Y-123807314D01*
X112692686Y-123900500D01*
X112806814Y-123966392D01*
X112934108Y-124000500D01*
X112934110Y-124000500D01*
X113065889Y-124000500D01*
X113065892Y-124000500D01*
X113193186Y-123966392D01*
X113307314Y-123900500D01*
X113400500Y-123807314D01*
X113466392Y-123693186D01*
X113500500Y-123565892D01*
X113500500Y-123434108D01*
X113466392Y-123306814D01*
X113400500Y-123192686D01*
X113307314Y-123099500D01*
X113249100Y-123065890D01*
X113193187Y-123033608D01*
X113129539Y-123016554D01*
X113065892Y-122999500D01*
X112934108Y-122999500D01*
X112806812Y-123033608D01*
X112692686Y-123099500D01*
X112692683Y-123099502D01*
X112599502Y-123192683D01*
X112599500Y-123192686D01*
X112533608Y-123306812D01*
X112508506Y-123400497D01*
X112499500Y-123434108D01*
X100918000Y-123434108D01*
X100918000Y-122009108D01*
X115074500Y-122009108D01*
X115074500Y-122140892D01*
X115088377Y-122192683D01*
X115108608Y-122268187D01*
X115130909Y-122306812D01*
X115174500Y-122382314D01*
X115195815Y-122403629D01*
X115229299Y-122464953D01*
X115224313Y-122534645D01*
X115202212Y-122569039D01*
X115203373Y-122569930D01*
X115198428Y-122576373D01*
X115132532Y-122690507D01*
X115098424Y-122817802D01*
X115098424Y-122949586D01*
X115111798Y-122999500D01*
X115132532Y-123076881D01*
X115145593Y-123099502D01*
X115198424Y-123191008D01*
X115198426Y-123191010D01*
X115297357Y-123289941D01*
X115295488Y-123291809D01*
X115328985Y-123337700D01*
X115333127Y-123407447D01*
X115299970Y-123467308D01*
X115238540Y-123528738D01*
X115238539Y-123528740D01*
X115182524Y-123625760D01*
X115182523Y-123625763D01*
X115153526Y-123733982D01*
X115153526Y-123846018D01*
X115182523Y-123954237D01*
X115238541Y-124051263D01*
X115317763Y-124130485D01*
X115414789Y-124186503D01*
X115523008Y-124215500D01*
X115523010Y-124215500D01*
X115635042Y-124215500D01*
X115635044Y-124215500D01*
X115743263Y-124186503D01*
X115840289Y-124130485D01*
X115919511Y-124051263D01*
X115975529Y-123954237D01*
X116004526Y-123846018D01*
X116004526Y-123793982D01*
X118614500Y-123793982D01*
X118614500Y-123906018D01*
X118643497Y-124014237D01*
X118699515Y-124111263D01*
X118778737Y-124190485D01*
X118875763Y-124246503D01*
X118983982Y-124275500D01*
X118983984Y-124275500D01*
X119096016Y-124275500D01*
X119096018Y-124275500D01*
X119204237Y-124246503D01*
X119301263Y-124190485D01*
X119380485Y-124111263D01*
X119436503Y-124014237D01*
X119465500Y-123906018D01*
X119465500Y-123793982D01*
X119436503Y-123685763D01*
X119380485Y-123588737D01*
X119301263Y-123509515D01*
X119204237Y-123453497D01*
X119096018Y-123424500D01*
X118983982Y-123424500D01*
X118875763Y-123453497D01*
X118875760Y-123453498D01*
X118778740Y-123509513D01*
X118778734Y-123509517D01*
X118699517Y-123588734D01*
X118699513Y-123588740D01*
X118643498Y-123685760D01*
X118643497Y-123685763D01*
X118614500Y-123793982D01*
X116004526Y-123793982D01*
X116004526Y-123733982D01*
X115975529Y-123625763D01*
X115919511Y-123528737D01*
X115873886Y-123483112D01*
X115840401Y-123421789D01*
X115845385Y-123352097D01*
X115887257Y-123296164D01*
X115899559Y-123288049D01*
X115906238Y-123284194D01*
X115999424Y-123191008D01*
X116065316Y-123076880D01*
X116099424Y-122949586D01*
X116099424Y-122894887D01*
X117475695Y-122894887D01*
X117475695Y-123026670D01*
X117509803Y-123153966D01*
X117532447Y-123193186D01*
X117575695Y-123268093D01*
X117668881Y-123361279D01*
X117783009Y-123427171D01*
X117910303Y-123461279D01*
X117910305Y-123461279D01*
X118042085Y-123461279D01*
X118042087Y-123461279D01*
X118169381Y-123427171D01*
X118283509Y-123361279D01*
X118376695Y-123268093D01*
X118442587Y-123153965D01*
X118476695Y-123026671D01*
X118476695Y-122934108D01*
X121999500Y-122934108D01*
X121999500Y-123065892D01*
X122008127Y-123098090D01*
X122033608Y-123193187D01*
X122066554Y-123250250D01*
X122099500Y-123307314D01*
X122192686Y-123400500D01*
X122306814Y-123466392D01*
X122434108Y-123500500D01*
X122434110Y-123500500D01*
X122565890Y-123500500D01*
X122565892Y-123500500D01*
X122693186Y-123466392D01*
X122807314Y-123400500D01*
X122900500Y-123307314D01*
X122966392Y-123193186D01*
X123000500Y-123065892D01*
X123000500Y-122934108D01*
X122966392Y-122806814D01*
X122900500Y-122692686D01*
X122807314Y-122599500D01*
X122693186Y-122533608D01*
X122565892Y-122499500D01*
X122434108Y-122499500D01*
X122306812Y-122533608D01*
X122192686Y-122599500D01*
X122192683Y-122599502D01*
X122099502Y-122692683D01*
X122099500Y-122692686D01*
X122033608Y-122806812D01*
X122008506Y-122900497D01*
X121999500Y-122934108D01*
X118476695Y-122934108D01*
X118476695Y-122894887D01*
X118442587Y-122767593D01*
X118376695Y-122653465D01*
X118372049Y-122648819D01*
X118330326Y-122607095D01*
X118296842Y-122545772D01*
X118301827Y-122476080D01*
X118310622Y-122457414D01*
X118324078Y-122434108D01*
X124499500Y-122434108D01*
X124499500Y-122565892D01*
X124502310Y-122576380D01*
X124533608Y-122693187D01*
X124566554Y-122750250D01*
X124599500Y-122807314D01*
X124692686Y-122900500D01*
X124806814Y-122966392D01*
X124934108Y-123000500D01*
X124934110Y-123000500D01*
X125065890Y-123000500D01*
X125065892Y-123000500D01*
X125193186Y-122966392D01*
X125307314Y-122900500D01*
X125400500Y-122807314D01*
X125400504Y-122807306D01*
X125401625Y-122805847D01*
X125402892Y-122804921D01*
X125406247Y-122801567D01*
X125406770Y-122802090D01*
X125458053Y-122764645D01*
X125527799Y-122760491D01*
X125588719Y-122794704D01*
X125598375Y-122805847D01*
X125599498Y-122807311D01*
X125599500Y-122807314D01*
X125692686Y-122900500D01*
X125806814Y-122966392D01*
X125934108Y-123000500D01*
X125934110Y-123000500D01*
X125994870Y-123000500D01*
X126061909Y-123020185D01*
X126107664Y-123072989D01*
X126117608Y-123142147D01*
X126102257Y-123186500D01*
X126033609Y-123305400D01*
X126033609Y-123305401D01*
X126033609Y-123305402D01*
X126033608Y-123305404D01*
X125999500Y-123432698D01*
X125999500Y-123564482D01*
X126015919Y-123625760D01*
X126033608Y-123691777D01*
X126057976Y-123733982D01*
X126099500Y-123805904D01*
X126192686Y-123899090D01*
X126306814Y-123964982D01*
X126434108Y-123999090D01*
X126434110Y-123999090D01*
X126565890Y-123999090D01*
X126565892Y-123999090D01*
X126693186Y-123964982D01*
X126746661Y-123934108D01*
X129999500Y-123934108D01*
X129999500Y-124065891D01*
X130033608Y-124193187D01*
X130064390Y-124246502D01*
X130099500Y-124307314D01*
X130192686Y-124400500D01*
X130306814Y-124466392D01*
X130434108Y-124500500D01*
X130434110Y-124500500D01*
X130565890Y-124500500D01*
X130565892Y-124500500D01*
X130693186Y-124466392D01*
X130766206Y-124424234D01*
X139361500Y-124424234D01*
X139361500Y-124575765D01*
X139400719Y-124722136D01*
X139438602Y-124787750D01*
X139476485Y-124853365D01*
X139583635Y-124960515D01*
X139714865Y-125036281D01*
X139861234Y-125075500D01*
X139861236Y-125075500D01*
X140012764Y-125075500D01*
X140012766Y-125075500D01*
X140159135Y-125036281D01*
X140290365Y-124960515D01*
X140397515Y-124853365D01*
X140473281Y-124722135D01*
X140512500Y-124575766D01*
X140512500Y-124424234D01*
X140473281Y-124277865D01*
X140397515Y-124146635D01*
X140290365Y-124039485D01*
X140209735Y-123992933D01*
X140159136Y-123963719D01*
X140048631Y-123934110D01*
X140012766Y-123924500D01*
X139861234Y-123924500D01*
X139714863Y-123963719D01*
X139583635Y-124039485D01*
X139583632Y-124039487D01*
X139476487Y-124146632D01*
X139476485Y-124146635D01*
X139400719Y-124277863D01*
X139361500Y-124424234D01*
X130766206Y-124424234D01*
X130807314Y-124400500D01*
X130900500Y-124307314D01*
X130966392Y-124193186D01*
X131000500Y-124065892D01*
X131000500Y-123934108D01*
X130966392Y-123806814D01*
X130900500Y-123692686D01*
X130807314Y-123599500D01*
X130746661Y-123564482D01*
X130737291Y-123559072D01*
X131811290Y-123559072D01*
X131811290Y-123690856D01*
X131822846Y-123733984D01*
X131845398Y-123818151D01*
X131866251Y-123854269D01*
X131911290Y-123932278D01*
X132004476Y-124025464D01*
X132118604Y-124091356D01*
X132245898Y-124125464D01*
X132245900Y-124125464D01*
X132377680Y-124125464D01*
X132377682Y-124125464D01*
X132504976Y-124091356D01*
X132619104Y-124025464D01*
X132712290Y-123932278D01*
X132778182Y-123818150D01*
X132812290Y-123690856D01*
X132812290Y-123559072D01*
X132787457Y-123466392D01*
X132785230Y-123458081D01*
X132785228Y-123458076D01*
X132778806Y-123434108D01*
X133999500Y-123434108D01*
X133999500Y-123565892D01*
X134005621Y-123588737D01*
X134033608Y-123693187D01*
X134057163Y-123733984D01*
X134099500Y-123807314D01*
X134192686Y-123900500D01*
X134306814Y-123966392D01*
X134434108Y-124000500D01*
X134434110Y-124000500D01*
X134565890Y-124000500D01*
X134565892Y-124000500D01*
X134693186Y-123966392D01*
X134807314Y-123900500D01*
X134900500Y-123807314D01*
X134966392Y-123693186D01*
X135000500Y-123565892D01*
X135000500Y-123434108D01*
X134966392Y-123306814D01*
X134900500Y-123192686D01*
X134807314Y-123099500D01*
X134749100Y-123065890D01*
X134693187Y-123033608D01*
X134629539Y-123016554D01*
X134565892Y-122999500D01*
X134434108Y-122999500D01*
X134306812Y-123033608D01*
X134192686Y-123099500D01*
X134192683Y-123099502D01*
X134099502Y-123192683D01*
X134099500Y-123192686D01*
X134033608Y-123306812D01*
X134008506Y-123400497D01*
X133999500Y-123434108D01*
X132778806Y-123434108D01*
X132778182Y-123431778D01*
X132712290Y-123317650D01*
X132619104Y-123224464D01*
X132553349Y-123186500D01*
X132504977Y-123158572D01*
X132441329Y-123141518D01*
X132377682Y-123124464D01*
X132245898Y-123124464D01*
X132118602Y-123158572D01*
X132004476Y-123224464D01*
X132004473Y-123224466D01*
X131911292Y-123317647D01*
X131911290Y-123317650D01*
X131845398Y-123431776D01*
X131824568Y-123509517D01*
X131811290Y-123559072D01*
X130737291Y-123559072D01*
X130693187Y-123533608D01*
X130603276Y-123509517D01*
X130565892Y-123499500D01*
X130434108Y-123499500D01*
X130306812Y-123533608D01*
X130192686Y-123599500D01*
X130192683Y-123599502D01*
X130099502Y-123692683D01*
X130099500Y-123692686D01*
X130033608Y-123806812D01*
X129999500Y-123934108D01*
X126746661Y-123934108D01*
X126807314Y-123899090D01*
X126900500Y-123805904D01*
X126966392Y-123691776D01*
X127000500Y-123564482D01*
X127000500Y-123432698D01*
X126966392Y-123305404D01*
X126900500Y-123191276D01*
X126807314Y-123098090D01*
X126750250Y-123065144D01*
X126693187Y-123032198D01*
X126629539Y-123015144D01*
X126565892Y-122998090D01*
X126505130Y-122998090D01*
X126438091Y-122978405D01*
X126392336Y-122925601D01*
X126382392Y-122856443D01*
X126397743Y-122812090D01*
X126466390Y-122693189D01*
X126466392Y-122693186D01*
X126500500Y-122565892D01*
X126500500Y-122434108D01*
X130499500Y-122434108D01*
X130499500Y-122565892D01*
X130502310Y-122576380D01*
X130533608Y-122693187D01*
X130566554Y-122750250D01*
X130599500Y-122807314D01*
X130692686Y-122900500D01*
X130806814Y-122966392D01*
X130934108Y-123000500D01*
X130934110Y-123000500D01*
X131065890Y-123000500D01*
X131065892Y-123000500D01*
X131193186Y-122966392D01*
X131307314Y-122900500D01*
X131400500Y-122807314D01*
X131466392Y-122693186D01*
X131500500Y-122565892D01*
X131500500Y-122434108D01*
X131466392Y-122306814D01*
X131400500Y-122192686D01*
X131307314Y-122099500D01*
X131250250Y-122066554D01*
X131193187Y-122033608D01*
X131101757Y-122009110D01*
X131065892Y-121999500D01*
X130934108Y-121999500D01*
X130806812Y-122033608D01*
X130692686Y-122099500D01*
X130692683Y-122099502D01*
X130599502Y-122192683D01*
X130599500Y-122192686D01*
X130533608Y-122306812D01*
X130511410Y-122389658D01*
X130499500Y-122434108D01*
X126500500Y-122434108D01*
X126466392Y-122306814D01*
X126400500Y-122192686D01*
X126307314Y-122099500D01*
X126250250Y-122066554D01*
X126193187Y-122033608D01*
X126101757Y-122009110D01*
X126065892Y-121999500D01*
X125934108Y-121999500D01*
X125806812Y-122033608D01*
X125692686Y-122099500D01*
X125692683Y-122099502D01*
X125599498Y-122192687D01*
X125598370Y-122194158D01*
X125597102Y-122195083D01*
X125593753Y-122198433D01*
X125593230Y-122197910D01*
X125541940Y-122235356D01*
X125472193Y-122239506D01*
X125411275Y-122205289D01*
X125401630Y-122194158D01*
X125400501Y-122192687D01*
X125307316Y-122099502D01*
X125307314Y-122099500D01*
X125250250Y-122066554D01*
X125193187Y-122033608D01*
X125101757Y-122009110D01*
X125065892Y-121999500D01*
X124934108Y-121999500D01*
X124806812Y-122033608D01*
X124692686Y-122099500D01*
X124692683Y-122099502D01*
X124599502Y-122192683D01*
X124599500Y-122192686D01*
X124533608Y-122306812D01*
X124511410Y-122389658D01*
X124499500Y-122434108D01*
X118324078Y-122434108D01*
X118351872Y-122385967D01*
X118351873Y-122385966D01*
X118351874Y-122385963D01*
X118351875Y-122385962D01*
X118382576Y-122271385D01*
X118382576Y-122152767D01*
X118351875Y-122038190D01*
X118292565Y-121935463D01*
X118208689Y-121851587D01*
X118105962Y-121792277D01*
X117991385Y-121761576D01*
X117872767Y-121761576D01*
X117758190Y-121792277D01*
X117758188Y-121792277D01*
X117758188Y-121792278D01*
X117655463Y-121851587D01*
X117655460Y-121851589D01*
X117571589Y-121935460D01*
X117571587Y-121935463D01*
X117534038Y-122000500D01*
X117512277Y-122038190D01*
X117481576Y-122152767D01*
X117481576Y-122271385D01*
X117512277Y-122385962D01*
X117571587Y-122488689D01*
X117571590Y-122488692D01*
X117576534Y-122495135D01*
X117574559Y-122496650D01*
X117602043Y-122546983D01*
X117597059Y-122616675D01*
X117579260Y-122648819D01*
X117575697Y-122653462D01*
X117509803Y-122767592D01*
X117475695Y-122894887D01*
X116099424Y-122894887D01*
X116099424Y-122817802D01*
X116065316Y-122690508D01*
X115999424Y-122576380D01*
X115978110Y-122555066D01*
X115944625Y-122493743D01*
X115949609Y-122424051D01*
X115971716Y-122389658D01*
X115970551Y-122388765D01*
X115975495Y-122382321D01*
X115975497Y-122382316D01*
X115975500Y-122382314D01*
X116041392Y-122268186D01*
X116075500Y-122140892D01*
X116075500Y-122009108D01*
X116041392Y-121881814D01*
X115975500Y-121767686D01*
X115882314Y-121674500D01*
X115851808Y-121656887D01*
X115803593Y-121606321D01*
X115790370Y-121537714D01*
X115816338Y-121472849D01*
X115873252Y-121432321D01*
X115913809Y-121425501D01*
X116018583Y-121425501D01*
X116018585Y-121425501D01*
X116145879Y-121391393D01*
X116260007Y-121325501D01*
X116353193Y-121232315D01*
X116419085Y-121118187D01*
X116453193Y-120990893D01*
X116453193Y-120934108D01*
X121999500Y-120934108D01*
X121999500Y-121065891D01*
X122033608Y-121193187D01*
X122056919Y-121233562D01*
X122099500Y-121307314D01*
X122192686Y-121400500D01*
X122306814Y-121466392D01*
X122434108Y-121500500D01*
X122434110Y-121500500D01*
X122565890Y-121500500D01*
X122565892Y-121500500D01*
X122693186Y-121466392D01*
X122749103Y-121434108D01*
X134499500Y-121434108D01*
X134499500Y-121565892D01*
X134510333Y-121606321D01*
X134533608Y-121693187D01*
X134566554Y-121750250D01*
X134599500Y-121807314D01*
X134692686Y-121900500D01*
X134806814Y-121966392D01*
X134934108Y-122000500D01*
X134934110Y-122000500D01*
X135065890Y-122000500D01*
X135065892Y-122000500D01*
X135193186Y-121966392D01*
X135307314Y-121900500D01*
X135400500Y-121807314D01*
X135466392Y-121693186D01*
X135500500Y-121565892D01*
X135500500Y-121434108D01*
X139899500Y-121434108D01*
X139899500Y-121565892D01*
X139910333Y-121606321D01*
X139933608Y-121693187D01*
X139966554Y-121750250D01*
X139999500Y-121807314D01*
X140092686Y-121900500D01*
X140206814Y-121966392D01*
X140334108Y-122000500D01*
X140334110Y-122000500D01*
X140465890Y-122000500D01*
X140465892Y-122000500D01*
X140593186Y-121966392D01*
X140707314Y-121900500D01*
X140800500Y-121807314D01*
X140866392Y-121693186D01*
X140900500Y-121565892D01*
X140900500Y-121434108D01*
X140866392Y-121306814D01*
X140800500Y-121192686D01*
X140707314Y-121099500D01*
X140649100Y-121065890D01*
X140593187Y-121033608D01*
X140529539Y-121016554D01*
X140465892Y-120999500D01*
X140334108Y-120999500D01*
X140206812Y-121033608D01*
X140092686Y-121099500D01*
X140092683Y-121099502D01*
X139999502Y-121192683D01*
X139999500Y-121192686D01*
X139933608Y-121306812D01*
X139908506Y-121400497D01*
X139899500Y-121434108D01*
X135500500Y-121434108D01*
X135466392Y-121306814D01*
X135400500Y-121192686D01*
X135307314Y-121099500D01*
X135249100Y-121065890D01*
X135193187Y-121033608D01*
X135129539Y-121016554D01*
X135065892Y-120999500D01*
X134934108Y-120999500D01*
X134806812Y-121033608D01*
X134692686Y-121099500D01*
X134692683Y-121099502D01*
X134599502Y-121192683D01*
X134599500Y-121192686D01*
X134533608Y-121306812D01*
X134508506Y-121400497D01*
X134499500Y-121434108D01*
X122749103Y-121434108D01*
X122807314Y-121400500D01*
X122900500Y-121307314D01*
X122966392Y-121193186D01*
X123000500Y-121065892D01*
X123000500Y-120934108D01*
X122966392Y-120806814D01*
X122900500Y-120692686D01*
X122807314Y-120599500D01*
X122731000Y-120555440D01*
X122693187Y-120533608D01*
X122629539Y-120516554D01*
X122565892Y-120499500D01*
X122434108Y-120499500D01*
X122306812Y-120533608D01*
X122192686Y-120599500D01*
X122192683Y-120599502D01*
X122099502Y-120692683D01*
X122099500Y-120692686D01*
X122033608Y-120806812D01*
X121999500Y-120934108D01*
X116453193Y-120934108D01*
X116453193Y-120859109D01*
X116419085Y-120731815D01*
X116353193Y-120617687D01*
X116260007Y-120524501D01*
X116260005Y-120524500D01*
X116260003Y-120524498D01*
X116227592Y-120505786D01*
X116179376Y-120455219D01*
X116166154Y-120386612D01*
X116182204Y-120336400D01*
X116221588Y-120268186D01*
X116255696Y-120140892D01*
X116255696Y-120009108D01*
X116221588Y-119881814D01*
X116155696Y-119767686D01*
X116062510Y-119674500D01*
X116005446Y-119641554D01*
X115948383Y-119608608D01*
X115884735Y-119591554D01*
X115821088Y-119574500D01*
X115689304Y-119574500D01*
X115562008Y-119608608D01*
X115447882Y-119674500D01*
X115447879Y-119674502D01*
X115354698Y-119767683D01*
X115354696Y-119767686D01*
X115288804Y-119881812D01*
X115254696Y-120009108D01*
X115254696Y-120140891D01*
X115288804Y-120268187D01*
X115321750Y-120325250D01*
X115354696Y-120382314D01*
X115447882Y-120475500D01*
X115480296Y-120494214D01*
X115528511Y-120544780D01*
X115541735Y-120613387D01*
X115525684Y-120663600D01*
X115486301Y-120731813D01*
X115452193Y-120859109D01*
X115452193Y-120990892D01*
X115486301Y-121118188D01*
X115519247Y-121175251D01*
X115552193Y-121232315D01*
X115645379Y-121325501D01*
X115675884Y-121343113D01*
X115724100Y-121393680D01*
X115737323Y-121462287D01*
X115711355Y-121527152D01*
X115654441Y-121567680D01*
X115613884Y-121574500D01*
X115509108Y-121574500D01*
X115381812Y-121608608D01*
X115267686Y-121674500D01*
X115267683Y-121674502D01*
X115174502Y-121767683D01*
X115174500Y-121767686D01*
X115108608Y-121881812D01*
X115077074Y-121999500D01*
X115074500Y-122009108D01*
X100918000Y-122009108D01*
X100918000Y-121645730D01*
X100915146Y-121615300D01*
X100915146Y-121615298D01*
X100881506Y-121519163D01*
X100870293Y-121487118D01*
X100789650Y-121377850D01*
X100680382Y-121297207D01*
X100680380Y-121297206D01*
X100552200Y-121252353D01*
X100521770Y-121249500D01*
X100521766Y-121249500D01*
X98313234Y-121249500D01*
X98313230Y-121249500D01*
X98282800Y-121252353D01*
X98282798Y-121252353D01*
X98154619Y-121297206D01*
X98154617Y-121297207D01*
X98045350Y-121377850D01*
X97964707Y-121487117D01*
X97964706Y-121487119D01*
X97919853Y-121615298D01*
X97919853Y-121615300D01*
X97917000Y-121645730D01*
X95300500Y-121645730D01*
X95300500Y-120860356D01*
X112487315Y-120860356D01*
X112487315Y-120992139D01*
X112521423Y-121119435D01*
X112554369Y-121176498D01*
X112587315Y-121233562D01*
X112680501Y-121326748D01*
X112794629Y-121392640D01*
X112921923Y-121426748D01*
X112921925Y-121426748D01*
X113053705Y-121426748D01*
X113053707Y-121426748D01*
X113181001Y-121392640D01*
X113295129Y-121326748D01*
X113388315Y-121233562D01*
X113454207Y-121119434D01*
X113488315Y-120992140D01*
X113488315Y-120860356D01*
X113454207Y-120733062D01*
X113388315Y-120618934D01*
X113295129Y-120525748D01*
X113208099Y-120475501D01*
X113181002Y-120459856D01*
X113117354Y-120442802D01*
X113053707Y-120425748D01*
X112921923Y-120425748D01*
X112794627Y-120459856D01*
X112680501Y-120525748D01*
X112680498Y-120525750D01*
X112587317Y-120618931D01*
X112587315Y-120618934D01*
X112521423Y-120733060D01*
X112487315Y-120860356D01*
X95300500Y-120860356D01*
X95300500Y-118934108D01*
X112499500Y-118934108D01*
X112499500Y-119065892D01*
X112508505Y-119099498D01*
X112533608Y-119193187D01*
X112544097Y-119211354D01*
X112599500Y-119307314D01*
X112692686Y-119400500D01*
X112806814Y-119466392D01*
X112934108Y-119500500D01*
X112934110Y-119500500D01*
X113065890Y-119500500D01*
X113065892Y-119500500D01*
X113193186Y-119466392D01*
X113307314Y-119400500D01*
X113369164Y-119338650D01*
X117344837Y-119338650D01*
X117344837Y-119470434D01*
X117355643Y-119510762D01*
X117378945Y-119597729D01*
X117391215Y-119618980D01*
X117444837Y-119711856D01*
X117538023Y-119805042D01*
X117652151Y-119870934D01*
X117779445Y-119905042D01*
X117779447Y-119905042D01*
X117911227Y-119905042D01*
X117911229Y-119905042D01*
X118038523Y-119870934D01*
X118152651Y-119805042D01*
X118245837Y-119711856D01*
X118299459Y-119618980D01*
X119274123Y-119618980D01*
X119274123Y-119731016D01*
X119303120Y-119839235D01*
X119359138Y-119936261D01*
X119438360Y-120015483D01*
X119535386Y-120071501D01*
X119643605Y-120100498D01*
X119643607Y-120100498D01*
X119755639Y-120100498D01*
X119755641Y-120100498D01*
X119863860Y-120071501D01*
X119960886Y-120015483D01*
X120040108Y-119936261D01*
X120096126Y-119839235D01*
X120125123Y-119731016D01*
X120125123Y-119618980D01*
X120102381Y-119534106D01*
X120799500Y-119534106D01*
X120799500Y-119665890D01*
X120811817Y-119711858D01*
X120833608Y-119793185D01*
X120840454Y-119805042D01*
X120899500Y-119907312D01*
X120992686Y-120000498D01*
X121106814Y-120066390D01*
X121234108Y-120100498D01*
X121234110Y-120100498D01*
X121365890Y-120100498D01*
X121365892Y-120100498D01*
X121493186Y-120066390D01*
X121607314Y-120000498D01*
X121700500Y-119907312D01*
X121766392Y-119793184D01*
X121800500Y-119665890D01*
X121800500Y-119534106D01*
X121773706Y-119434108D01*
X125999500Y-119434108D01*
X125999500Y-119565892D01*
X126002948Y-119578760D01*
X126033608Y-119693187D01*
X126055449Y-119731016D01*
X126099500Y-119807314D01*
X126192686Y-119900500D01*
X126306814Y-119966392D01*
X126434108Y-120000500D01*
X126434110Y-120000500D01*
X126565890Y-120000500D01*
X126565892Y-120000500D01*
X126693186Y-119966392D01*
X126807314Y-119900500D01*
X126900500Y-119807314D01*
X126966392Y-119693186D01*
X127000500Y-119565892D01*
X127000500Y-119434108D01*
X134499500Y-119434108D01*
X134499500Y-119565892D01*
X134502948Y-119578760D01*
X134533608Y-119693187D01*
X134555449Y-119731016D01*
X134599500Y-119807314D01*
X134692686Y-119900500D01*
X134806814Y-119966392D01*
X134934108Y-120000500D01*
X134934110Y-120000500D01*
X135065890Y-120000500D01*
X135065892Y-120000500D01*
X135193186Y-119966392D01*
X135307314Y-119900500D01*
X135400500Y-119807314D01*
X135466392Y-119693186D01*
X135500500Y-119565892D01*
X135500500Y-119434108D01*
X135466392Y-119306814D01*
X135400500Y-119192686D01*
X135307314Y-119099500D01*
X135249100Y-119065890D01*
X135193187Y-119033608D01*
X135129539Y-119016554D01*
X135065892Y-118999500D01*
X134934108Y-118999500D01*
X134806812Y-119033608D01*
X134692686Y-119099500D01*
X134692683Y-119099502D01*
X134599502Y-119192683D01*
X134599500Y-119192686D01*
X134533608Y-119306812D01*
X134525077Y-119338652D01*
X134499500Y-119434108D01*
X127000500Y-119434108D01*
X126999959Y-119432090D01*
X126998934Y-119425499D01*
X127002668Y-119397209D01*
X127003348Y-119368683D01*
X127007183Y-119363016D01*
X127008079Y-119356231D01*
X127026515Y-119334451D01*
X127042510Y-119310820D01*
X127049626Y-119307151D01*
X127053223Y-119302903D01*
X127064661Y-119299400D01*
X127089364Y-119286665D01*
X127141945Y-119272577D01*
X127256073Y-119206685D01*
X127349259Y-119113499D01*
X127415151Y-118999371D01*
X127449259Y-118872077D01*
X127449259Y-118740293D01*
X127426832Y-118656593D01*
X127428495Y-118586743D01*
X127467658Y-118528881D01*
X127531887Y-118501377D01*
X127546607Y-118500500D01*
X127565890Y-118500500D01*
X127565892Y-118500500D01*
X127693186Y-118466392D01*
X127807314Y-118400500D01*
X127880293Y-118327521D01*
X131706087Y-118327521D01*
X131706087Y-118459304D01*
X131740195Y-118586600D01*
X131755436Y-118612997D01*
X131806087Y-118700727D01*
X131899273Y-118793913D01*
X132013401Y-118859805D01*
X132140695Y-118893913D01*
X132140697Y-118893913D01*
X132272477Y-118893913D01*
X132272479Y-118893913D01*
X132399773Y-118859805D01*
X132513901Y-118793913D01*
X132607087Y-118700727D01*
X132672979Y-118586599D01*
X132707087Y-118459305D01*
X132707087Y-118424234D01*
X139361500Y-118424234D01*
X139361500Y-118575766D01*
X139381109Y-118648950D01*
X139400719Y-118722136D01*
X139438602Y-118787750D01*
X139476485Y-118853365D01*
X139583635Y-118960515D01*
X139714865Y-119036281D01*
X139861234Y-119075500D01*
X139861236Y-119075500D01*
X140012764Y-119075500D01*
X140012766Y-119075500D01*
X140159135Y-119036281D01*
X140290365Y-118960515D01*
X140397515Y-118853365D01*
X140473281Y-118722135D01*
X140512500Y-118575766D01*
X140512500Y-118424234D01*
X140473281Y-118277865D01*
X140397515Y-118146635D01*
X140290365Y-118039485D01*
X140209704Y-117992915D01*
X140159136Y-117963719D01*
X140048631Y-117934110D01*
X140012766Y-117924500D01*
X139861234Y-117924500D01*
X139714863Y-117963719D01*
X139583635Y-118039485D01*
X139583632Y-118039487D01*
X139476487Y-118146632D01*
X139476485Y-118146635D01*
X139400719Y-118277863D01*
X139367860Y-118400497D01*
X139361500Y-118424234D01*
X132707087Y-118424234D01*
X132707087Y-118327521D01*
X132672979Y-118200227D01*
X132607087Y-118086099D01*
X132513901Y-117992913D01*
X132456837Y-117959967D01*
X132399774Y-117927021D01*
X132336126Y-117909967D01*
X132272479Y-117892913D01*
X132140695Y-117892913D01*
X132013399Y-117927021D01*
X131899273Y-117992913D01*
X131899270Y-117992915D01*
X131806089Y-118086096D01*
X131806087Y-118086099D01*
X131740195Y-118200225D01*
X131706087Y-118327521D01*
X127880293Y-118327521D01*
X127900500Y-118307314D01*
X127966392Y-118193186D01*
X128000500Y-118065892D01*
X128000500Y-117934108D01*
X127966392Y-117806814D01*
X127900500Y-117692686D01*
X127807314Y-117599500D01*
X127749613Y-117566186D01*
X127693187Y-117533608D01*
X127629539Y-117516554D01*
X127565892Y-117499500D01*
X127434108Y-117499500D01*
X127306812Y-117533608D01*
X127192686Y-117599500D01*
X127192683Y-117599502D01*
X127099502Y-117692683D01*
X127099500Y-117692686D01*
X127033608Y-117806812D01*
X127010538Y-117892913D01*
X126999500Y-117934108D01*
X126999500Y-118065892D01*
X127014448Y-118121682D01*
X127021927Y-118149592D01*
X127020264Y-118219442D01*
X126981101Y-118277304D01*
X126916872Y-118304808D01*
X126902152Y-118305685D01*
X126882867Y-118305685D01*
X126755571Y-118339793D01*
X126641445Y-118405685D01*
X126641442Y-118405687D01*
X126548261Y-118498868D01*
X126548259Y-118498871D01*
X126482367Y-118612997D01*
X126448259Y-118740293D01*
X126448259Y-118872075D01*
X126449320Y-118880133D01*
X126446772Y-118880468D01*
X126445403Y-118937525D01*
X126406229Y-118995379D01*
X126359392Y-119019519D01*
X126306814Y-119033608D01*
X126306812Y-119033608D01*
X126306812Y-119033609D01*
X126192686Y-119099500D01*
X126192683Y-119099502D01*
X126099502Y-119192683D01*
X126099500Y-119192686D01*
X126033608Y-119306812D01*
X126025077Y-119338652D01*
X125999500Y-119434108D01*
X121773706Y-119434108D01*
X121766392Y-119406812D01*
X121700500Y-119292684D01*
X121607314Y-119199498D01*
X121550250Y-119166552D01*
X121493187Y-119133606D01*
X121418141Y-119113498D01*
X121365892Y-119099498D01*
X121234108Y-119099498D01*
X121106812Y-119133606D01*
X120992686Y-119199498D01*
X120992683Y-119199500D01*
X120899502Y-119292681D01*
X120899500Y-119292684D01*
X120833608Y-119406810D01*
X120805756Y-119510758D01*
X120799500Y-119534106D01*
X120102381Y-119534106D01*
X120096126Y-119510761D01*
X120040108Y-119413735D01*
X119960886Y-119334513D01*
X119863860Y-119278495D01*
X119755641Y-119249498D01*
X119643605Y-119249498D01*
X119535386Y-119278495D01*
X119535383Y-119278496D01*
X119438363Y-119334511D01*
X119438357Y-119334515D01*
X119359140Y-119413732D01*
X119359136Y-119413738D01*
X119303121Y-119510758D01*
X119303120Y-119510761D01*
X119274123Y-119618980D01*
X118299459Y-119618980D01*
X118311729Y-119597728D01*
X118345837Y-119470434D01*
X118345837Y-119338650D01*
X118311729Y-119211356D01*
X118309030Y-119206682D01*
X118301239Y-119193187D01*
X118245837Y-119097228D01*
X118152651Y-119004042D01*
X118095587Y-118971096D01*
X118038524Y-118938150D01*
X117974876Y-118921096D01*
X117911229Y-118904042D01*
X117779445Y-118904042D01*
X117652149Y-118938150D01*
X117538023Y-119004042D01*
X117538020Y-119004044D01*
X117444839Y-119097225D01*
X117444837Y-119097228D01*
X117378945Y-119211354D01*
X117363627Y-119268523D01*
X117344837Y-119338650D01*
X113369164Y-119338650D01*
X113400500Y-119307314D01*
X113466392Y-119193186D01*
X113500500Y-119065892D01*
X113500500Y-118934108D01*
X113466392Y-118806814D01*
X113400500Y-118692686D01*
X113307314Y-118599500D01*
X113250250Y-118566554D01*
X113193187Y-118533608D01*
X113129539Y-118516554D01*
X113065892Y-118499500D01*
X112934108Y-118499500D01*
X112806812Y-118533608D01*
X112692686Y-118599500D01*
X112692683Y-118599502D01*
X112599502Y-118692683D01*
X112599500Y-118692686D01*
X112533608Y-118806812D01*
X112510270Y-118893912D01*
X112499500Y-118934108D01*
X95300500Y-118934108D01*
X95300500Y-116934108D01*
X114999500Y-116934108D01*
X114999500Y-117065891D01*
X115033608Y-117193187D01*
X115066554Y-117250250D01*
X115099500Y-117307314D01*
X115192686Y-117400500D01*
X115291521Y-117457563D01*
X115306453Y-117466184D01*
X115306814Y-117466392D01*
X115434108Y-117500500D01*
X115434110Y-117500500D01*
X115565890Y-117500500D01*
X115565892Y-117500500D01*
X115693186Y-117466392D01*
X115807314Y-117400500D01*
X115900500Y-117307314D01*
X115966392Y-117193186D01*
X116000500Y-117065892D01*
X116000500Y-116934108D01*
X115966392Y-116806814D01*
X115900500Y-116692686D01*
X115807314Y-116599500D01*
X115747882Y-116565187D01*
X115693187Y-116533608D01*
X115615025Y-116512665D01*
X115565892Y-116499500D01*
X115434108Y-116499500D01*
X115306812Y-116533608D01*
X115192686Y-116599500D01*
X115192683Y-116599502D01*
X115099502Y-116692683D01*
X115099500Y-116692686D01*
X115033608Y-116806812D01*
X114999500Y-116934108D01*
X95300500Y-116934108D01*
X95300500Y-116009108D01*
X112924500Y-116009108D01*
X112924500Y-116140892D01*
X112936721Y-116186501D01*
X112958608Y-116268187D01*
X112981200Y-116307316D01*
X113024500Y-116382314D01*
X113117686Y-116475500D01*
X113182058Y-116512665D01*
X113220569Y-116534900D01*
X113231814Y-116541392D01*
X113359108Y-116575500D01*
X113359110Y-116575500D01*
X113490890Y-116575500D01*
X113490892Y-116575500D01*
X113618186Y-116541392D01*
X113732314Y-116475500D01*
X113825500Y-116382314D01*
X113891392Y-116268186D01*
X113925500Y-116140892D01*
X113925500Y-116009108D01*
X113891392Y-115881814D01*
X113825500Y-115767686D01*
X113732314Y-115674500D01*
X113618186Y-115608608D01*
X113601646Y-115604176D01*
X113532266Y-115585586D01*
X113490892Y-115574500D01*
X113359108Y-115574500D01*
X113231812Y-115608608D01*
X113117686Y-115674500D01*
X113117683Y-115674502D01*
X113024502Y-115767683D01*
X113024500Y-115767686D01*
X112958608Y-115881812D01*
X112934179Y-115972986D01*
X112924500Y-116009108D01*
X95300500Y-116009108D01*
X95300500Y-115492529D01*
X115865784Y-115492529D01*
X115865784Y-115604565D01*
X115894781Y-115712784D01*
X115950799Y-115809810D01*
X116030021Y-115889032D01*
X116127047Y-115945050D01*
X116235266Y-115974047D01*
X116235268Y-115974047D01*
X116347300Y-115974047D01*
X116347302Y-115974047D01*
X116347303Y-115974046D01*
X116355358Y-115972986D01*
X116355551Y-115974459D01*
X116416403Y-115975900D01*
X116474270Y-116015055D01*
X116498437Y-116061924D01*
X116533608Y-116193187D01*
X116566554Y-116250250D01*
X116599500Y-116307314D01*
X116692686Y-116400500D01*
X116806814Y-116466392D01*
X116934108Y-116500500D01*
X116934110Y-116500500D01*
X117065890Y-116500500D01*
X117065892Y-116500500D01*
X117193186Y-116466392D01*
X117307314Y-116400500D01*
X117400500Y-116307314D01*
X117466392Y-116193186D01*
X117500500Y-116065892D01*
X117500500Y-115934108D01*
X117466392Y-115806814D01*
X117400500Y-115692686D01*
X117307314Y-115599500D01*
X117193186Y-115533608D01*
X117065892Y-115499500D01*
X116934108Y-115499500D01*
X116934106Y-115499500D01*
X116852857Y-115521270D01*
X116783007Y-115519607D01*
X116725145Y-115480443D01*
X116701259Y-115434108D01*
X118499500Y-115434108D01*
X118499500Y-115565892D01*
X118504777Y-115585586D01*
X118533608Y-115693187D01*
X118544922Y-115712783D01*
X118599500Y-115807314D01*
X118692686Y-115900500D01*
X118806814Y-115966392D01*
X118934108Y-116000500D01*
X118934110Y-116000500D01*
X118995685Y-116000500D01*
X119062724Y-116020185D01*
X119108479Y-116072989D01*
X119118423Y-116142147D01*
X119103072Y-116186501D01*
X119099502Y-116192683D01*
X119099500Y-116192686D01*
X119069509Y-116244630D01*
X119033608Y-116306812D01*
X119033473Y-116307316D01*
X118999500Y-116434108D01*
X118999500Y-116565892D01*
X119008450Y-116599295D01*
X119033608Y-116693187D01*
X119066554Y-116750250D01*
X119099500Y-116807314D01*
X119192686Y-116900500D01*
X119306814Y-116966392D01*
X119434108Y-117000500D01*
X119441187Y-117000500D01*
X119508226Y-117020185D01*
X119553981Y-117072989D01*
X119565187Y-117124500D01*
X119565187Y-117131578D01*
X119599295Y-117258874D01*
X119627262Y-117307313D01*
X119665187Y-117373001D01*
X119758373Y-117466187D01*
X119872501Y-117532079D01*
X119999795Y-117566187D01*
X119999797Y-117566187D01*
X120131577Y-117566187D01*
X120131579Y-117566187D01*
X120258873Y-117532079D01*
X120373001Y-117466187D01*
X120466187Y-117373001D01*
X120532079Y-117258873D01*
X120566187Y-117131579D01*
X120566187Y-116999795D01*
X120532079Y-116872501D01*
X120466187Y-116758373D01*
X120373001Y-116665187D01*
X120315937Y-116632241D01*
X120258874Y-116599295D01*
X120170064Y-116575499D01*
X120131579Y-116565187D01*
X120131578Y-116565187D01*
X120124500Y-116565187D01*
X120115814Y-116562636D01*
X120106853Y-116563925D01*
X120082812Y-116552946D01*
X120057461Y-116545502D01*
X120051533Y-116538661D01*
X120043297Y-116534900D01*
X120029007Y-116512665D01*
X120011706Y-116492698D01*
X120009418Y-116482183D01*
X120005523Y-116476122D01*
X120000500Y-116441187D01*
X120000500Y-116434110D01*
X120000500Y-116434108D01*
X132999500Y-116434108D01*
X132999500Y-116565892D01*
X133008450Y-116599295D01*
X133033608Y-116693187D01*
X133066554Y-116750250D01*
X133099500Y-116807314D01*
X133192686Y-116900500D01*
X133306814Y-116966392D01*
X133434108Y-117000500D01*
X133434110Y-117000500D01*
X133565890Y-117000500D01*
X133565892Y-117000500D01*
X133693186Y-116966392D01*
X133807314Y-116900500D01*
X133900500Y-116807314D01*
X133966392Y-116693186D01*
X134000500Y-116565892D01*
X134000500Y-116434108D01*
X133966392Y-116306814D01*
X133900500Y-116192686D01*
X133807314Y-116099500D01*
X133742231Y-116061924D01*
X133693187Y-116033608D01*
X133601757Y-116009110D01*
X133565892Y-115999500D01*
X133434108Y-115999500D01*
X133306812Y-116033608D01*
X133192686Y-116099500D01*
X133192683Y-116099502D01*
X133099502Y-116192683D01*
X133099500Y-116192686D01*
X133033608Y-116306812D01*
X133033473Y-116307316D01*
X132999500Y-116434108D01*
X120000500Y-116434108D01*
X119966392Y-116306814D01*
X119900500Y-116192686D01*
X119807314Y-116099500D01*
X119742231Y-116061924D01*
X119693187Y-116033608D01*
X119601757Y-116009110D01*
X119565892Y-115999500D01*
X119504315Y-115999500D01*
X119437276Y-115979815D01*
X119391521Y-115927011D01*
X119381577Y-115857853D01*
X119396928Y-115813499D01*
X119400497Y-115807316D01*
X119400500Y-115807314D01*
X119466392Y-115693186D01*
X119500500Y-115565892D01*
X119500500Y-115434108D01*
X119466392Y-115306814D01*
X119400500Y-115192686D01*
X119307314Y-115099500D01*
X119193186Y-115033608D01*
X119065892Y-114999500D01*
X118934108Y-114999500D01*
X118806812Y-115033608D01*
X118692686Y-115099500D01*
X118692683Y-115099502D01*
X118599502Y-115192683D01*
X118599500Y-115192686D01*
X118533608Y-115306812D01*
X118533473Y-115307316D01*
X118499500Y-115434108D01*
X116701259Y-115434108D01*
X116700991Y-115433589D01*
X116687787Y-115384310D01*
X116631769Y-115287284D01*
X116552547Y-115208062D01*
X116455521Y-115152044D01*
X116347302Y-115123047D01*
X116235266Y-115123047D01*
X116127047Y-115152044D01*
X116127044Y-115152045D01*
X116030024Y-115208060D01*
X116030018Y-115208064D01*
X115950801Y-115287281D01*
X115950797Y-115287287D01*
X115894782Y-115384307D01*
X115894781Y-115384310D01*
X115865784Y-115492529D01*
X95300500Y-115492529D01*
X95300500Y-114934108D01*
X124499500Y-114934108D01*
X124499500Y-115065892D01*
X124516554Y-115129539D01*
X124533608Y-115193187D01*
X124566554Y-115250250D01*
X124599500Y-115307314D01*
X124692686Y-115400500D01*
X124806814Y-115466392D01*
X124934108Y-115500500D01*
X124934110Y-115500500D01*
X125065890Y-115500500D01*
X125065892Y-115500500D01*
X125193186Y-115466392D01*
X125307314Y-115400500D01*
X125400500Y-115307314D01*
X125466392Y-115193186D01*
X125500500Y-115065892D01*
X125500500Y-114934108D01*
X125466392Y-114806814D01*
X125400500Y-114692686D01*
X125307314Y-114599500D01*
X125193186Y-114533608D01*
X125065892Y-114499500D01*
X124934108Y-114499500D01*
X124806812Y-114533608D01*
X124692686Y-114599500D01*
X124692683Y-114599502D01*
X124599502Y-114692683D01*
X124599500Y-114692686D01*
X124533608Y-114806812D01*
X124533473Y-114807316D01*
X124499500Y-114934108D01*
X95300500Y-114934108D01*
X95300500Y-114434108D01*
X132499500Y-114434108D01*
X132499500Y-114565891D01*
X132533608Y-114693187D01*
X132566554Y-114750250D01*
X132599500Y-114807314D01*
X132692686Y-114900500D01*
X132806814Y-114966392D01*
X132934108Y-115000500D01*
X132934110Y-115000500D01*
X133065890Y-115000500D01*
X133065892Y-115000500D01*
X133193186Y-114966392D01*
X133307314Y-114900500D01*
X133400500Y-114807314D01*
X133466392Y-114693186D01*
X133500500Y-114565892D01*
X133500500Y-114434108D01*
X133466392Y-114306814D01*
X133400500Y-114192686D01*
X133307314Y-114099500D01*
X133193186Y-114033608D01*
X133065892Y-113999500D01*
X132934108Y-113999500D01*
X132806812Y-114033608D01*
X132692686Y-114099500D01*
X132692683Y-114099502D01*
X132599502Y-114192683D01*
X132599500Y-114192686D01*
X132533608Y-114306812D01*
X132499500Y-114434108D01*
X95300500Y-114434108D01*
X95300500Y-113509108D01*
X109499500Y-113509108D01*
X109499500Y-113640891D01*
X109533608Y-113768187D01*
X109555909Y-113806812D01*
X109599500Y-113882314D01*
X109692686Y-113975500D01*
X109806814Y-114041392D01*
X109934108Y-114075500D01*
X109934110Y-114075500D01*
X110065890Y-114075500D01*
X110065892Y-114075500D01*
X110193186Y-114041392D01*
X110307314Y-113975500D01*
X110348706Y-113934108D01*
X135999500Y-113934108D01*
X135999500Y-114065892D01*
X136008505Y-114099498D01*
X136033608Y-114193187D01*
X136066554Y-114250250D01*
X136099500Y-114307314D01*
X136192686Y-114400500D01*
X136306814Y-114466392D01*
X136434108Y-114500500D01*
X136434110Y-114500500D01*
X136565890Y-114500500D01*
X136565892Y-114500500D01*
X136693186Y-114466392D01*
X136807314Y-114400500D01*
X136900500Y-114307314D01*
X136966392Y-114193186D01*
X137000500Y-114065892D01*
X137000500Y-113934108D01*
X136966392Y-113806814D01*
X136900500Y-113692686D01*
X136807314Y-113599500D01*
X136750250Y-113566554D01*
X136693187Y-113533608D01*
X136601757Y-113509110D01*
X136565892Y-113499500D01*
X136434108Y-113499500D01*
X136306812Y-113533608D01*
X136192686Y-113599500D01*
X136192683Y-113599502D01*
X136099502Y-113692683D01*
X136099500Y-113692686D01*
X136033608Y-113806812D01*
X136013378Y-113882313D01*
X135999500Y-113934108D01*
X110348706Y-113934108D01*
X110400500Y-113882314D01*
X110466392Y-113768186D01*
X110500500Y-113640892D01*
X110500500Y-113509108D01*
X110466392Y-113381814D01*
X110400500Y-113267686D01*
X110307314Y-113174500D01*
X110250250Y-113141554D01*
X110193187Y-113108608D01*
X110129539Y-113091554D01*
X110065892Y-113074500D01*
X109934108Y-113074500D01*
X109806812Y-113108608D01*
X109692686Y-113174500D01*
X109692683Y-113174502D01*
X109599502Y-113267683D01*
X109599500Y-113267686D01*
X109533608Y-113381812D01*
X109499500Y-113509108D01*
X95300500Y-113509108D01*
X95300500Y-111896530D01*
X95949500Y-111896530D01*
X95949500Y-112103469D01*
X95989868Y-112306412D01*
X95989870Y-112306420D01*
X96056132Y-112466391D01*
X96069059Y-112497598D01*
X96104406Y-112550499D01*
X96184024Y-112669657D01*
X96330342Y-112815975D01*
X96330345Y-112815977D01*
X96502402Y-112930941D01*
X96693580Y-113010130D01*
X96896530Y-113050499D01*
X96896534Y-113050500D01*
X96896535Y-113050500D01*
X97103466Y-113050500D01*
X97103467Y-113050499D01*
X97306420Y-113010130D01*
X97497598Y-112930941D01*
X97669655Y-112815977D01*
X97815977Y-112669655D01*
X97930941Y-112497598D01*
X98010130Y-112306420D01*
X98050500Y-112103465D01*
X98050500Y-111896535D01*
X98050499Y-111896530D01*
X98489500Y-111896530D01*
X98489500Y-112103469D01*
X98529868Y-112306412D01*
X98529870Y-112306420D01*
X98596132Y-112466391D01*
X98609059Y-112497598D01*
X98644406Y-112550499D01*
X98724024Y-112669657D01*
X98870342Y-112815975D01*
X98870345Y-112815977D01*
X99042402Y-112930941D01*
X99233580Y-113010130D01*
X99436530Y-113050499D01*
X99436534Y-113050500D01*
X99436535Y-113050500D01*
X99643466Y-113050500D01*
X99643467Y-113050499D01*
X99846420Y-113010130D01*
X100037598Y-112930941D01*
X100209655Y-112815977D01*
X100341524Y-112684108D01*
X106249500Y-112684108D01*
X106249500Y-112815892D01*
X106249523Y-112815977D01*
X106283608Y-112943187D01*
X106297005Y-112966391D01*
X106349500Y-113057314D01*
X106442686Y-113150500D01*
X106556814Y-113216392D01*
X106684108Y-113250500D01*
X106684110Y-113250500D01*
X106815890Y-113250500D01*
X106815892Y-113250500D01*
X106943186Y-113216392D01*
X107057314Y-113150500D01*
X107150500Y-113057314D01*
X107216392Y-112943186D01*
X107250500Y-112815892D01*
X107250500Y-112684108D01*
X107216392Y-112556814D01*
X107150500Y-112442686D01*
X107141922Y-112434108D01*
X116424500Y-112434108D01*
X116424500Y-112565891D01*
X116458608Y-112693187D01*
X116491554Y-112750250D01*
X116524500Y-112807314D01*
X116617686Y-112900500D01*
X116731814Y-112966392D01*
X116859108Y-113000500D01*
X116859110Y-113000500D01*
X116990890Y-113000500D01*
X116990892Y-113000500D01*
X117118186Y-112966392D01*
X117232314Y-112900500D01*
X117325500Y-112807314D01*
X117391392Y-112693186D01*
X117425500Y-112565892D01*
X117425500Y-112434108D01*
X117391392Y-112306814D01*
X117325500Y-112192686D01*
X117232314Y-112099500D01*
X117118186Y-112033608D01*
X116990892Y-111999500D01*
X116859108Y-111999500D01*
X116731812Y-112033608D01*
X116617686Y-112099500D01*
X116617683Y-112099502D01*
X116524502Y-112192683D01*
X116524500Y-112192686D01*
X116458608Y-112306812D01*
X116424500Y-112434108D01*
X107141922Y-112434108D01*
X107057314Y-112349500D01*
X106999247Y-112315975D01*
X106943187Y-112283608D01*
X106879539Y-112266554D01*
X106815892Y-112249500D01*
X106684108Y-112249500D01*
X106556812Y-112283608D01*
X106442686Y-112349500D01*
X106442683Y-112349502D01*
X106349502Y-112442683D01*
X106349500Y-112442686D01*
X106283608Y-112556812D01*
X106253373Y-112669654D01*
X106249500Y-112684108D01*
X100341524Y-112684108D01*
X100355977Y-112669655D01*
X100376411Y-112639071D01*
X100397782Y-112607090D01*
X100435594Y-112550499D01*
X100470941Y-112497598D01*
X100550130Y-112306420D01*
X100590500Y-112103465D01*
X100590500Y-111896535D01*
X100550130Y-111693580D01*
X100470941Y-111502402D01*
X100425308Y-111434108D01*
X111499500Y-111434108D01*
X111499500Y-111565891D01*
X111533608Y-111693187D01*
X111566554Y-111750250D01*
X111599500Y-111807314D01*
X111692686Y-111900500D01*
X111806814Y-111966392D01*
X111934108Y-112000500D01*
X111934110Y-112000500D01*
X112065890Y-112000500D01*
X112065892Y-112000500D01*
X112193186Y-111966392D01*
X112249103Y-111934108D01*
X133499500Y-111934108D01*
X133499500Y-112065891D01*
X133533608Y-112193187D01*
X133566121Y-112249500D01*
X133599500Y-112307314D01*
X133692686Y-112400500D01*
X133806814Y-112466392D01*
X133934108Y-112500500D01*
X133934110Y-112500500D01*
X134065890Y-112500500D01*
X134065892Y-112500500D01*
X134193186Y-112466392D01*
X134307314Y-112400500D01*
X134400500Y-112307314D01*
X134466392Y-112193186D01*
X134500500Y-112065892D01*
X134500500Y-111934108D01*
X134466392Y-111806814D01*
X134400500Y-111692686D01*
X134307314Y-111599500D01*
X134249100Y-111565890D01*
X134193187Y-111533608D01*
X134158284Y-111524256D01*
X134065892Y-111499500D01*
X133934108Y-111499500D01*
X133806812Y-111533608D01*
X133692686Y-111599500D01*
X133692683Y-111599502D01*
X133599502Y-111692683D01*
X133599500Y-111692686D01*
X133533608Y-111806812D01*
X133499500Y-111934108D01*
X112249103Y-111934108D01*
X112307314Y-111900500D01*
X112400500Y-111807314D01*
X112466392Y-111693186D01*
X112500500Y-111565892D01*
X112500500Y-111434108D01*
X112490431Y-111396530D01*
X138949500Y-111396530D01*
X138949500Y-111603469D01*
X138989868Y-111806412D01*
X138989870Y-111806420D01*
X139056132Y-111966391D01*
X139069059Y-111997598D01*
X139070998Y-112000500D01*
X139184024Y-112169657D01*
X139330342Y-112315975D01*
X139330345Y-112315977D01*
X139502402Y-112430941D01*
X139693580Y-112510130D01*
X139896530Y-112550499D01*
X139896534Y-112550500D01*
X139896535Y-112550500D01*
X140103466Y-112550500D01*
X140103467Y-112550499D01*
X140306420Y-112510130D01*
X140497598Y-112430941D01*
X140669655Y-112315977D01*
X140815977Y-112169655D01*
X140930941Y-111997598D01*
X141010130Y-111806420D01*
X141050500Y-111603465D01*
X141050500Y-111396535D01*
X141050499Y-111396530D01*
X141489500Y-111396530D01*
X141489500Y-111603469D01*
X141529868Y-111806412D01*
X141529870Y-111806420D01*
X141596132Y-111966391D01*
X141609059Y-111997598D01*
X141610998Y-112000500D01*
X141724024Y-112169657D01*
X141870342Y-112315975D01*
X141870345Y-112315977D01*
X142042402Y-112430941D01*
X142233580Y-112510130D01*
X142436530Y-112550499D01*
X142436534Y-112550500D01*
X142436535Y-112550500D01*
X142643466Y-112550500D01*
X142643467Y-112550499D01*
X142846420Y-112510130D01*
X143037598Y-112430941D01*
X143209655Y-112315977D01*
X143355977Y-112169655D01*
X143470941Y-111997598D01*
X143550130Y-111806420D01*
X143590500Y-111603465D01*
X143590500Y-111396535D01*
X143550130Y-111193580D01*
X143470941Y-111002402D01*
X143355977Y-110830345D01*
X143355975Y-110830342D01*
X143209657Y-110684024D01*
X143123626Y-110626541D01*
X143037598Y-110569059D01*
X143029952Y-110565892D01*
X142846420Y-110489870D01*
X142846412Y-110489868D01*
X142643469Y-110449500D01*
X142643465Y-110449500D01*
X142436535Y-110449500D01*
X142436530Y-110449500D01*
X142233587Y-110489868D01*
X142233579Y-110489870D01*
X142042403Y-110569058D01*
X141870342Y-110684024D01*
X141724024Y-110830342D01*
X141609058Y-111002403D01*
X141529870Y-111193579D01*
X141529868Y-111193587D01*
X141489500Y-111396530D01*
X141050499Y-111396530D01*
X141010130Y-111193580D01*
X140930941Y-111002402D01*
X140815977Y-110830345D01*
X140815975Y-110830342D01*
X140669657Y-110684024D01*
X140583626Y-110626541D01*
X140497598Y-110569059D01*
X140489952Y-110565892D01*
X140306420Y-110489870D01*
X140306412Y-110489868D01*
X140103469Y-110449500D01*
X140103465Y-110449500D01*
X139896535Y-110449500D01*
X139896530Y-110449500D01*
X139693587Y-110489868D01*
X139693579Y-110489870D01*
X139502403Y-110569058D01*
X139330342Y-110684024D01*
X139184024Y-110830342D01*
X139069058Y-111002403D01*
X138989870Y-111193579D01*
X138989868Y-111193587D01*
X138949500Y-111396530D01*
X112490431Y-111396530D01*
X112466392Y-111306814D01*
X112400500Y-111192686D01*
X112307314Y-111099500D01*
X112250250Y-111066554D01*
X112193187Y-111033608D01*
X112129539Y-111016554D01*
X112065892Y-110999500D01*
X111934108Y-110999500D01*
X111806812Y-111033608D01*
X111692686Y-111099500D01*
X111692683Y-111099502D01*
X111599502Y-111192683D01*
X111599500Y-111192686D01*
X111533608Y-111306812D01*
X111499500Y-111434108D01*
X100425308Y-111434108D01*
X100400203Y-111396535D01*
X100355980Y-111330349D01*
X100355974Y-111330341D01*
X100209657Y-111184024D01*
X100083156Y-111099500D01*
X100037598Y-111069059D01*
X99846420Y-110989870D01*
X99846412Y-110989868D01*
X99643469Y-110949500D01*
X99643465Y-110949500D01*
X99436535Y-110949500D01*
X99436530Y-110949500D01*
X99233587Y-110989868D01*
X99233579Y-110989870D01*
X99042403Y-111069058D01*
X98870342Y-111184024D01*
X98724024Y-111330342D01*
X98609058Y-111502403D01*
X98529870Y-111693579D01*
X98529868Y-111693587D01*
X98489500Y-111896530D01*
X98050499Y-111896530D01*
X98010130Y-111693580D01*
X97930941Y-111502402D01*
X97815977Y-111330345D01*
X97815975Y-111330342D01*
X97669657Y-111184024D01*
X97543156Y-111099500D01*
X97497598Y-111069059D01*
X97306420Y-110989870D01*
X97306412Y-110989868D01*
X97103469Y-110949500D01*
X97103465Y-110949500D01*
X96896535Y-110949500D01*
X96896530Y-110949500D01*
X96693587Y-110989868D01*
X96693579Y-110989870D01*
X96502403Y-111069058D01*
X96330342Y-111184024D01*
X96184024Y-111330342D01*
X96069058Y-111502403D01*
X95989870Y-111693579D01*
X95989868Y-111693587D01*
X95949500Y-111896530D01*
X95300500Y-111896530D01*
X95300500Y-108590247D01*
X95949500Y-108590247D01*
X95949500Y-110329752D01*
X95961131Y-110388229D01*
X95961132Y-110388230D01*
X96005447Y-110454552D01*
X96071769Y-110498867D01*
X96071770Y-110498868D01*
X96130247Y-110510499D01*
X96130250Y-110510500D01*
X96130252Y-110510500D01*
X97869750Y-110510500D01*
X97869751Y-110510499D01*
X97884568Y-110507552D01*
X97928229Y-110498868D01*
X97928229Y-110498867D01*
X97928231Y-110498867D01*
X97994552Y-110454552D01*
X98038867Y-110388231D01*
X98038867Y-110388229D01*
X98038868Y-110388229D01*
X98050499Y-110329752D01*
X98050500Y-110329750D01*
X98050500Y-109356530D01*
X98489500Y-109356530D01*
X98489500Y-109563469D01*
X98529868Y-109766412D01*
X98529870Y-109766420D01*
X98581448Y-109890941D01*
X98609059Y-109957598D01*
X98636634Y-109998867D01*
X98724024Y-110129657D01*
X98870342Y-110275975D01*
X98870345Y-110275977D01*
X99042402Y-110390941D01*
X99233580Y-110470130D01*
X99436530Y-110510499D01*
X99436534Y-110510500D01*
X99436535Y-110510500D01*
X99643466Y-110510500D01*
X99643467Y-110510499D01*
X99846420Y-110470130D01*
X99933384Y-110434108D01*
X110499500Y-110434108D01*
X110499500Y-110565892D01*
X110500349Y-110569059D01*
X110533608Y-110693187D01*
X110566554Y-110750250D01*
X110599500Y-110807314D01*
X110692686Y-110900500D01*
X110806814Y-110966392D01*
X110934108Y-111000500D01*
X110934110Y-111000500D01*
X111065890Y-111000500D01*
X111065892Y-111000500D01*
X111193186Y-110966392D01*
X111307314Y-110900500D01*
X111400500Y-110807314D01*
X111466392Y-110693186D01*
X111500500Y-110565892D01*
X111500500Y-110434108D01*
X111466392Y-110306814D01*
X111400500Y-110192686D01*
X111307314Y-110099500D01*
X111249100Y-110065890D01*
X111193187Y-110033608D01*
X111101951Y-110009162D01*
X111065892Y-109999500D01*
X110934108Y-109999500D01*
X110806812Y-110033608D01*
X110692686Y-110099500D01*
X110692683Y-110099502D01*
X110599502Y-110192683D01*
X110599500Y-110192686D01*
X110533608Y-110306812D01*
X110511066Y-110390941D01*
X110499500Y-110434108D01*
X99933384Y-110434108D01*
X100037598Y-110390941D01*
X100209655Y-110275977D01*
X100355977Y-110129655D01*
X100470941Y-109957598D01*
X100550130Y-109766420D01*
X100590500Y-109563465D01*
X100590500Y-109434108D01*
X103999500Y-109434108D01*
X103999500Y-109565891D01*
X104033608Y-109693187D01*
X104066554Y-109750250D01*
X104099500Y-109807314D01*
X104192686Y-109900500D01*
X104306814Y-109966392D01*
X104434108Y-110000500D01*
X104434110Y-110000500D01*
X104565890Y-110000500D01*
X104565892Y-110000500D01*
X104693186Y-109966392D01*
X104807314Y-109900500D01*
X104900500Y-109807314D01*
X104966392Y-109693186D01*
X105000500Y-109565892D01*
X105000500Y-109542770D01*
X112210605Y-109542770D01*
X112210605Y-109674554D01*
X112215598Y-109693187D01*
X112244713Y-109801849D01*
X112260821Y-109829748D01*
X112310605Y-109915976D01*
X112403791Y-110009162D01*
X112517919Y-110075054D01*
X112645213Y-110109162D01*
X112645215Y-110109162D01*
X112776995Y-110109162D01*
X112776997Y-110109162D01*
X112904291Y-110075054D01*
X113018419Y-110009162D01*
X113093473Y-109934108D01*
X118999500Y-109934108D01*
X118999500Y-110065891D01*
X119033608Y-110193187D01*
X119066554Y-110250250D01*
X119099500Y-110307314D01*
X119192686Y-110400500D01*
X119306814Y-110466392D01*
X119434108Y-110500500D01*
X119434110Y-110500500D01*
X119565890Y-110500500D01*
X119565892Y-110500500D01*
X119693186Y-110466392D01*
X119749103Y-110434108D01*
X125499500Y-110434108D01*
X125499500Y-110565892D01*
X125500349Y-110569059D01*
X125533608Y-110693187D01*
X125566554Y-110750250D01*
X125599500Y-110807314D01*
X125692686Y-110900500D01*
X125806814Y-110966392D01*
X125934108Y-111000500D01*
X125934110Y-111000500D01*
X126065890Y-111000500D01*
X126065892Y-111000500D01*
X126193186Y-110966392D01*
X126307314Y-110900500D01*
X126400500Y-110807314D01*
X126466392Y-110693186D01*
X126500500Y-110565892D01*
X126500500Y-110434108D01*
X127499500Y-110434108D01*
X127499500Y-110565892D01*
X127500349Y-110569059D01*
X127533608Y-110693187D01*
X127566554Y-110750250D01*
X127599500Y-110807314D01*
X127692686Y-110900500D01*
X127806814Y-110966392D01*
X127934108Y-111000500D01*
X127934110Y-111000500D01*
X128065890Y-111000500D01*
X128065892Y-111000500D01*
X128193186Y-110966392D01*
X128307314Y-110900500D01*
X128400500Y-110807314D01*
X128466392Y-110693186D01*
X128500500Y-110565892D01*
X128500500Y-110434108D01*
X128466392Y-110306814D01*
X128400500Y-110192686D01*
X128307314Y-110099500D01*
X128249100Y-110065890D01*
X128193187Y-110033608D01*
X128101951Y-110009162D01*
X128065892Y-109999500D01*
X127934108Y-109999500D01*
X127806812Y-110033608D01*
X127692686Y-110099500D01*
X127692683Y-110099502D01*
X127599502Y-110192683D01*
X127599500Y-110192686D01*
X127533608Y-110306812D01*
X127511066Y-110390941D01*
X127499500Y-110434108D01*
X126500500Y-110434108D01*
X126466392Y-110306814D01*
X126400500Y-110192686D01*
X126307314Y-110099500D01*
X126249100Y-110065890D01*
X126193187Y-110033608D01*
X126101951Y-110009162D01*
X126065892Y-109999500D01*
X125934108Y-109999500D01*
X125806812Y-110033608D01*
X125692686Y-110099500D01*
X125692683Y-110099502D01*
X125599502Y-110192683D01*
X125599500Y-110192686D01*
X125533608Y-110306812D01*
X125511066Y-110390941D01*
X125499500Y-110434108D01*
X119749103Y-110434108D01*
X119807314Y-110400500D01*
X119900500Y-110307314D01*
X119966392Y-110193186D01*
X120000500Y-110065892D01*
X120000500Y-109934108D01*
X119966392Y-109806814D01*
X119963525Y-109801849D01*
X119943066Y-109766412D01*
X119900500Y-109692686D01*
X119807314Y-109599500D01*
X119744907Y-109563469D01*
X119693187Y-109533608D01*
X119629539Y-109516554D01*
X119565892Y-109499500D01*
X119434108Y-109499500D01*
X119306812Y-109533608D01*
X119192686Y-109599500D01*
X119192683Y-109599502D01*
X119099502Y-109692683D01*
X119099500Y-109692686D01*
X119033608Y-109806812D01*
X118999500Y-109934108D01*
X113093473Y-109934108D01*
X113111605Y-109915976D01*
X113177497Y-109801848D01*
X113211605Y-109674554D01*
X113211605Y-109542770D01*
X113177497Y-109415476D01*
X113111605Y-109301348D01*
X113018419Y-109208162D01*
X112923893Y-109153587D01*
X112904292Y-109142270D01*
X112840644Y-109125216D01*
X112776997Y-109108162D01*
X112645213Y-109108162D01*
X112517917Y-109142270D01*
X112403791Y-109208162D01*
X112403788Y-109208164D01*
X112310607Y-109301345D01*
X112310605Y-109301348D01*
X112244713Y-109415474D01*
X112222199Y-109499500D01*
X112210605Y-109542770D01*
X105000500Y-109542770D01*
X105000500Y-109434108D01*
X104966392Y-109306814D01*
X104963234Y-109301345D01*
X104943066Y-109266412D01*
X104900500Y-109192686D01*
X104807314Y-109099500D01*
X104744907Y-109063469D01*
X104693187Y-109033608D01*
X104629539Y-109016554D01*
X104565892Y-108999500D01*
X104434108Y-108999500D01*
X104306812Y-109033608D01*
X104192686Y-109099500D01*
X104192683Y-109099502D01*
X104099502Y-109192683D01*
X104099500Y-109192686D01*
X104033608Y-109306812D01*
X103999500Y-109434108D01*
X100590500Y-109434108D01*
X100590500Y-109356535D01*
X100550130Y-109153580D01*
X100470941Y-108962402D01*
X100355977Y-108790345D01*
X100355975Y-108790342D01*
X100209657Y-108644024D01*
X100041655Y-108531770D01*
X100037598Y-108529059D01*
X99846420Y-108449870D01*
X99846412Y-108449868D01*
X99643469Y-108409500D01*
X99643465Y-108409500D01*
X99436535Y-108409500D01*
X99436530Y-108409500D01*
X99233587Y-108449868D01*
X99233579Y-108449870D01*
X99042403Y-108529058D01*
X98870342Y-108644024D01*
X98724024Y-108790342D01*
X98609058Y-108962403D01*
X98529870Y-109153579D01*
X98529868Y-109153587D01*
X98489500Y-109356530D01*
X98050500Y-109356530D01*
X98050500Y-108590249D01*
X98050499Y-108590247D01*
X98038868Y-108531770D01*
X98038867Y-108531769D01*
X97994552Y-108465447D01*
X97928230Y-108421132D01*
X97928229Y-108421131D01*
X97869752Y-108409500D01*
X97869748Y-108409500D01*
X96130252Y-108409500D01*
X96130247Y-108409500D01*
X96071770Y-108421131D01*
X96071769Y-108421132D01*
X96005447Y-108465447D01*
X95961132Y-108531769D01*
X95961131Y-108531770D01*
X95949500Y-108590247D01*
X95300500Y-108590247D01*
X95300500Y-108090247D01*
X138949500Y-108090247D01*
X138949500Y-109829752D01*
X138961131Y-109888229D01*
X138961132Y-109888230D01*
X139005447Y-109954552D01*
X139071769Y-109998867D01*
X139071770Y-109998868D01*
X139130247Y-110010499D01*
X139130250Y-110010500D01*
X139130252Y-110010500D01*
X140869750Y-110010500D01*
X140869751Y-110010499D01*
X140884568Y-110007552D01*
X140928229Y-109998868D01*
X140928229Y-109998867D01*
X140928231Y-109998867D01*
X140994552Y-109954552D01*
X141038867Y-109888231D01*
X141038867Y-109888229D01*
X141038868Y-109888229D01*
X141050499Y-109829752D01*
X141050500Y-109829750D01*
X141050500Y-108856530D01*
X141489500Y-108856530D01*
X141489500Y-109063469D01*
X141529868Y-109266412D01*
X141529870Y-109266420D01*
X141609058Y-109457596D01*
X141724024Y-109629657D01*
X141870342Y-109775975D01*
X141870345Y-109775977D01*
X142042402Y-109890941D01*
X142233580Y-109970130D01*
X142429793Y-110009159D01*
X142436530Y-110010499D01*
X142436534Y-110010500D01*
X142436535Y-110010500D01*
X142643466Y-110010500D01*
X142643467Y-110010499D01*
X142846420Y-109970130D01*
X143037598Y-109890941D01*
X143209655Y-109775977D01*
X143355977Y-109629655D01*
X143470941Y-109457598D01*
X143550130Y-109266420D01*
X143590500Y-109063465D01*
X143590500Y-108856535D01*
X143550130Y-108653580D01*
X143470941Y-108462402D01*
X143355977Y-108290345D01*
X143355975Y-108290342D01*
X143209657Y-108144024D01*
X143041655Y-108031770D01*
X143037598Y-108029059D01*
X142846420Y-107949870D01*
X142846412Y-107949868D01*
X142643469Y-107909500D01*
X142643465Y-107909500D01*
X142436535Y-107909500D01*
X142436530Y-107909500D01*
X142233587Y-107949868D01*
X142233579Y-107949870D01*
X142042403Y-108029058D01*
X141870342Y-108144024D01*
X141724024Y-108290342D01*
X141609058Y-108462403D01*
X141529870Y-108653579D01*
X141529868Y-108653587D01*
X141489500Y-108856530D01*
X141050500Y-108856530D01*
X141050500Y-108090249D01*
X141050499Y-108090247D01*
X141038868Y-108031770D01*
X141038867Y-108031769D01*
X140994552Y-107965447D01*
X140928230Y-107921132D01*
X140928229Y-107921131D01*
X140869752Y-107909500D01*
X140869748Y-107909500D01*
X139130252Y-107909500D01*
X139130247Y-107909500D01*
X139071770Y-107921131D01*
X139071769Y-107921132D01*
X139005447Y-107965447D01*
X138961132Y-108031769D01*
X138961131Y-108031770D01*
X138949500Y-108090247D01*
X95300500Y-108090247D01*
X95300500Y-105934108D01*
X116499500Y-105934108D01*
X116499500Y-106065891D01*
X116533608Y-106193187D01*
X116566554Y-106250250D01*
X116599500Y-106307314D01*
X116692686Y-106400500D01*
X116806814Y-106466392D01*
X116934108Y-106500500D01*
X116934110Y-106500500D01*
X117065890Y-106500500D01*
X117065892Y-106500500D01*
X117193186Y-106466392D01*
X117249103Y-106434108D01*
X122499500Y-106434108D01*
X122499500Y-106565891D01*
X122533608Y-106693187D01*
X122566554Y-106750250D01*
X122599500Y-106807314D01*
X122692686Y-106900500D01*
X122806814Y-106966392D01*
X122934108Y-107000500D01*
X122934110Y-107000500D01*
X123065890Y-107000500D01*
X123065892Y-107000500D01*
X123193186Y-106966392D01*
X123307314Y-106900500D01*
X123400500Y-106807314D01*
X123466392Y-106693186D01*
X123500500Y-106565892D01*
X123500500Y-106434108D01*
X123466392Y-106306814D01*
X123400500Y-106192686D01*
X123307314Y-106099500D01*
X123249100Y-106065890D01*
X123193187Y-106033608D01*
X123129539Y-106016554D01*
X123065892Y-105999500D01*
X122934108Y-105999500D01*
X122806812Y-106033608D01*
X122692686Y-106099500D01*
X122692683Y-106099502D01*
X122599502Y-106192683D01*
X122599500Y-106192686D01*
X122533608Y-106306812D01*
X122499500Y-106434108D01*
X117249103Y-106434108D01*
X117307314Y-106400500D01*
X117400500Y-106307314D01*
X117466392Y-106193186D01*
X117500500Y-106065892D01*
X117500500Y-105934108D01*
X117466392Y-105806814D01*
X117400500Y-105692686D01*
X117307314Y-105599500D01*
X117250250Y-105566554D01*
X117193187Y-105533608D01*
X117129539Y-105516554D01*
X117065892Y-105499500D01*
X116934108Y-105499500D01*
X116806812Y-105533608D01*
X116692686Y-105599500D01*
X116692683Y-105599502D01*
X116599502Y-105692683D01*
X116599500Y-105692686D01*
X116533608Y-105806812D01*
X116499500Y-105934108D01*
X95300500Y-105934108D01*
X95300500Y-104434108D01*
X103499500Y-104434108D01*
X103499500Y-104565891D01*
X103533608Y-104693187D01*
X103566554Y-104750250D01*
X103599500Y-104807314D01*
X103692686Y-104900500D01*
X103806814Y-104966392D01*
X103934108Y-105000500D01*
X103934110Y-105000500D01*
X104065890Y-105000500D01*
X104065892Y-105000500D01*
X104193186Y-104966392D01*
X104249103Y-104934108D01*
X112499500Y-104934108D01*
X112499500Y-105065891D01*
X112533608Y-105193187D01*
X112566554Y-105250250D01*
X112599500Y-105307314D01*
X112692686Y-105400500D01*
X112806814Y-105466392D01*
X112934108Y-105500500D01*
X112934110Y-105500500D01*
X113065890Y-105500500D01*
X113065892Y-105500500D01*
X113193186Y-105466392D01*
X113307314Y-105400500D01*
X113400500Y-105307314D01*
X113466392Y-105193186D01*
X113500500Y-105065892D01*
X113500500Y-104934108D01*
X113466392Y-104806814D01*
X113400500Y-104692686D01*
X113307314Y-104599500D01*
X113193186Y-104533608D01*
X113065892Y-104499500D01*
X112934108Y-104499500D01*
X112806812Y-104533608D01*
X112692686Y-104599500D01*
X112692683Y-104599502D01*
X112599502Y-104692683D01*
X112599500Y-104692686D01*
X112533608Y-104806812D01*
X112499500Y-104934108D01*
X104249103Y-104934108D01*
X104307314Y-104900500D01*
X104400500Y-104807314D01*
X104466392Y-104693186D01*
X104500500Y-104565892D01*
X104500500Y-104434108D01*
X116499500Y-104434108D01*
X116499500Y-104565891D01*
X116533608Y-104693187D01*
X116566554Y-104750250D01*
X116599500Y-104807314D01*
X116692686Y-104900500D01*
X116806814Y-104966392D01*
X116934108Y-105000500D01*
X116934110Y-105000500D01*
X117065890Y-105000500D01*
X117065892Y-105000500D01*
X117193186Y-104966392D01*
X117249103Y-104934108D01*
X133999500Y-104934108D01*
X133999500Y-105065891D01*
X134033608Y-105193187D01*
X134066554Y-105250250D01*
X134099500Y-105307314D01*
X134192686Y-105400500D01*
X134306814Y-105466392D01*
X134434108Y-105500500D01*
X134434110Y-105500500D01*
X134565890Y-105500500D01*
X134565892Y-105500500D01*
X134693186Y-105466392D01*
X134807314Y-105400500D01*
X134900500Y-105307314D01*
X134966392Y-105193186D01*
X135000500Y-105065892D01*
X135000500Y-104934108D01*
X134966392Y-104806814D01*
X134900500Y-104692686D01*
X134807314Y-104599500D01*
X134749100Y-104565890D01*
X134693187Y-104533608D01*
X134629539Y-104516554D01*
X134565892Y-104499500D01*
X134434108Y-104499500D01*
X134306812Y-104533608D01*
X134192686Y-104599500D01*
X134192683Y-104599502D01*
X134099502Y-104692683D01*
X134099500Y-104692686D01*
X134033608Y-104806812D01*
X133999500Y-104934108D01*
X117249103Y-104934108D01*
X117307314Y-104900500D01*
X117400500Y-104807314D01*
X117466392Y-104693186D01*
X117500500Y-104565892D01*
X117500500Y-104434108D01*
X117466392Y-104306814D01*
X117400500Y-104192686D01*
X117307314Y-104099500D01*
X117263371Y-104074129D01*
X117205531Y-104040735D01*
X117205529Y-104040734D01*
X117193186Y-104033608D01*
X117065892Y-103999500D01*
X117065851Y-103999500D01*
X117063954Y-103998940D01*
X117035860Y-103980827D01*
X117007308Y-103963424D01*
X117006597Y-103961960D01*
X117005231Y-103961080D01*
X117000190Y-103949999D01*
X116973969Y-103981758D01*
X116936559Y-103998843D01*
X116889653Y-104011411D01*
X116806814Y-104033608D01*
X116806812Y-104033608D01*
X116806812Y-104033609D01*
X116692686Y-104099500D01*
X116692683Y-104099502D01*
X116599502Y-104192683D01*
X116599500Y-104192686D01*
X116533608Y-104306812D01*
X116499500Y-104434108D01*
X104500500Y-104434108D01*
X104466392Y-104306814D01*
X104400500Y-104192686D01*
X104307314Y-104099500D01*
X104249100Y-104065890D01*
X104193187Y-104033608D01*
X104129539Y-104016554D01*
X104065892Y-103999500D01*
X103934108Y-103999500D01*
X103806812Y-104033608D01*
X103692686Y-104099500D01*
X103692683Y-104099502D01*
X103599502Y-104192683D01*
X103599500Y-104192686D01*
X103533608Y-104306812D01*
X103499500Y-104434108D01*
X95300500Y-104434108D01*
X95300500Y-103934108D01*
X127499500Y-103934108D01*
X127499500Y-104065891D01*
X127533608Y-104193187D01*
X127566554Y-104250250D01*
X127599500Y-104307314D01*
X127692686Y-104400500D01*
X127806814Y-104466392D01*
X127934108Y-104500500D01*
X127934110Y-104500500D01*
X128065890Y-104500500D01*
X128065892Y-104500500D01*
X128193186Y-104466392D01*
X128307314Y-104400500D01*
X128400500Y-104307314D01*
X128466392Y-104193186D01*
X128500500Y-104065892D01*
X128500500Y-103934108D01*
X128466392Y-103806814D01*
X128459950Y-103795657D01*
X128448371Y-103775601D01*
X128400500Y-103692686D01*
X128307314Y-103599500D01*
X128193186Y-103533608D01*
X128065892Y-103499500D01*
X127934108Y-103499500D01*
X127806812Y-103533608D01*
X127692686Y-103599500D01*
X127692683Y-103599502D01*
X127599502Y-103692683D01*
X127599500Y-103692686D01*
X127533608Y-103806812D01*
X127499500Y-103934108D01*
X95300500Y-103934108D01*
X95300500Y-103193191D01*
X116503028Y-103193191D01*
X116503028Y-103324974D01*
X116537136Y-103452270D01*
X116564405Y-103499500D01*
X116603028Y-103566397D01*
X116696214Y-103659583D01*
X116810342Y-103725475D01*
X116936561Y-103759295D01*
X116996218Y-103795657D01*
X117002860Y-103809331D01*
X117008281Y-103803094D01*
X117029559Y-103777324D01*
X117031413Y-103776476D01*
X117032175Y-103775601D01*
X117035383Y-103774663D01*
X117066969Y-103760239D01*
X117069417Y-103759583D01*
X117069420Y-103759583D01*
X117196714Y-103725475D01*
X117310842Y-103659583D01*
X117404028Y-103566397D01*
X117469920Y-103452269D01*
X117474786Y-103434108D01*
X134499500Y-103434108D01*
X134499500Y-103565892D01*
X134499636Y-103566399D01*
X134533608Y-103693187D01*
X134552250Y-103725475D01*
X134599500Y-103807314D01*
X134692686Y-103900500D01*
X134778421Y-103949999D01*
X134799137Y-103961960D01*
X134806814Y-103966392D01*
X134934108Y-104000500D01*
X134934110Y-104000500D01*
X135065890Y-104000500D01*
X135065892Y-104000500D01*
X135193186Y-103966392D01*
X135307314Y-103900500D01*
X135400500Y-103807314D01*
X135466392Y-103693186D01*
X135500500Y-103565892D01*
X135500500Y-103434108D01*
X135466392Y-103306814D01*
X135400500Y-103192686D01*
X135307314Y-103099500D01*
X135249109Y-103065895D01*
X135193187Y-103033608D01*
X135129539Y-103016554D01*
X135065892Y-102999500D01*
X134934108Y-102999500D01*
X134806812Y-103033608D01*
X134692686Y-103099500D01*
X134692683Y-103099502D01*
X134599502Y-103192683D01*
X134599500Y-103192686D01*
X134533608Y-103306812D01*
X134499500Y-103434108D01*
X117474786Y-103434108D01*
X117504028Y-103324975D01*
X117504028Y-103193191D01*
X117469920Y-103065897D01*
X117404028Y-102951769D01*
X117310842Y-102858583D01*
X117253778Y-102825637D01*
X117196715Y-102792691D01*
X117133067Y-102775637D01*
X117069420Y-102758583D01*
X116937636Y-102758583D01*
X116810340Y-102792691D01*
X116696214Y-102858583D01*
X116696211Y-102858585D01*
X116603030Y-102951766D01*
X116603028Y-102951769D01*
X116537136Y-103065895D01*
X116503028Y-103193191D01*
X95300500Y-103193191D01*
X95300500Y-101434108D01*
X105499500Y-101434108D01*
X105499500Y-101565891D01*
X105533608Y-101693187D01*
X105566554Y-101750250D01*
X105599500Y-101807314D01*
X105692686Y-101900500D01*
X105806814Y-101966392D01*
X105934108Y-102000500D01*
X105934110Y-102000500D01*
X106065890Y-102000500D01*
X106065892Y-102000500D01*
X106193186Y-101966392D01*
X106307314Y-101900500D01*
X106400500Y-101807314D01*
X106466392Y-101693186D01*
X106500500Y-101565892D01*
X106500500Y-101434108D01*
X106999500Y-101434108D01*
X106999500Y-101565891D01*
X107033608Y-101693187D01*
X107066554Y-101750250D01*
X107099500Y-101807314D01*
X107192686Y-101900500D01*
X107306814Y-101966392D01*
X107434108Y-102000500D01*
X107434110Y-102000500D01*
X107565890Y-102000500D01*
X107565892Y-102000500D01*
X107693186Y-101966392D01*
X107749103Y-101934108D01*
X116499500Y-101934108D01*
X116499500Y-102065891D01*
X116533608Y-102193187D01*
X116566554Y-102250250D01*
X116599500Y-102307314D01*
X116692686Y-102400500D01*
X116806814Y-102466392D01*
X116934108Y-102500500D01*
X116934110Y-102500500D01*
X117065890Y-102500500D01*
X117065892Y-102500500D01*
X117193186Y-102466392D01*
X117307314Y-102400500D01*
X117400500Y-102307314D01*
X117466392Y-102193186D01*
X117500500Y-102065892D01*
X117500500Y-101934108D01*
X117466392Y-101806814D01*
X117400500Y-101692686D01*
X117307314Y-101599500D01*
X117193186Y-101533608D01*
X117065892Y-101499500D01*
X116934108Y-101499500D01*
X116806812Y-101533608D01*
X116692686Y-101599500D01*
X116692683Y-101599502D01*
X116599502Y-101692683D01*
X116599500Y-101692686D01*
X116533608Y-101806812D01*
X116499500Y-101934108D01*
X107749103Y-101934108D01*
X107807314Y-101900500D01*
X107900500Y-101807314D01*
X107966392Y-101693186D01*
X108000500Y-101565892D01*
X108000500Y-101434108D01*
X119424500Y-101434108D01*
X119424500Y-101565891D01*
X119458608Y-101693187D01*
X119491554Y-101750250D01*
X119524500Y-101807314D01*
X119617686Y-101900500D01*
X119731814Y-101966392D01*
X119859108Y-102000500D01*
X119859110Y-102000500D01*
X119990890Y-102000500D01*
X119990892Y-102000500D01*
X120118186Y-101966392D01*
X120232314Y-101900500D01*
X120325500Y-101807314D01*
X120391392Y-101693186D01*
X120425500Y-101565892D01*
X120425500Y-101434108D01*
X120391392Y-101306814D01*
X120325500Y-101192686D01*
X120232314Y-101099500D01*
X120175250Y-101066554D01*
X120118187Y-101033608D01*
X120054539Y-101016554D01*
X119990892Y-100999500D01*
X119859108Y-100999500D01*
X119731812Y-101033608D01*
X119617686Y-101099500D01*
X119617683Y-101099502D01*
X119524502Y-101192683D01*
X119524500Y-101192686D01*
X119458608Y-101306812D01*
X119424500Y-101434108D01*
X108000500Y-101434108D01*
X107966392Y-101306814D01*
X107900500Y-101192686D01*
X107807314Y-101099500D01*
X107750250Y-101066554D01*
X107693187Y-101033608D01*
X107629539Y-101016554D01*
X107565892Y-100999500D01*
X107434108Y-100999500D01*
X107306812Y-101033608D01*
X107192686Y-101099500D01*
X107192683Y-101099502D01*
X107099502Y-101192683D01*
X107099500Y-101192686D01*
X107033608Y-101306812D01*
X106999500Y-101434108D01*
X106500500Y-101434108D01*
X106466392Y-101306814D01*
X106400500Y-101192686D01*
X106307314Y-101099500D01*
X106250250Y-101066554D01*
X106193187Y-101033608D01*
X106129539Y-101016554D01*
X106065892Y-100999500D01*
X105934108Y-100999500D01*
X105806812Y-101033608D01*
X105692686Y-101099500D01*
X105692683Y-101099502D01*
X105599502Y-101192683D01*
X105599500Y-101192686D01*
X105533608Y-101306812D01*
X105499500Y-101434108D01*
X95300500Y-101434108D01*
X95300500Y-99434108D01*
X119499500Y-99434108D01*
X119499500Y-99565891D01*
X119533608Y-99693187D01*
X119566554Y-99750250D01*
X119599500Y-99807314D01*
X119692686Y-99900500D01*
X119806814Y-99966392D01*
X119934108Y-100000500D01*
X119934110Y-100000500D01*
X120065890Y-100000500D01*
X120065892Y-100000500D01*
X120193186Y-99966392D01*
X120307314Y-99900500D01*
X120400500Y-99807314D01*
X120466392Y-99693186D01*
X120500500Y-99565892D01*
X120500500Y-99434108D01*
X123999500Y-99434108D01*
X123999500Y-99565891D01*
X124033608Y-99693187D01*
X124066554Y-99750250D01*
X124099500Y-99807314D01*
X124192686Y-99900500D01*
X124306814Y-99966392D01*
X124434108Y-100000500D01*
X124434110Y-100000500D01*
X124565890Y-100000500D01*
X124565892Y-100000500D01*
X124693186Y-99966392D01*
X124807314Y-99900500D01*
X124900500Y-99807314D01*
X124966392Y-99693186D01*
X125000500Y-99565892D01*
X125000500Y-99434108D01*
X124966392Y-99306814D01*
X124900500Y-99192686D01*
X124807314Y-99099500D01*
X124750250Y-99066554D01*
X124693187Y-99033608D01*
X124629539Y-99016554D01*
X124565892Y-98999500D01*
X124434108Y-98999500D01*
X124306812Y-99033608D01*
X124192686Y-99099500D01*
X124192683Y-99099502D01*
X124099502Y-99192683D01*
X124099500Y-99192686D01*
X124033608Y-99306812D01*
X123999500Y-99434108D01*
X120500500Y-99434108D01*
X120466392Y-99306814D01*
X120400500Y-99192686D01*
X120307314Y-99099500D01*
X120250250Y-99066554D01*
X120193187Y-99033608D01*
X120129539Y-99016554D01*
X120065892Y-98999500D01*
X119934108Y-98999500D01*
X119806812Y-99033608D01*
X119692686Y-99099500D01*
X119692683Y-99099502D01*
X119599502Y-99192683D01*
X119599500Y-99192686D01*
X119533608Y-99306812D01*
X119499500Y-99434108D01*
X95300500Y-99434108D01*
X95300500Y-98434108D01*
X103499500Y-98434108D01*
X103499500Y-98565891D01*
X103533608Y-98693187D01*
X103566554Y-98750250D01*
X103599500Y-98807314D01*
X103692686Y-98900500D01*
X103806814Y-98966392D01*
X103934108Y-99000500D01*
X103934110Y-99000500D01*
X104065890Y-99000500D01*
X104065892Y-99000500D01*
X104193186Y-98966392D01*
X104307314Y-98900500D01*
X104400500Y-98807314D01*
X104466392Y-98693186D01*
X104500500Y-98565892D01*
X104500500Y-98434108D01*
X104466392Y-98306814D01*
X104400500Y-98192686D01*
X104307314Y-98099500D01*
X104250250Y-98066554D01*
X104193187Y-98033608D01*
X104129539Y-98016554D01*
X104065892Y-97999500D01*
X103934108Y-97999500D01*
X103806812Y-98033608D01*
X103692686Y-98099500D01*
X103692683Y-98099502D01*
X103599502Y-98192683D01*
X103599500Y-98192686D01*
X103533608Y-98306812D01*
X103499500Y-98434108D01*
X95300500Y-98434108D01*
X95300500Y-96434108D01*
X112499500Y-96434108D01*
X112499500Y-96565891D01*
X112533608Y-96693187D01*
X112566554Y-96750250D01*
X112599500Y-96807314D01*
X112692686Y-96900500D01*
X112806814Y-96966392D01*
X112934108Y-97000500D01*
X112934110Y-97000500D01*
X113065890Y-97000500D01*
X113065892Y-97000500D01*
X113193186Y-96966392D01*
X113307314Y-96900500D01*
X113400500Y-96807314D01*
X113466392Y-96693186D01*
X113500500Y-96565892D01*
X113500500Y-96434108D01*
X113466392Y-96306814D01*
X113400500Y-96192686D01*
X113307314Y-96099500D01*
X113250250Y-96066554D01*
X113193187Y-96033608D01*
X113129539Y-96016554D01*
X113065892Y-95999500D01*
X112934108Y-95999500D01*
X112806812Y-96033608D01*
X112692686Y-96099500D01*
X112692683Y-96099502D01*
X112599502Y-96192683D01*
X112599500Y-96192686D01*
X112533608Y-96306812D01*
X112499500Y-96434108D01*
X95300500Y-96434108D01*
X95300500Y-92378711D01*
X99149500Y-92378711D01*
X99149500Y-92621288D01*
X99181161Y-92861785D01*
X99243947Y-93096104D01*
X99336773Y-93320205D01*
X99336776Y-93320212D01*
X99458064Y-93530289D01*
X99458066Y-93530292D01*
X99458067Y-93530293D01*
X99605733Y-93722736D01*
X99605739Y-93722743D01*
X99777256Y-93894260D01*
X99777262Y-93894265D01*
X99969711Y-94041936D01*
X100179788Y-94163224D01*
X100403900Y-94256054D01*
X100638211Y-94318838D01*
X100818586Y-94342584D01*
X100878711Y-94350500D01*
X100878712Y-94350500D01*
X101121289Y-94350500D01*
X101169388Y-94344167D01*
X101361789Y-94318838D01*
X101596100Y-94256054D01*
X101820212Y-94163224D01*
X102030289Y-94041936D01*
X102222738Y-93894265D01*
X102394265Y-93722738D01*
X102541936Y-93530289D01*
X102663224Y-93320212D01*
X102756054Y-93096100D01*
X102818838Y-92861789D01*
X102850500Y-92621288D01*
X102850500Y-92378712D01*
X102850500Y-92378711D01*
X137149500Y-92378711D01*
X137149500Y-92621288D01*
X137181161Y-92861785D01*
X137243947Y-93096104D01*
X137336773Y-93320205D01*
X137336776Y-93320212D01*
X137458064Y-93530289D01*
X137458066Y-93530292D01*
X137458067Y-93530293D01*
X137605733Y-93722736D01*
X137605739Y-93722743D01*
X137777256Y-93894260D01*
X137777262Y-93894265D01*
X137969711Y-94041936D01*
X138179788Y-94163224D01*
X138403900Y-94256054D01*
X138638211Y-94318838D01*
X138818586Y-94342584D01*
X138878711Y-94350500D01*
X138878712Y-94350500D01*
X139121289Y-94350500D01*
X139169388Y-94344167D01*
X139361789Y-94318838D01*
X139596100Y-94256054D01*
X139820212Y-94163224D01*
X140030289Y-94041936D01*
X140222738Y-93894265D01*
X140394265Y-93722738D01*
X140541936Y-93530289D01*
X140663224Y-93320212D01*
X140756054Y-93096100D01*
X140818838Y-92861789D01*
X140850500Y-92621288D01*
X140850500Y-92378712D01*
X140818838Y-92138211D01*
X140756054Y-91903900D01*
X140663224Y-91679788D01*
X140541936Y-91469711D01*
X140394265Y-91277262D01*
X140394260Y-91277256D01*
X140222743Y-91105739D01*
X140222736Y-91105733D01*
X140030293Y-90958067D01*
X140030292Y-90958066D01*
X140030289Y-90958064D01*
X139820212Y-90836776D01*
X139820205Y-90836773D01*
X139596104Y-90743947D01*
X139361785Y-90681161D01*
X139121289Y-90649500D01*
X139121288Y-90649500D01*
X138878712Y-90649500D01*
X138878711Y-90649500D01*
X138638214Y-90681161D01*
X138403895Y-90743947D01*
X138179794Y-90836773D01*
X138179785Y-90836777D01*
X137969706Y-90958067D01*
X137777263Y-91105733D01*
X137777256Y-91105739D01*
X137605739Y-91277256D01*
X137605733Y-91277263D01*
X137458067Y-91469706D01*
X137336777Y-91679785D01*
X137336773Y-91679794D01*
X137243947Y-91903895D01*
X137181161Y-92138214D01*
X137149500Y-92378711D01*
X102850500Y-92378711D01*
X102818838Y-92138211D01*
X102756054Y-91903900D01*
X102663224Y-91679788D01*
X102541936Y-91469711D01*
X102394265Y-91277262D01*
X102394260Y-91277256D01*
X102222743Y-91105739D01*
X102222736Y-91105733D01*
X102070847Y-90989185D01*
X102030293Y-90958067D01*
X102030292Y-90958066D01*
X102030289Y-90958064D01*
X101922228Y-90895675D01*
X110174500Y-90895675D01*
X110174500Y-91104324D01*
X110207137Y-91310389D01*
X110271612Y-91508820D01*
X110358723Y-91679785D01*
X110366330Y-91694714D01*
X110488965Y-91863505D01*
X110636495Y-92011035D01*
X110805286Y-92133670D01*
X110893116Y-92178421D01*
X110991179Y-92228387D01*
X110991181Y-92228387D01*
X110991184Y-92228389D01*
X111078384Y-92256722D01*
X111189610Y-92292862D01*
X111395676Y-92325500D01*
X111395681Y-92325500D01*
X111604324Y-92325500D01*
X111810389Y-92292862D01*
X112008816Y-92228389D01*
X112194714Y-92133670D01*
X112363505Y-92011035D01*
X112511035Y-91863505D01*
X112633670Y-91694714D01*
X112728389Y-91508816D01*
X112792862Y-91310389D01*
X112798110Y-91277256D01*
X112825500Y-91104324D01*
X112825500Y-90895675D01*
X126174500Y-90895675D01*
X126174500Y-91104324D01*
X126207137Y-91310389D01*
X126271612Y-91508820D01*
X126358723Y-91679785D01*
X126366330Y-91694714D01*
X126488965Y-91863505D01*
X126636495Y-92011035D01*
X126805286Y-92133670D01*
X126893116Y-92178421D01*
X126991179Y-92228387D01*
X126991181Y-92228387D01*
X126991184Y-92228389D01*
X127078384Y-92256722D01*
X127189610Y-92292862D01*
X127395676Y-92325500D01*
X127395681Y-92325500D01*
X127604324Y-92325500D01*
X127810389Y-92292862D01*
X127921616Y-92256722D01*
X128008816Y-92228389D01*
X128194714Y-92133670D01*
X128363505Y-92011035D01*
X128511035Y-91863505D01*
X128633670Y-91694714D01*
X128728389Y-91508816D01*
X128792862Y-91310389D01*
X128798110Y-91277256D01*
X128825500Y-91104324D01*
X128825500Y-90895675D01*
X128792862Y-90689610D01*
X128728387Y-90491179D01*
X128633669Y-90305285D01*
X128511035Y-90136495D01*
X128363505Y-89988965D01*
X128194714Y-89866330D01*
X128008820Y-89771612D01*
X127810389Y-89707137D01*
X127604324Y-89674500D01*
X127604319Y-89674500D01*
X127395681Y-89674500D01*
X127395676Y-89674500D01*
X127189610Y-89707137D01*
X126991179Y-89771612D01*
X126805285Y-89866330D01*
X126636493Y-89988966D01*
X126488966Y-90136493D01*
X126366330Y-90305285D01*
X126271612Y-90491179D01*
X126207137Y-90689610D01*
X126174500Y-90895675D01*
X112825500Y-90895675D01*
X112792862Y-90689610D01*
X112728387Y-90491179D01*
X112633669Y-90305285D01*
X112511035Y-90136495D01*
X112363505Y-89988965D01*
X112194714Y-89866330D01*
X112008820Y-89771612D01*
X111810389Y-89707137D01*
X111604324Y-89674500D01*
X111604319Y-89674500D01*
X111395681Y-89674500D01*
X111395676Y-89674500D01*
X111189610Y-89707137D01*
X110991179Y-89771612D01*
X110805285Y-89866330D01*
X110636493Y-89988966D01*
X110488966Y-90136493D01*
X110366330Y-90305285D01*
X110271612Y-90491179D01*
X110207137Y-90689610D01*
X110174500Y-90895675D01*
X101922228Y-90895675D01*
X101820212Y-90836776D01*
X101820205Y-90836773D01*
X101596104Y-90743947D01*
X101361785Y-90681161D01*
X101121289Y-90649500D01*
X101121288Y-90649500D01*
X100878712Y-90649500D01*
X100878711Y-90649500D01*
X100638214Y-90681161D01*
X100403895Y-90743947D01*
X100179794Y-90836773D01*
X100179785Y-90836777D01*
X99969706Y-90958067D01*
X99777263Y-91105733D01*
X99777256Y-91105739D01*
X99605739Y-91277256D01*
X99605733Y-91277263D01*
X99458067Y-91469706D01*
X99336777Y-91679785D01*
X99336773Y-91679794D01*
X99243947Y-91903895D01*
X99181161Y-92138214D01*
X99149500Y-92378711D01*
X95300500Y-92378711D01*
X95300500Y-89503480D01*
X95300695Y-89496527D01*
X95310214Y-89327028D01*
X95317084Y-89204691D01*
X95318638Y-89190898D01*
X95367015Y-88906167D01*
X95370109Y-88892615D01*
X95441563Y-88644596D01*
X95450061Y-88615096D01*
X95454653Y-88601975D01*
X95565175Y-88335151D01*
X95571195Y-88322651D01*
X95710902Y-88069869D01*
X95718297Y-88058101D01*
X95885428Y-87822551D01*
X95894079Y-87811704D01*
X96086527Y-87596356D01*
X96096358Y-87586526D01*
X96311704Y-87394079D01*
X96322551Y-87385428D01*
X96558106Y-87218293D01*
X96569869Y-87210902D01*
X96822651Y-87071195D01*
X96835151Y-87065175D01*
X97101979Y-86954651D01*
X97115096Y-86950061D01*
X97392621Y-86870107D01*
X97406167Y-86867015D01*
X97690898Y-86818638D01*
X97704691Y-86817084D01*
X97996528Y-86800695D01*
X98003481Y-86800500D01*
X98047595Y-86800500D01*
X141952405Y-86800500D01*
X141996519Y-86800500D01*
X142003472Y-86800695D01*
G37*
%TD.AperFunction*%
%TD*%
M02*
