%TF.GenerationSoftware,KiCad,Pcbnew,10.0.3*%
%TF.CreationDate,2026-06-27T22:27:40+03:00*%
%TF.ProjectId,ARC_PFC,4152435f-5046-4432-9e6b-696361645f70,rev?*%
%TF.SameCoordinates,Original*%
%TF.FileFunction,Legend,Bot*%
%TF.FilePolarity,Positive*%
%FSLAX46Y46*%
G04 Gerber Fmt 4.6, Leading zero omitted, Abs format (unit mm)*
G04 Created by KiCad (PCBNEW 10.0.3) date 2026-06-27 22:27:40*
%MOMM*%
%LPD*%
G01*
G04 APERTURE LIST*
%ADD10C,0.083820*%
%ADD11C,0.120000*%
%ADD12C,0.200000*%
%ADD13C,0.100000*%
%ADD14C,0.127000*%
G04 APERTURE END LIST*
D10*
X105000000Y-165500000D02*
X105000000Y-173000000D01*
X105000000Y-165500000D02*
X135000000Y-165500000D01*
X105000000Y-173000000D02*
X135000000Y-173000000D01*
X135000000Y-173000000D02*
X135000000Y-165500000D01*
%TO.C,C39*%
D11*
X123130337Y-148087246D02*
X123130337Y-146664742D01*
X124950337Y-148087246D02*
X124950337Y-146664742D01*
%TO.C,R27*%
X109725274Y-146398726D02*
X109725274Y-146706008D01*
X110485274Y-146398726D02*
X110485274Y-146706008D01*
%TO.C,C2*%
X132788748Y-132090000D02*
X134211252Y-132090000D01*
X132788748Y-133910000D02*
X134211252Y-133910000D01*
%TO.C,R4*%
X133356359Y-120120000D02*
X133663641Y-120120000D01*
X133356359Y-120880000D02*
X133663641Y-120880000D01*
%TO.C,D5*%
X138800000Y-103900000D02*
X140760000Y-103900000D01*
X138800000Y-105100000D02*
X140760000Y-105100000D01*
X140760000Y-103900000D02*
X140760000Y-105100000D01*
%TO.C,D1*%
X132236083Y-118323116D02*
X132236083Y-117123116D01*
X134196083Y-117123116D02*
X132236083Y-117123116D01*
X134196083Y-118323116D02*
X132236083Y-118323116D01*
%TO.C,R25*%
X106912152Y-145793989D02*
X106604870Y-145793989D01*
X106912152Y-146553989D02*
X106604870Y-146553989D01*
%TO.C,C40*%
X124381640Y-143831405D02*
X124381640Y-144047077D01*
X125101640Y-143831405D02*
X125101640Y-144047077D01*
%TO.C,R26*%
X108254409Y-149580086D02*
X108254409Y-149887368D01*
X109014409Y-149580086D02*
X109014409Y-149887368D01*
%TO.C,R5*%
X133370991Y-121300237D02*
X133678273Y-121300237D01*
X133370991Y-122060237D02*
X133678273Y-122060237D01*
%TO.C,BT1*%
X134748102Y-101000000D02*
G75*
G02*
X127688102Y-101000000I-3530000J0D01*
G01*
X127688102Y-101000000D02*
G75*
G02*
X134748102Y-101000000I3530000J0D01*
G01*
%TO.C,C24*%
X109882429Y-149341277D02*
X109882429Y-150763781D01*
X111702429Y-149341277D02*
X111702429Y-150763781D01*
%TO.C,L2*%
X111300000Y-138200000D02*
X111300000Y-144800000D01*
X111300000Y-144800000D02*
X113000000Y-144800000D01*
X113000000Y-138200000D02*
X111300000Y-138200000D01*
X116000000Y-144800000D02*
X117700000Y-144800000D01*
X117700000Y-138200000D02*
X116000000Y-138200000D01*
X117700000Y-144800000D02*
X117700000Y-138200000D01*
%TO.C,J6*%
D12*
X126604640Y-147739241D02*
X126604640Y-147739241D01*
X126604640Y-147739241D02*
X126604640Y-147739241D01*
X126704640Y-147739241D02*
X126704640Y-147739241D01*
D13*
X127729640Y-138014241D02*
X130803640Y-138014241D01*
X127729640Y-150439241D02*
X127729640Y-151864241D01*
X127729640Y-151864241D02*
X141554640Y-151864241D01*
X133303640Y-138014241D02*
X137304640Y-138014241D01*
X139304640Y-138014241D02*
X140554640Y-138014241D01*
X143878640Y-150439241D02*
X143878640Y-139189241D01*
D12*
X126604640Y-147739241D02*
G75*
G02*
X126704640Y-147739241I50000J0D01*
G01*
X126604640Y-147739241D02*
G75*
G02*
X126704640Y-147739241I50000J0D01*
G01*
X126704640Y-147739241D02*
G75*
G02*
X126604640Y-147739241I-50000J0D01*
G01*
%TO.C,C11*%
D11*
X104692084Y-147186771D02*
X106114588Y-147186771D01*
X104692084Y-149006771D02*
X106114588Y-149006771D01*
%TO.C,E22-400M22S1*%
D13*
X104426784Y-114407878D02*
X104426784Y-115407878D01*
X104426784Y-115407878D02*
X105426784Y-115407878D01*
X104494549Y-94833107D02*
X104494549Y-95833107D01*
X105494549Y-94833107D02*
X104494549Y-94833107D01*
X118039715Y-115469810D02*
X119039715Y-115469810D01*
X119000000Y-94830343D02*
X118000000Y-94830343D01*
X119000000Y-95830343D02*
X119000000Y-94830343D01*
X119039715Y-115469810D02*
X119039715Y-114469810D01*
%TO.C,D2*%
D11*
X131498475Y-124300000D02*
X131498475Y-126260000D01*
X132698475Y-124300000D02*
X132698475Y-126260000D01*
X132698475Y-126260000D02*
X131498475Y-126260000D01*
%TO.C,C23*%
X108139300Y-147026266D02*
X108139300Y-147307426D01*
X109159300Y-147026266D02*
X109159300Y-147307426D01*
%TO.C,C13*%
X107735077Y-151090000D02*
X106312573Y-151090000D01*
X107735077Y-152910000D02*
X106312573Y-152910000D01*
%TO.C,F2*%
X133423457Y-125516903D02*
X133423457Y-126034059D01*
X134843457Y-125516903D02*
X134843457Y-126034059D01*
%TO.C,C20*%
X104607836Y-144140000D02*
X104392164Y-144140000D01*
X104607836Y-144860000D02*
X104392164Y-144860000D01*
%TO.C,C12*%
X107248268Y-136283895D02*
X107463940Y-136283895D01*
X107248268Y-137003895D02*
X107463940Y-137003895D01*
%TO.C,R55*%
X139653641Y-101620000D02*
X139346359Y-101620000D01*
X139653641Y-102380000D02*
X139346359Y-102380000D01*
%TO.C,D4*%
D12*
X130900000Y-129400000D02*
X130900000Y-129400000D01*
X130900000Y-129600000D02*
X130900000Y-129600000D01*
X133500000Y-130425000D02*
X133500000Y-128575000D01*
X130900000Y-129400000D02*
G75*
G02*
X130900000Y-129600000I0J-100000D01*
G01*
X130900000Y-129600000D02*
G75*
G02*
X130900000Y-129400000I0J100000D01*
G01*
%TO.C,R2*%
D11*
X133671874Y-118996956D02*
X133364592Y-118996956D01*
X133671874Y-119756956D02*
X133364592Y-119756956D01*
%TO.C,R29*%
X110869539Y-146710069D02*
X110869539Y-146402787D01*
X111629539Y-146710069D02*
X111629539Y-146402787D01*
%TO.C,U3*%
D14*
X105500000Y-143500000D02*
X105500000Y-139500000D01*
X110500000Y-139500000D02*
X110500000Y-143500000D01*
D12*
X105530000Y-137440000D02*
G75*
G02*
X105330000Y-137440000I-100000J0D01*
G01*
X105330000Y-137440000D02*
G75*
G02*
X105530000Y-137440000I100000J0D01*
G01*
%TO.C,C44*%
D11*
X139392164Y-99640000D02*
X139607836Y-99640000D01*
X139392164Y-100360000D02*
X139607836Y-100360000D01*
%TO.C,R3*%
X133659523Y-122391175D02*
X133352241Y-122391175D01*
X133659523Y-123151175D02*
X133352241Y-123151175D01*
%TO.C,C4*%
X135169828Y-134323875D02*
X135385500Y-134323875D01*
X135169828Y-135043875D02*
X135385500Y-135043875D01*
%TO.C,J1*%
D13*
X137500000Y-118300000D02*
X137500000Y-118300000D01*
X137600000Y-118300000D02*
X137600000Y-118300000D01*
D12*
X140400000Y-117030000D02*
X142200000Y-117030000D01*
X140400000Y-125970000D02*
X142200000Y-125970000D01*
X144400000Y-117030000D02*
X145337000Y-117030000D01*
X145337000Y-117030000D02*
X145337000Y-125970000D01*
X145337000Y-125970000D02*
X144400000Y-125970000D01*
D13*
X137500000Y-118300000D02*
G75*
G02*
X137600000Y-118300000I50000J0D01*
G01*
X137600000Y-118300000D02*
G75*
G02*
X137500000Y-118300000I-50000J0D01*
G01*
%TD*%
M02*
