%TF.GenerationSoftware,KiCad,Pcbnew,10.0.3*%
%TF.CreationDate,2026-06-27T22:27:40+03:00*%
%TF.ProjectId,ARC_PFC,4152435f-5046-4432-9e6b-696361645f70,rev?*%
%TF.SameCoordinates,Original*%
%TF.FileFunction,Paste,Bot*%
%TF.FilePolarity,Positive*%
%FSLAX46Y46*%
G04 Gerber Fmt 4.6, Leading zero omitted, Abs format (unit mm)*
G04 Created by KiCad (PCBNEW 10.0.3) date 2026-06-27 22:27:40*
%MOMM*%
%LPD*%
G01*
G04 APERTURE LIST*
G04 Aperture macros list*
%AMRoundRect*
0 Rectangle with rounded corners*
0 $1 Rounding radius*
0 $2 $3 $4 $5 $6 $7 $8 $9 X,Y pos of 4 corners*
0 Add a 4 corners polygon primitive as box body*
4,1,4,$2,$3,$4,$5,$6,$7,$8,$9,$2,$3,0*
0 Add four circle primitives for the rounded corners*
1,1,$1+$1,$2,$3*
1,1,$1+$1,$4,$5*
1,1,$1+$1,$6,$7*
1,1,$1+$1,$8,$9*
0 Add four rect primitives between the rounded corners*
20,1,$1+$1,$2,$3,$4,$5,0*
20,1,$1+$1,$4,$5,$6,$7,0*
20,1,$1+$1,$6,$7,$8,$9,0*
20,1,$1+$1,$8,$9,$2,$3,0*%
G04 Aperture macros list end*
%ADD10C,0.010000*%
%ADD11RoundRect,0.250000X0.650000X-0.325000X0.650000X0.325000X-0.650000X0.325000X-0.650000X-0.325000X0*%
%ADD12RoundRect,0.135000X-0.185000X0.135000X-0.185000X-0.135000X0.185000X-0.135000X0.185000X0.135000X0*%
%ADD13RoundRect,0.250000X-0.325000X-0.650000X0.325000X-0.650000X0.325000X0.650000X-0.325000X0.650000X0*%
%ADD14RoundRect,0.135000X-0.135000X-0.185000X0.135000X-0.185000X0.135000X0.185000X-0.135000X0.185000X0*%
%ADD15RoundRect,0.150000X-0.150000X-0.200000X0.150000X-0.200000X0.150000X0.200000X-0.150000X0.200000X0*%
%ADD16RoundRect,0.150000X0.150000X0.200000X-0.150000X0.200000X-0.150000X-0.200000X0.150000X-0.200000X0*%
%ADD17RoundRect,0.135000X0.135000X0.185000X-0.135000X0.185000X-0.135000X-0.185000X0.135000X-0.185000X0*%
%ADD18RoundRect,0.140000X-0.170000X0.140000X-0.170000X-0.140000X0.170000X-0.140000X0.170000X0.140000X0*%
%ADD19R,2.000000X0.800000*%
%ADD20RoundRect,0.250000X-0.650000X0.325000X-0.650000X-0.325000X0.650000X-0.325000X0.650000X0.325000X0*%
%ADD21R,2.400000X1.500000*%
%ADD22R,1.200000X0.700000*%
%ADD23R,1.200000X1.000000*%
%ADD24R,0.800000X1.000000*%
%ADD25R,2.800000X1.000000*%
%ADD26R,1.900000X1.300000*%
%ADD27R,0.500000X0.800000*%
%ADD28RoundRect,0.150000X-0.200000X0.150000X-0.200000X-0.150000X0.200000X-0.150000X0.200000X0.150000X0*%
%ADD29RoundRect,0.225000X-0.250000X0.225000X-0.250000X-0.225000X0.250000X-0.225000X0.250000X0.225000X0*%
%ADD30RoundRect,0.250000X0.325000X0.650000X-0.325000X0.650000X-0.325000X-0.650000X0.325000X-0.650000X0*%
%ADD31RoundRect,0.243750X-0.456250X0.243750X-0.456250X-0.243750X0.456250X-0.243750X0.456250X0.243750X0*%
%ADD32RoundRect,0.140000X0.140000X0.170000X-0.140000X0.170000X-0.140000X-0.170000X0.140000X-0.170000X0*%
%ADD33RoundRect,0.140000X-0.140000X-0.170000X0.140000X-0.170000X0.140000X0.170000X-0.140000X0.170000X0*%
%ADD34R,1.300000X1.400000*%
%ADD35RoundRect,0.135000X0.185000X-0.135000X0.185000X0.135000X-0.185000X0.135000X-0.185000X-0.135000X0*%
%ADD36RoundRect,0.150000X-0.150000X0.835000X-0.150000X-0.835000X0.150000X-0.835000X0.150000X0.835000X0*%
%ADD37R,1.150000X0.600000*%
%ADD38R,1.150000X0.300000*%
%ADD39R,1.250000X1.550000*%
%ADD40R,1.500000X1.550000*%
G04 APERTURE END LIST*
D10*
%TO.C,U3*%
X106625000Y-140565000D02*
X106625000Y-141365000D01*
X107865000Y-141365000D01*
X107865000Y-140565000D01*
X106625000Y-140565000D01*
G36*
X107865000Y-141365000D02*
G01*
X106625000Y-141365000D01*
X106625000Y-140565000D01*
X107865000Y-140565000D01*
X107865000Y-141365000D01*
G37*
X106625000Y-141635000D02*
X106625000Y-142435000D01*
X107865000Y-142435000D01*
X107865000Y-141635000D01*
X106625000Y-141635000D01*
G36*
X107865000Y-142435000D02*
G01*
X106625000Y-142435000D01*
X106625000Y-141635000D01*
X107865000Y-141635000D01*
X107865000Y-142435000D01*
G37*
X109375000Y-141365000D02*
X109375000Y-140565000D01*
X108135000Y-140565000D01*
X108135000Y-141365000D01*
X109375000Y-141365000D01*
G36*
X109375000Y-141365000D02*
G01*
X108135000Y-141365000D01*
X108135000Y-140565000D01*
X109375000Y-140565000D01*
X109375000Y-141365000D01*
G37*
X109375000Y-142435000D02*
X109375000Y-141635000D01*
X108135000Y-141635000D01*
X108135000Y-142435000D01*
X109375000Y-142435000D01*
G36*
X109375000Y-142435000D02*
G01*
X108135000Y-142435000D01*
X108135000Y-141635000D01*
X109375000Y-141635000D01*
X109375000Y-142435000D01*
G37*
%TD*%
D11*
%TO.C,C39*%
X124040337Y-148850994D03*
X124040337Y-145900994D03*
%TD*%
D12*
%TO.C,R27*%
X110105274Y-146042367D03*
X110105274Y-147062367D03*
%TD*%
D13*
%TO.C,C2*%
X132025000Y-133000000D03*
X134975000Y-133000000D03*
%TD*%
D14*
%TO.C,R4*%
X133000000Y-120500000D03*
X134020000Y-120500000D03*
%TD*%
D15*
%TO.C,D5*%
X140200000Y-104500000D03*
X138800000Y-104500000D03*
%TD*%
D16*
%TO.C,D1*%
X132796083Y-117723116D03*
X134196083Y-117723116D03*
%TD*%
D17*
%TO.C,R25*%
X107268511Y-146173989D03*
X106248511Y-146173989D03*
%TD*%
D18*
%TO.C,C40*%
X124741640Y-143459241D03*
X124741640Y-144419241D03*
%TD*%
D12*
%TO.C,R26*%
X108634409Y-149223727D03*
X108634409Y-150243727D03*
%TD*%
D14*
%TO.C,R5*%
X133014632Y-121680237D03*
X134034632Y-121680237D03*
%TD*%
D19*
%TO.C,BT1*%
X136218102Y-101750000D03*
X136218102Y-100250000D03*
%TD*%
D20*
%TO.C,C24*%
X110792429Y-148577529D03*
X110792429Y-151527529D03*
%TD*%
D21*
%TO.C,L2*%
X114500000Y-138750000D03*
X114500000Y-144250000D03*
%TD*%
D22*
%TO.C,J6*%
X127829640Y-147714241D03*
X127829640Y-146614241D03*
X127829640Y-145514241D03*
X127829640Y-144414241D03*
X127829640Y-143314241D03*
X127829640Y-142214241D03*
X127829640Y-141114241D03*
X127829640Y-140014241D03*
D23*
X127829640Y-149264241D03*
D22*
X127829640Y-139064241D03*
D23*
X132129640Y-138114241D03*
D24*
X138328640Y-138114241D03*
D25*
X142478640Y-138114241D03*
D26*
X142929640Y-151614241D03*
%TD*%
D13*
%TO.C,C11*%
X103928336Y-148096771D03*
X106878336Y-148096771D03*
%TD*%
D27*
%TO.C,E22-400M22S1*%
X105000000Y-114110000D03*
X105000000Y-112840000D03*
X105000000Y-111570000D03*
X105000000Y-106000000D03*
X105000000Y-104730000D03*
X105000000Y-103460000D03*
X105000000Y-102190000D03*
X105000000Y-100920000D03*
X105000000Y-99650000D03*
X105000000Y-98380000D03*
X105000000Y-97110000D03*
X118500000Y-97110000D03*
X118500000Y-98380000D03*
X118500000Y-99650000D03*
X118500000Y-100920000D03*
X118500000Y-102190000D03*
X118500000Y-103460000D03*
X118500000Y-104730000D03*
X118500000Y-106000000D03*
X118500000Y-111570000D03*
X118500000Y-112840000D03*
X118500000Y-114110000D03*
%TD*%
D28*
%TO.C,D2*%
X132098475Y-125700000D03*
X132098475Y-124300000D03*
%TD*%
D29*
%TO.C,C23*%
X108649300Y-146391846D03*
X108649300Y-147941846D03*
%TD*%
D30*
%TO.C,C13*%
X108498825Y-152000000D03*
X105548825Y-152000000D03*
%TD*%
D31*
%TO.C,F2*%
X134133457Y-124837981D03*
X134133457Y-126712981D03*
%TD*%
D32*
%TO.C,C20*%
X104980000Y-144500000D03*
X104020000Y-144500000D03*
%TD*%
D33*
%TO.C,C12*%
X106876104Y-136643895D03*
X107836104Y-136643895D03*
%TD*%
D17*
%TO.C,R55*%
X140010000Y-102000000D03*
X138990000Y-102000000D03*
%TD*%
D34*
%TO.C,D4*%
X132050000Y-129500000D03*
X134950000Y-129500000D03*
%TD*%
D17*
%TO.C,R2*%
X134028233Y-119376956D03*
X133008233Y-119376956D03*
%TD*%
D35*
%TO.C,R29*%
X111249539Y-147066428D03*
X111249539Y-146046428D03*
%TD*%
D36*
%TO.C,U3*%
X106095000Y-139025000D03*
X107365000Y-139025000D03*
X108635000Y-139025000D03*
X109905000Y-139025000D03*
X109905000Y-143975000D03*
X108635000Y-143975000D03*
X107365000Y-143975000D03*
X106095000Y-143975000D03*
%TD*%
D33*
%TO.C,C44*%
X139020000Y-100000000D03*
X139980000Y-100000000D03*
%TD*%
D17*
%TO.C,R3*%
X134015882Y-122771175D03*
X132995882Y-122771175D03*
%TD*%
D33*
%TO.C,C4*%
X134797664Y-134683875D03*
X135757664Y-134683875D03*
%TD*%
D37*
%TO.C,J1*%
X138662000Y-118300000D03*
X138662000Y-119100000D03*
D38*
X138662000Y-120250000D03*
X138662000Y-121250000D03*
X138662000Y-121750000D03*
X138662000Y-122750000D03*
D37*
X138662000Y-124700000D03*
X138662000Y-123900000D03*
D38*
X138662000Y-123250000D03*
X138662000Y-122250000D03*
X138662000Y-120750000D03*
X138662000Y-119750000D03*
D39*
X139312000Y-116405000D03*
X139312000Y-126595000D03*
D40*
X143237000Y-126595000D03*
X143237000Y-116405000D03*
%TD*%
M02*
