M48
; DRILL file KiCad 10.0.3 date 2026-06-27T22:28:02
; FORMAT={-:-/ absolute / metric / decimal}
; #@! TF.CreationDate,2026-06-27T22:28:02+03:00
; #@! TF.GenerationSoftware,Kicad,Pcbnew,10.0.3
; #@! TF.FileFunction,MixedPlating,1,4
FMAT,2
METRIC
; #@! TA.AperFunction,Plated,PTH,ViaDrill
T1C0.250
; #@! TA.AperFunction,Plated,PTH,ViaDrill
T2C0.300
; #@! TA.AperFunction,Plated,PTH,ViaDrill
T3C0.400
; #@! TA.AperFunction,Plated,PTH,ViaDrill
T4C0.600
; #@! TA.AperFunction,Plated,PTH,ComponentDrill
T5C1.000
; #@! TA.AperFunction,Plated,PTH,ComponentDrill
T6C1.300
; #@! TA.AperFunction,Plated,PTH,ComponentDrill
T7C1.500
; #@! TA.AperFunction,NonPlated,NPTH,ComponentDrill
T8C0.650
; #@! TA.AperFunction,NonPlated,NPTH,ComponentDrill
T9C3.200
%
G90
G05
T1
X113.737Y-125.75
X115.579Y-123.79
X116.291Y-115.549
X117.281Y-126.239
X117.932Y-122.212
X119.04Y-123.85
X119.587Y-128.088
X119.7Y-119.675
X124.44Y-133.11
X125.076Y-136.27
T2
X101.5Y-136.5
X102.5Y-107.5
X103.5Y-159.0
X104.0Y-98.5
X104.0Y-104.5
X104.293Y-146.174
X104.5Y-109.5
X104.5Y-140.0
X105.0Y-133.5
X106.0Y-101.5
X106.0Y-106.5
X106.5Y-98.0
X106.5Y-114.5
X106.5Y-173.0
X106.75Y-112.75
X107.0Y-125.5
X107.5Y-101.5
X107.5Y-117.0
X107.5Y-123.0
X107.543Y-137.655
X108.5Y-128.0
X108.5Y-165.5
X108.5Y-170.5
X109.5Y-161.5
X110.0Y-113.575
X110.0Y-154.5
X110.5Y-128.5
X111.0Y-110.5
X111.0Y-138.5
X111.0Y-169.5
X111.75Y-147.563
X111.808Y-129.5
X112.0Y-111.5
X112.0Y-167.5
X112.193Y-128.349
X112.5Y-126.0
X112.5Y-139.0
X112.711Y-109.609
X112.988Y-120.926
X113.0Y-96.5
X113.0Y-102.0
X113.0Y-105.0
X113.0Y-119.0
X113.0Y-123.5
X113.0Y-128.5
X113.0Y-131.5
X113.425Y-116.075
X113.499Y-133.32
X113.5Y-136.0
X113.5Y-164.0
X113.5Y-168.0
X113.717Y-149.758
X114.186Y-124.186
X114.7Y-134.0
X115.0Y-168.5
X115.5Y-117.0
X115.575Y-122.075
X115.599Y-122.884
X115.604Y-126.723
X115.755Y-120.075
X115.953Y-120.925
X116.0Y-129.0
X116.0Y-141.5
X116.0Y-166.5
X116.925Y-112.5
X117.0Y-102.0
X117.0Y-104.5
X117.0Y-106.0
X117.0Y-116.0
X117.004Y-103.259
X117.799Y-121.0
X117.845Y-119.405
X117.976Y-122.961
X118.0Y-111.0
X118.5Y-94.0
X119.0Y-115.5
X119.0Y-153.5
X119.5Y-110.0
X119.5Y-116.5
X119.5Y-132.5
X119.925Y-101.5
X120.0Y-99.5
X120.0Y-142.5
X120.066Y-117.066
X120.525Y-94.525
X120.914Y-128.101
X121.0Y-169.0
X121.075Y-121.849
X121.3Y-119.6
X121.5Y-164.0
X121.892Y-128.352
X122.0Y-102.5
X122.0Y-126.5
X122.0Y-127.5
X122.0Y-131.0
X122.0Y-135.5
X122.0Y-146.0
X122.5Y-121.0
X122.5Y-123.0
X122.575Y-141.5
X123.0Y-106.5
X123.0Y-110.0
X123.0Y-139.0
X124.0Y-143.0
X124.0Y-159.5
X124.04Y-150.96
X124.274Y-127.72
X124.5Y-99.5
X124.5Y-130.5
X124.925Y-131.5
X125.0Y-115.0
X125.0Y-122.5
X125.0Y-138.5
X125.171Y-163.5
X125.61Y-168.5
X125.75Y-171.0
X126.0Y-110.5
X126.0Y-122.5
X126.0Y-139.0
X126.0Y-145.5
X126.075Y-150.5
X126.207Y-146.62
X126.425Y-125.0
X126.425Y-128.5
X126.5Y-119.5
X126.5Y-123.499
X126.5Y-166.0
X126.949Y-118.806
X127.0Y-151.5
X127.5Y-118.0
X127.5Y-131.5
X127.5Y-137.575
X127.5Y-161.5
X127.5Y-167.0
X128.0Y-104.0
X128.0Y-110.5
X128.5Y-160.5
X129.0Y-114.0
X130.0Y-173.0
X130.5Y-124.0
X130.5Y-139.0
X131.0Y-122.5
X131.0Y-125.5
X131.382Y-111.33
X131.5Y-103.0
X131.5Y-139.5
X131.5Y-141.5
X132.207Y-118.393
X132.312Y-123.625
X132.5Y-145.5
X133.0Y-114.5
X133.5Y-116.5
X133.5Y-135.9
X134.0Y-112.0
X134.0Y-145.0
X134.5Y-105.0
X134.5Y-123.5
X134.5Y-139.0
X134.518Y-143.0
X135.0Y-103.5
X135.0Y-119.5
X135.0Y-121.5
X135.0Y-145.0
X135.294Y-151.294
X135.5Y-146.5
X135.5Y-160.0
X136.5Y-114.0
X136.5Y-117.0
X136.967Y-140.033
X137.0Y-134.0
X137.425Y-146.575
X138.0Y-107.0
X138.0Y-143.5
X139.0Y-140.0
X139.0Y-141.5
X139.0Y-146.5
X139.5Y-150.262
X140.0Y-129.0
X140.155Y-150.85
X140.3Y-134.99
X140.4Y-121.5
X140.73Y-149.687
X141.0Y-152.5
X142.323Y-148.425
X142.5Y-163.5
X143.0Y-129.0
X143.5Y-134.0
X144.0Y-136.5
X144.0Y-143.5
X144.0Y-144.5
T3
X122.0Y-155.0
X132.0Y-144.0
T4
X102.5Y-132.0
X110.0Y-166.0
X110.5Y-141.5
X112.5Y-141.5
X113.0Y-155.5
X116.0Y-133.689
X116.5Y-173.5
X120.339Y-137.5
X130.5Y-148.5
X137.5Y-156.5
T5
X97.0Y-109.46
X97.0Y-112.0
X97.0Y-114.54
X99.54Y-109.46
X99.54Y-112.0
X99.54Y-114.54
X116.0Y-146.92
X116.0Y-149.46
X116.0Y-152.0
X116.0Y-154.54
X116.0Y-157.08
X140.0Y-108.96
X140.0Y-111.5
X140.0Y-114.04
X142.54Y-108.96
X142.54Y-111.5
X142.54Y-114.04
T6
X99.351Y-149.25
X99.351Y-152.75
X99.355Y-158.332
X99.355Y-161.832
X99.36Y-140.124
X99.36Y-143.624
X99.417Y-119.25
X99.417Y-122.75
X99.417Y-128.5
X99.417Y-132.0
T7
X108.96Y-88.46
X108.96Y-93.54
X111.5Y-91.0
X114.04Y-88.46
X114.04Y-93.54
X124.96Y-88.46
X124.96Y-93.54
X127.5Y-91.0
X130.04Y-88.46
X130.04Y-93.54
T8
X139.937Y-118.5
X139.937Y-124.5
T9
X101.0Y-92.5
X101.0Y-169.0
X139.0Y-92.5
X139.0Y-169.0
M30
